<svg xmlns="http://www.w3.org/2000/svg" xmlns:xlink="http://www.w3.org/1999/xlink" width="50" height="45" viewBox="0 0 50 45">
    <defs>
        <path id="a" d="M0 .301h49.854v25.183H0z"/>
    </defs>
    <g fill="none" fill-rule="evenodd" opacity=".75">
        <path fill="#000" d="M41.28 41.517c-1.243.428-2.49.657-3.32 2.045.624-.05 1.085-.01 1.496-.135 1.095-.334 2.166-.746 3.251-1.113.898-.302 1.217-.92 1.175-1.854-.135-3.02-.211-6.042-.341-9.062-.088-2.035-.227-4.067-.34-6.06.817-.207.894.325.972.695.157.747.271 1.514.305 2.277.19 4.253.343 8.508.527 12.762.035.808-.232 1.341-.966 1.761-1.652.945-3.43 1.472-5.272 1.835-.206.04-.424.017-.637.028-.55.031-.849-.307-1.096-.735-.274-.475-.163-.918.16-1.299.752-.891 1.662-1.572 2.884-1.91-.359-3.23-.712-6.43-1.087-9.816l-1.003-.411c-1.015 2.67-1.97 5.25-2.988 7.806-.192.48-.543 1.042-.973 1.255a51.257 51.257 0 0 1-4.774 2.067c-1.042.389-1.646-.233-1.36-1.322.277-1.05 1.019-1.781 1.966-2.21.791-.357 1.125-.822 1.237-1.709.184-1.471.581-2.916.912-4.367.092-.4.269-.782.617-1.183.068.242.219.494.189.722a319.36 319.36 0 0 1-.856 5.942c-.1.654-.572 1.004-1.14 1.274-.768.366-1.505.785-1.947 1.89.865-.366 1.52-.731 2.222-.925 1.963-.54 3.062-1.673 3.558-3.763.453-1.912 1.488-3.685 2.316-5.636-4.793-1.14-9.665-1.138-14.739-.125.23.537.393.998.616 1.428a469.648 469.648 0 0 0 3.207 6.082c.275.51.329.994-.068 1.406-1.03 1.07-2.022 2.201-3.175 3.126-1.04.836-2.075.294-2.307-1.039-.187-1.071-.064-1.646.653-2.95-.25-.303-.533-.617-.781-.955a2.925 2.925 0 0 1-.499-1.016c1.178.264 1.878 1.156 2.747 1.995-.812.894-1.588 1.814-.849 3.278 1.43-.755 2.35-1.937 3.309-3.146-1.274-2.635-3.095-4.977-3.769-8.172-.323.48-.531.68-.61.923-.695 2.142-1.364 4.293-2.047 6.439-.476 1.496-.95 2.995-1.446 4.485-.682 2.042-2.106 2.32-4.33 2.261-.202-.005-.401-.117-.605-.164-.992-.233-1.417-.603-1.497-1.31-.106-.929.278-1.71 1.109-2.108.49-.236 1.023-.379 1.582-.58.218-1.639.44-3.277.65-4.918.104-.804.126-1.623.294-2.41.183-.864-.06-1.446-.748-1.996-1.262-1.008-2.087-2.323-2.27-4.003.32.56.568 1.176.971 1.665a14.286 14.286 0 0 0 1.883 1.881c.702.582 1.184 1.2 1.083 2.169-.277 2.667-.531 5.336-.804 8.004-.022.206-.121.405-.186.613-.59.136-1.166.255-1.734.403-.554.144-.928.524-.882 1.096.052.65.615.735 1.143.768.381.024.766-.002 1.145.038 1.35.14 2.22-.48 2.63-1.725.652-1.974 1.237-3.97 1.876-5.949.536-1.657 1.122-3.298 1.661-4.954.203-.623.537-.928 1.226-1.072 2.788-.58 5.569-.994 8.443-.877 2.941.12 5.795.566 8.615 1.385.867.252 1.292.717 1.418 1.547.35 2.316.7 4.633 1.04 6.95.129.874.235 1.751.358 2.678"/>
        <g transform="translate(0 .341)">
            <mask id="b" fill="#fff">
                <use xlink:href="#a"/>
            </mask>
            <path fill="#000" d="M49.122 5.316l-.119-.009v.591l.119-.582M12.737 1.643C11.77 3.47 11.359 5.098 10.95 6.75c-.39 1.572-.372 3.254-1.182 4.742-.41-.764-.383-1.595-.148-2.297.527-1.572.085-2.544-1.39-3.244-.912-.433-1.704-1.116-2.579-1.635-.412-.244-.896-.37-1.458-.592l2.594 7.526 1.77-.265.1.18c-.15.143-.275.34-.454.422-1.225.557-2.046 1.497-2.61 2.694-.365.772-.679 1.575-1.12 2.3-.414.68-.967 1.277-1.514 1.982.347 1.621-.131 2.283-2.053 2.563.333 1.19 1.194 1.938 2.144 2.527 2.048 1.268 4.273 1.51 6.596.886.838-.224 1.682-.426 2.64-.428-.13.175-.227.394-.395.517-.234.171-.508.33-.788.396-2.746.637-5.457.776-8.042-.648-1.148-.632-2.057-1.51-2.685-2.658-.646-1.182-.552-2.7 1.014-3.282 1.469-.546 2.276-1.664 2.873-3.06.546-1.281 1.25-2.493 1.949-3.858C5.4 9.3 4.518 6.906 3.655 4.505c-.149-.417-.45-.845.005-1.298.477-.473.951-.282 1.4-.029 1.216.686 2.418 1.395 3.614 2.116.433.26.829.582 1.306.921L11.99.302C13.283 1.116 14 2.19 14.689 3.27c1.66 2.616 2.729 5.48 3.46 8.481.07.29.166.575.22.868.174.932.77 1.401 1.666 1.502 2.495.281 4.989.567 7.487.808 4.445.428 8.883.917 13.133 2.376.988.34 1.575.11 2.205-.624 1.522-1.775 2.496-3.859 3.397-5.975.699-1.643 1.266-3.343 1.897-5.016.194-.511.335-1.071 1.041-1.258.669.332.7.981.637 1.615-.16 1.608-.324 3.218-.566 4.814-.559 3.68-1.668 7.196-3.243 10.564-.331.708-.744 1.378-1.119 2.066l-.224-.116c.779-2.348 1.609-4.68 2.32-7.046.721-2.395 1.192-4.85 1.2-7.405-.38.876-.746 1.758-1.139 2.628-.98 2.17-2.042 4.287-3.662 6.075-.837.924-1.674 1.183-2.933.722-2.916-1.067-5.96-1.645-9.054-1.962-3.93-.4-7.855-.841-11.782-1.274-1.145-.127-1.827-.814-2.166-1.887-.613-1.944-1.11-3.936-1.875-5.82-.764-1.885-1.796-3.66-2.852-5.764" mask="url(#b)"/>
        </g>
        <path fill="#000" d="M7.288 16.988c1.256.867 1.614.855 2.968-.1-.006.929-.323 1.279-1.259 1.39-1.045.123-1.444-.179-1.709-1.29"/>
    </g>
</svg>
