<?xml version="1.0" encoding="UTF-8"?>
<svg width="101px" height="88px" viewBox="0 0 101 88" version="1.1" xmlns="http://www.w3.org/2000/svg" xmlns:xlink="http://www.w3.org/1999/xlink">
    <!-- Generator: Sketch 57.1 (83088) - https://sketch.com -->
    <title>Group 26@2x</title>
    <desc>Created with Sketch.</desc>
    <defs>
        <polygon id="path-1" points="0 0.827200507 41.7455564 0.827200507 41.7455564 33.3564792 0 33.3564792"></polygon>
    </defs>
    <g id="Page-1" stroke="none" stroke-width="1" fill="none" fill-rule="evenodd">
        <g id="Group-26" transform="translate(0.000000, -1.000000)">
            <g id="Group-3" transform="translate(0.000000, 0.172800)">
                <mask id="mask-2" fill="white">
                    <use xlink:href="#path-1"></use>
                </mask>
                <g id="Clip-2"></g>
                <path d="M-0.0001,14.0799 C0.1199,13.7969 0.2469,13.5159 0.3589,13.2289 C0.9319,11.7839 1.9549,10.9589 3.5429,10.9449 C4.1019,10.9399 4.6859,10.9079 5.2139,11.0499 C8.8579,12.0269 11.7029,10.5579 14.2109,8.1249 C15.3569,7.0139 16.3869,5.7829 17.4949,4.6299 C19.0619,2.9989 20.7539,1.5519 23.0579,1.0609 C27.5549,0.1019 31.4669,2.1639 33.1669,5.9709 C34.0589,7.9669 34.4579,10.0749 34.7559,12.2099 C35.0769,14.5049 35.4169,16.7919 36.2079,18.9859 C36.7849,20.5869 37.5949,22.0259 38.8759,23.1889 C39.5539,23.8059 40.1879,24.4829 40.7649,25.1949 C42.0069,26.7239 42.0579,28.4119 40.9819,30.0719 C38.8989,33.2869 34.8219,34.2999 31.5059,32.4029 C29.2229,31.0979 27.5949,29.1349 26.1899,26.9679 C23.2589,22.4469 22.7169,17.5309 23.8149,12.3509 C23.8399,12.2369 23.8869,12.1219 23.9469,12.0209 C23.9829,11.9599 24.0629,11.9249 24.2119,11.8089 C24.2119,13.4479 24.1689,15.0209 24.2199,16.5909 C24.3829,21.6089 26.3099,25.8869 29.7679,29.4879 C30.8299,30.5939 32.0639,31.4649 33.5699,31.9019 C36.0279,32.6149 39.2829,31.2699 40.4969,29.0359 C41.1379,27.8559 40.8059,26.7839 40.1289,25.7739 C39.8199,25.3139 39.4449,24.8769 39.0279,24.5109 C36.3979,22.2029 35.1689,19.1819 34.5779,15.8369 C34.2439,13.9519 34.0539,12.0339 33.6019,10.1789 C33.2649,8.7989 32.7549,7.4169 32.0749,6.1709 C29.5829,1.6089 23.9689,0.4559 19.8669,3.6569 C18.5819,4.6589 17.4639,5.8769 16.2879,7.0169 C14.7939,8.4649 13.2449,9.8409 11.4379,10.8959 C10.0839,11.6869 8.6359,12.0069 7.0689,11.7789 C6.0819,11.6349 5.0909,11.5069 4.0979,11.4199 C1.5169,11.1959 0.1769,13.5679 0.8179,15.7479 C1.1419,16.8529 1.7819,17.7669 2.6729,18.4869 C5.6309,20.8789 8.9719,22.3989 12.7829,22.7429 C14.4799,22.8959 16.1929,22.8929 18.0009,22.9659 C17.6389,23.1109 17.3119,23.3239 16.9639,23.3699 C11.1059,24.1479 5.9479,22.6699 1.7119,18.4589 C1.0859,17.8379 0.7609,16.9129 0.3029,16.1239 C0.1899,15.9299 0.1009,15.7219 -0.0001,15.5199 L-0.0001,14.0799 Z" id="Fill-1" fill="#231F20" mask="url(#mask-2)"></path>
            </g>
            <path d="M33.12,88.1726 C32.827,88.0826 32.531,88.0016 32.243,87.8986 C31.159,87.5126 29.982,87.2776 29.016,86.6956 C26.753,85.3316 26.9,82.7296 29.216,81.4356 C29.351,81.3596 29.477,81.2666 29.689,81.1286 C28.079,79.3256 26.961,77.2726 26.019,75.1186 C25.071,72.9516 24.415,70.7236 24.642,68.0196 C24.941,68.4096 25.151,68.5756 25.214,68.7856 C25.431,69.5106 25.616,70.2476 25.779,70.9866 C26.64,74.8646 28.107,78.4496 30.805,81.4436 C30.849,81.4926 30.844,81.5836 30.884,81.7416 C30.578,81.7956 30.275,81.8396 29.977,81.9046 C28.995,82.1226 28.307,82.6916 28.083,83.6836 C27.869,84.6396 28.263,85.4106 29.031,85.9806 C30.089,86.7666 31.33,87.0516 32.605,87.2396 C35.255,87.6306 37.867,87.3836 40.434,86.6906 C41.274,86.4646 42.088,86.1046 42.875,85.7266 C43.922,85.2226 44.349,84.3826 44.232,83.1826 C43.995,80.7576 43.882,78.3196 43.649,75.8946 C43.393,73.2346 43.11,70.5746 42.737,67.9296 C42.556,66.6436 42.141,65.3916 41.801,63.9976 C43.079,64.8046 43.175,66.1556 43.686,67.3656 C44.537,66.8016 45.328,66.2896 46.107,65.7576 C49.245,63.6126 52.459,61.5926 56.027,60.2316 C58.149,59.4226 60.292,58.6366 62.481,58.0446 C63.673,57.7226 64.98,57.8276 66.235,57.7396 L66.316,58.0636 C65.977,58.1696 65.644,58.3046 65.298,58.3776 C62.404,58.9796 59.551,59.7526 56.844,60.9326 C54.584,61.9186 52.342,62.9896 50.229,64.2526 C48.044,65.5596 46.024,67.1426 43.879,68.6416 C43.985,69.8316 44.096,70.9756 44.187,72.1206 C44.411,74.9486 44.623,77.7776 44.844,80.6056 C44.897,81.2826 44.976,81.9566 45.028,82.6336 C45.196,84.8066 44.537,86.0166 42.491,86.7006 C40.873,87.2416 39.166,87.5126 37.5,87.9066 C37.159,87.9876 36.82,88.0836 36.48,88.1726 L33.12,88.1726 Z" id="Fill-4" fill="#231F20"></path>
            <path d="M89.0253,45.4699 C89.6163,45.6579 89.8203,46.1599 90.0293,46.6759 C90.7743,48.5139 90.9063,50.4699 91.1573,52.4059 C91.6613,56.2959 92.6923,59.9499 95.4023,62.9869 C96.6143,64.3449 97.5963,65.9139 98.6233,67.4279 C99.6213,68.8999 99.8633,70.5799 99.8363,72.3289 C99.8283,72.7839 99.5073,73.3879 100.1043,73.6009 C99.8963,74.2769 99.6683,74.8959 99.5133,75.5329 C98.3413,80.3689 95.7843,84.1939 91.4033,86.6929 C90.9893,86.9289 90.5553,87.1449 90.1063,87.3029 C88.3323,87.9239 86.8573,87.0029 86.6673,85.1399 C86.6023,84.5089 86.6243,83.8619 86.6823,83.2289 C86.7063,82.9719 86.9333,82.7339 87.0673,82.4869 C87.1563,82.5109 87.2463,82.5359 87.3353,82.5599 C87.3353,82.9789 87.3113,83.3989 87.3423,83.8149 C87.3743,84.2489 87.4033,84.6969 87.5303,85.1089 C87.8823,86.2459 88.7363,86.6739 89.8573,86.2829 C90.3053,86.1269 90.7513,85.9249 91.1503,85.6689 C96.0613,82.5189 98.8423,78.1149 98.9193,72.1919 C98.9563,69.3569 97.6683,66.9879 95.8013,65.0029 C92.3673,61.3489 90.5473,57.0659 90.2623,52.0899 C90.1963,50.9369 90.2013,49.7669 89.9963,48.6369 C89.8003,47.5519 89.3743,46.5089 89.0493,45.4479 L89.0253,45.4699 Z" id="Fill-6" fill="#231F20"></path>
            <path d="M18.7797,24.2639 C19.5187,24.3319 19.8637,24.8669 20.1557,25.4469 C21.0387,27.2009 21.4327,29.0839 21.2357,31.0149 C21.0137,33.1929 20.5997,35.3509 20.2477,37.5149 C19.7727,40.4309 19.3137,43.3579 19.4157,46.3169 C19.5237,49.4309 20.0107,52.5059 20.6917,55.5509 C21.5147,59.2329 22.9727,62.6789 24.5187,66.0959 C24.7067,66.5129 24.8357,66.9549 25.0577,67.5649 C24.1887,67.2269 23.8887,66.6459 23.5837,66.1119 C21.9527,63.2549 20.7847,60.2069 19.9527,57.0299 C18.8337,52.7589 18.2677,48.4119 18.5497,43.9999 C18.6657,42.1819 19.0527,40.3759 19.3987,38.5799 C19.8727,36.1179 20.4937,33.6939 20.5007,31.1509 C20.5067,29.0479 19.8367,27.1649 19.0667,25.2779 C18.9397,24.9649 18.8927,24.6189 18.8087,24.2879 L18.7797,24.2639 Z" id="Fill-8" fill="#231F20"></path>
            <path d="M40.3085,22.678 C40.5835,22.848 40.8815,22.99 41.1295,23.193 C42.4555,24.283 43.7135,25.467 45.1005,26.473 C48.7095,29.092 52.8225,30.308 57.2425,30.275 C60.3105,30.252 63.3785,29.941 66.4435,29.714 C70.2755,29.431 74.0985,29.297 77.9325,29.731 C79.8535,29.948 81.6995,30.393 83.5025,31.06 C85.5015,31.799 87.1695,32.959 88.0755,34.454 C87.6685,34.27 87.2165,34.148 86.8605,33.893 C83.3065,31.356 79.2525,30.534 74.9955,30.293 C71.0335,30.068 67.1005,30.438 63.1575,30.679 C59.7685,30.886 56.3505,31.144 52.9955,30.507 C49.1665,29.779 45.4955,28.556 42.4795,25.916 C41.5135,25.071 40.6845,24.102 40.3085,22.678" id="Fill-10" fill="#231F20"></path>
            <path d="M88.5531,80.925 C87.5251,81.304 86.6501,81.202 85.7631,80.734 C82.2581,78.88 79.2521,76.405 76.6001,73.484 C75.2051,71.945 73.7131,70.473 72.4841,68.809 C69.6031,64.91 66.9901,60.851 66.3751,55.867 C66.1511,54.048 66.2951,52.264 67.0101,50.509 C67.0561,51.372 67.1401,52.234 67.1421,53.096 C67.1481,56.487 68.1031,59.615 69.7101,62.569 C70.3381,63.723 70.9061,64.918 71.6271,66.011 C72.2821,67.005 73.0891,67.901 73.8601,68.814 C75.2461,70.455 76.5411,72.197 78.0811,73.68 C80.9611,76.452 84.0111,79.036 87.8351,80.483 C88.0931,80.58 88.3151,80.776 88.5531,80.925" id="Fill-12" fill="#231F20"></path>
            <path d="M22.1572,67.886 C20.9652,70.598 19.1422,72.808 16.6152,74.381 C16.0142,74.756 15.1842,74.877 14.4522,74.901 C13.4512,74.932 12.6982,74.362 12.3402,73.416 C11.9742,72.446 12.0552,71.524 12.9282,70.815 C13.1452,70.639 13.3932,70.501 13.6632,70.322 C13.4322,69.75 13.2872,69.356 13.1152,68.973 C12.2382,67.012 11.2072,65.106 10.5072,63.084 C9.6442,60.594 9.5342,57.998 10.3522,55.436 C10.9092,53.695 11.9932,52.347 13.5412,51.383 C14.9872,50.481 16.5892,50.813 18.1382,50.801 C17.2212,51.025 16.2822,51.182 15.3932,51.488 C13.2272,52.233 12.0242,53.889 11.2412,55.964 C10.4522,58.053 10.7122,60.078 11.2472,62.172 C11.8772,64.639 13.1732,66.784 14.2472,69.041 C14.4752,69.521 14.5772,70.061 14.7422,70.587 C14.2372,70.971 13.8602,71.257 13.3562,71.64 C13.2692,71.863 13.1252,72.227 12.9972,72.554 C13.7702,74.029 14.4632,74.265 15.9212,73.66 C16.9992,73.214 17.7292,72.385 18.4512,71.523 C19.4752,70.302 20.5232,69.1 21.5722,67.899 C21.6622,67.796 21.8342,67.764 21.9672,67.699 C22.0312,67.762 22.0942,67.824 22.1572,67.886" id="Fill-14" fill="#231F20"></path>
            <path d="M89.7299,34.5442 C89.3239,33.8572 89.8559,33.5712 90.1219,33.2252 C90.7289,32.4352 91.4009,31.6962 92.0009,30.9022 C93.9529,28.3212 94.6739,25.3322 94.8549,22.1672 C94.8799,21.7192 94.6779,21.1812 95.4279,20.8192 C95.6729,21.1502 95.9979,21.4802 96.1839,21.8742 C96.3489,22.2242 96.4069,22.6432 96.4319,23.0362 C96.7629,28.4162 95.6929,33.5142 93.2489,38.3092 C92.4879,39.8012 91.4719,41.1332 90.0799,42.2732 C89.9339,41.4872 90.3289,41.0102 90.6819,40.5472 C93.1519,37.3092 94.6409,33.6382 95.3979,29.6692 C95.8389,27.3572 96.0499,25.0132 95.6079,22.6162 C95.5329,22.8392 95.4409,23.0592 95.3869,23.2872 C95.0079,24.8692 94.6869,26.4672 94.2519,28.0342 C93.6899,30.0592 92.6839,31.8722 91.2689,33.4262 C90.8529,33.8822 90.2549,34.1712 89.7299,34.5442" id="Fill-16" fill="#231F20"></path>
            <path d="M71.1703,79.0232 C72.1193,79.2732 72.3193,79.1922 74.2843,77.9802 C75.2273,77.3982 76.1873,76.8432 77.1983,76.2412 C77.2283,76.8062 76.8923,77.1392 76.5183,77.4162 C75.3963,78.2472 74.2673,79.0702 73.1173,79.8612 C72.8313,80.0582 72.4593,80.1452 72.1153,80.2392 C70.8383,80.5892 70.0653,79.8492 70.3783,78.5652 C70.4713,78.1862 70.6573,77.8292 70.8563,77.3192 C65.3793,74.3142 62.7523,69.2532 61.1473,63.4922 C61.0953,63.3052 61.1843,63.0802 61.4453,62.7902 C61.7333,63.2372 62.0843,63.6562 62.2983,64.1362 C62.9173,65.5192 63.4883,66.9242 64.0653,68.3262 C65.3463,71.4442 67.3323,73.9812 70.2183,75.7662 C70.9623,76.2252 71.7423,76.6252 72.6223,77.1172 C72.1573,77.7262 71.6813,78.3522 71.1703,79.0232" id="Fill-18" fill="#231F20"></path>
            <path d="M19.5932,12.4592 C18.7092,12.0332 17.9612,11.5332 17.1382,11.3132 C16.2182,11.0682 15.5612,11.8262 14.8602,12.4132 C14.4802,11.8302 14.7752,11.4662 15.1122,11.2452 C16.0722,10.6162 17.1232,10.2152 18.2372,10.8042 C18.8362,11.1212 19.6542,11.3492 19.5932,12.4592" id="Fill-20" fill="#231F20"></path>
            <path d="M89.0492,45.4475 C88.9422,45.3665 88.8342,45.2855 88.7272,45.2045 C88.7672,45.1715 88.8082,45.1375 88.8482,45.1045 C88.9072,45.2265 88.9662,45.3485 89.0252,45.4695 L89.0492,45.4475 Z" id="Fill-22" fill="#231F20"></path>
            <path d="M18.8085,24.2883 C18.7845,24.2763 18.7595,24.2643 18.7345,24.2513 C18.7495,24.2553 18.7645,24.2603 18.7795,24.2643 L18.8085,24.2883 Z" id="Fill-24" fill="#231F20"></path>
        </g>
    </g>
</svg>