<svg xmlns="http://www.w3.org/2000/svg" xmlns:xlink="http://www.w3.org/1999/xlink" width="73" height="111" viewBox="0 0 73 111">
    <defs>
        <path id="a" d="M.117.338h23.488V35.28H.117z"/>
    </defs>
    <g fill="none" fill-rule="evenodd">
        <path fill="#000" d="M63.413 22.387l.138-.337c.386.033.785.018 1.157.108 2.607.629 3.808 2.61 4.703 4.855.075.186-.02.5-.14.689-.49.76-2.195 1.317-3.218 1.056.757-2.744-.227-4.839-2.64-6.371m-3.244 17.135c1.453.611 2.744 1.222 4.083 1.695 1.355.478 2.772.79 4.23.61.55-.068 1.124-.192 1.612-.435 1.981-.987 3.36-4.08 2.767-6.185-.349-1.243-1.42-1.795-2.487-2.304-.854-.407-1.749-.732-2.596-1.153-.797-.395-1.453-.948-1.542-1.814 1.014-.378 2.028-.65 2.935-1.12 1.156-.598 1.361-1.369.912-2.6-.768-2.11-2.085-3.77-4.18-4.71-1.162-.519-2.372-.775-3.614-.091-.286.158-.717.114-1.076.088-1.412-.106-2.821-.242-4.324-.375.179 1.02.901.83 1.38.939.928.21 1.898.252 2.822.476 1.242.3 2.381.838 3.196 1.876.746.95 1.22 1.98.954 3.225-.045.21-.047.427-.08.64-.4 2.459.71 3.58 2.583 4.516.964.482 1.98.864 3.086 1.341-.832 1.424-.108 2.358 1.073 3.172-.138.416-.242.823-.405 1.206-.823 1.924-2.246 2.754-4.358 2.506-2.553-.3-4.876-1.226-7.028-2.596-.64-.408-1.295-.794-2.187-1.34.38 1.22 1.42 1.443 1.977 2.218-1.548 1.833-1.441 4.042-1.472 6.242-.048 3.526-.015 7.064-.282 10.577-.297 3.901-1.257 7.707-2.423 11.446-1.454 4.667-1.774 9.449-1.63 14.286.065 2.23.11 4.462.256 6.688.328 4.97.695 9.937 1.088 14.902.124 1.576.715 2.927 2.339 3.592.157.064.303.174.43.288.502.452.436 1.061-.194 1.17-1.554.274-3.124.313-4.57-.458-.249-.133-.451-.52-.5-.817-.135-.845-.18-1.704-.26-2.557-.146-1.537-.288-3.074-.44-4.61-.19-1.919-.386-3.838-.588-5.756-.283-2.686-.518-5.38-.878-8.056-.343-2.55-.818-5.085-1.24-7.624-.017-.107-.08-.206-.206-.512-.124.408-.256.631-.247.848.05 1.114.1 2.23.219 3.337.26 2.456.57 4.907.842 7.362.436 3.925.875 7.851 1.277 11.78.174 1.709.275 3.425.377 5.14.116 1.934.606 2.504 2.547 2.751.982.124 1.974.206 2.964.234.42.01.872-.109 1.264-.274 1.061-.448 1.291-1.603.505-2.421-.208-.217-.445-.444-.716-.556-1.456-.604-1.865-1.822-2.001-3.212-.597-6.076-1.054-12.16-1.13-18.268-.028-2.28-.145-4.558-.153-6.837-.011-2.89.51-5.71 1.225-8.507.797-3.118 1.61-6.24 2.19-9.401.432-2.354.627-4.768.707-7.162.09-2.664-.128-5.336-.1-8.003.014-1.363.23-2.73.443-4.083.074-.468.417-.896.624-1.314"/>
        <path fill="#000" d="M45.1 106.131l4.209-11.008-.283-.157c-.283.396-.65.756-.834 1.194-1.304 3.105-2.558 6.23-3.856 9.337-.333.798-.03 1.332.558 1.805.369.297.778.55 1.115.88.354.346.552.786.292 1.29-.245.474-.665.494-1.115.388-.792-.186-1.614-.298-2.368-.587-1.364-.522-1.738-1.136-1.564-2.603.13-1.11.438-2.2.633-3.303.732-4.157 1.475-8.312 2.168-12.476a490.026 490.026 0 0 0 1.515-9.823c.179-1.228.249-2.472.359-3.604l3.88-1.58c-.04-.135-.079-.269-.12-.402-.798.18-1.61.318-2.393.551-4.347 1.297-8.773 1.692-13.293 1.377-4.605-.321-8.943-1.636-13.191-3.339-2.424-.972-4.838-1.968-7.274-2.907-.627-.24-1.322-.305-2.138-.484.22.794.671 1.091 1.225 1.311 2.759 1.098 5.509 2.217 8.27 3.305 1.153.454 2.327.853 3.499 1.28.557 5.968-.965 11.331-4.773 16.02-.464.572-1.126 1.058-1.198 1.949 2.962-1.217 8.106-9.051 7.168-17.487 3.187.802 6.372 1.418 9.652 1.489 3.227.07 6.41-.286 9.716-.876-.144.992-.255 1.789-.377 2.585-.493 3.197-.963 6.399-1.49 9.59-.597 3.62-1.239 7.233-1.876 10.846-.3 1.7-.573 3.407-.968 5.085-.661 2.817.694 4.186 3.088 4.895.533.158 1.1.214 1.654.292 1.06.15 1.829-.176 2.218-.92.425-.806.304-1.765-.416-2.505-.476-.489-1.05-.881-1.692-1.408"/>
        <g transform="matrix(-1 0 0 1 23.72 75)">
            <mask id="b" fill="#fff">
                <use xlink:href="#a"/>
            </mask>
            <path fill="#000" d="M17.633 5.926c1.458 2.031 2.908 4.068 4.374 6.094 1.618 2.235 2.007 4.716 1.17 7.277-1.398 4.282-2.752 8.597-5.048 12.525-.928 1.588-2.197 2.852-4.062 3.301-1.48.355-2.889.144-3.983-1.014-1.104-1.17-.864-2.76.528-3.572.432-.252.944-.452 1.436-.5.555-.054.82-.254 1.014-.769a51.3 51.3 0 0 0 2.495-9.215c.407-2.356-.654-4.253-3.004-5.534-.109 1.187-.186 2.36-.33 3.525-.434 3.537-1.598 6.855-3.18 10.035a84.101 84.101 0 0 1-2.037 3.797c-1.23 2.187-3.811 2.33-5.523 2.093-.667-.092-1.2-.497-1.327-1.22-.135-.773.071-1.503.762-1.895.575-.326 1.26-.499 1.917-.638 1.239-.263 1.315-.312 1.43-1.542.248-2.624.497-5.248.758-7.87.032-.317.146-.626.221-.938l.305.013c.055.78.191 1.564.15 2.34-.116 2.169-.321 4.333-.46 6.5-.118 1.83-.414 2.18-2.247 2.479-.211.035-.435.017-.639.075-.605.172-1.09.482-1.24 1.332.411.148.831.436 1.238.42 1.543-.06 2.954-.435 3.836-1.89a37.568 37.568 0 0 0 3.614-7.867c.967-2.963 1.437-6.008 1.718-9.097.056-.62-.121-1.039-.508-1.488-2.24-2.604-3.747-5.574-4.31-8.966-.182-1.102-.179-2.234-.26-3.353l.275-.026c.28 1.406.508 2.823.85 4.214.857 3.48 2.781 6.374 5.215 8.95.727.77 1.646 1.357 2.388 2.114 1.112 1.135 1.499 2.527 1.274 4.11a47.2 47.2 0 0 1-3.026 11.145c-.634.077-1.242.083-1.807.236-.857.235-1.267.76-1.255 1.415.011.627.58 1.36 1.268 1.593 1.885.638 3.389-.124 4.627-1.423.694-.728 1.308-1.607 1.697-2.527 1.188-2.806 2.263-5.658 3.35-8.505.377-.988.674-2.008.988-3.018.622-1.997.265-3.866-.836-5.604-.842-1.33-1.82-2.584-2.577-3.96-.543-.985-.819-2.116-1.214-3.182l-.025.03z" mask="url(#b)"/>
        </g>
        <path fill="#000" d="M5.696 54.184l.366-.126 3.679 5.198-2.461 2.468c-1.549-2.304-2.161-4.804-1.584-7.54zM6.11 81.37c.222.23.446.458.808.831-.085-.56-.126-.993-.22-1.413-.5-2.263-1.152-4.504-1.499-6.79-.858-5.68.805-10.486 5.445-14.04.997-.762 2.256-1.234 3.455-1.677 3.585-1.325 7.221-2.514 10.798-3.863 2.888-1.09 5.71-2.355 8.576-3.506 4.355-1.752 8.45-3.985 12.331-6.61a7.873 7.873 0 0 0 1.831-1.701c-.358.086-.75.108-1.068.272-1.487.772-2.93 1.631-4.433 2.37-3.818 1.878-7.589 3.877-11.512 5.511-4.435 1.849-9.002 3.39-13.538 4.988-1.998.704-3.948 1.473-5.742 2.606-.21.133-.45.22-.635.308a6216.68 6216.68 0 0 0-3.372-4.759c-.124-.176-.22-.408-.39-.508-.419-.243-.926-.651-1.3-.565-.398.091-.82.62-.99 1.053-.577 1.468-.273 2.97.07 4.436.359 1.528.953 2.945 2.271 3.931-.58 1.11-1.186 2.144-1.676 3.231-1.512 3.358-1.373 6.839-.61 10.33.32 1.467.8 2.899 1.191 4.35.11.407.158.83.234 1.245l-.025-.03zM54.493 21.888c.945.948.927 1.91.91 2.885-.04 2.457-.055 4.914-.084 7.371-.005.338-.006.68-.055 1.014-.122.835-.34 1.005-1.18.96-1.148-.064-2.16-.56-3.017-1.237-2.167-1.715-3.634-3.968-4.73-6.48-.512-1.173-.214-1.664.7-2.266 1.005-.66 2.174-1.111 3.32-1.516 1.07-.378 2.206-.577 3.314-.854-.04-.863-.815-.774-1.223-.751-2.23.126-4.339.707-6.231 1.965-1.192.792-1.945 2.393-1.157 3.978 1.192 2.402 2.605 4.633 4.726 6.478-.476 2.406-.966 4.835-1.429 7.268-.07.369-.01.761.173 1.177.942-1.066 1.076-2.414 1.417-3.666.352-1.293.58-2.62.884-4.035.467.192.909.404 1.37.558.52.173 1.05.368 1.59.422 1.705.171 2.509-.637 2.505-2.355-.006-2.667.04-5.335.035-8.002 0-.542-.09-1.094-.208-1.625-.148-.669-.555-1.125-1.63-1.29M62.854 30.36c-.093-.964-.841-1.197-1.492-1.379-.885-.246-1.53.27-2.131 1.199l3.623.18"/>
        <path fill="#1A1919" d="M22.813 3.785c-.468-.26-.688-.928-1.191-1.185-.054-.035.1-.091-.027-.164-.504-.209-1.076-.753-1.684-1.053l.048-.027c-.118-.061-.288.022-.413.003 0-.024.046-.032.02-.07-.043.073-.243.016-.298.07-.053-.037-.046-.091-.116-.121l-.072.093c-.186.21-.5.056-.742.258.006-.025.029-.048 0-.059-.388.256-.812.623-1.031 1.075-.014-.033-.05-.082-.096-.075.058.072.006.216-.031.342-.118.014-.003.242-.102.367l-.017-.02c.065.135-.09.153.001.265l-.085.06c.12.065-.083.155-.028.258h.028c.02.088-.042.133-.016.213l-.016.01c.037.193-.023.311.08.295-.076.077-.056-.183-.164-.065.162.642.393 1.257.718 1.818.007.084.019.134-.004.169.053.042.147.196.219.216-.012-.018-.018.067-.003.097.037.122.166.038.203.173-.051-.025-.087-.02-.108.017.127.043.203.17.298.26-.024-.005-.05-.026-.073-.001.155.06.14.224.263.287l-.078.001c.066.207.135-.03.208.137-.042-.023-.052.003-.073.013.18.061.314.293.442.396l-.02.01c.117.13.203.302.363.42.026.07-.124.077.012.207.085-.081.237.216.268.04.084.138.214.362.314.416-.08-.026-.06.16-.153.061l.011.128c-.044.02-.054-.092-.078-.026.046.05.206.167.229.226.136.046.308.038.451.179-.095-.039-.063.132-.12.097l.35.055c.045.046-.06.078.025.126.019-.024.061-.006.099-.002.006.03.203.19.136.292-.016.054-.087-.066-.07.02.08.09.112.067.196.16l-.01.01c.04.074.193.144.181.034-.034-.046-.036.064-.067-.02.087-.004.195.088.28.18-.043-.02-.062.008-.1.019.179.057.317.165.465.276.043-.034-.12.023-.117-.021.102.232.406.286.455.513-.029-.02.044-.07.036-.059.07.092.012.144.08.177-.028.04.074.06.137.104.05.004-.002.031-.053-.013.1.048.437.31.557.54.018-.028.182.028.22.07l-.07.037c.004.069.134.132.095.186.146.024-.367-.287-.21-.216-.013.073.237.084.145.128.078.081.212.102.236.231-.013-.033-.135.004-.067.067.117.108.054.008.16.085l.077.04c.069-.033.05.068.085-.014-.028.057.092.046.032.156l-.05.083c.037.028.093-.05.123-.077-.001.013.002.042-.006.06.038-.17.065.083.101-.04.046.19.112-.076.164.028.029-.12.036-.223.094-.253-.003.027-.012.048 0 .086.052-.002.04-.052.054-.111.005.029.106-.016.185-.042.017-.1-.063-.117-.095-.151.164.002.1-.317.274-.35-.007.044-.037.176.044.12.171-.007.031-.235.177-.336l-.116-.03c.101-.02.08-.244.168-.163-.004-.069.137-.14.035-.192.229-.172.318-.586.573-.615.007-.04.076-.11.016-.13-.084.02-.01.104-.06.1.016-.032-.003-.056-.015-.068.068-.054.11-.108.143.012.16-.117-.052-.27.112-.449.036.035.059.03.093-.034l.003-.157c.099-.118.136-.013.203.03.035-.077.092-.162.063-.228l.137-.03c-.098.022-.004-.085 0-.127l-.004.042c.037.005.069-.087.09-.133-.048-.017-.118.053-.16.092-.003-.056.04-.107.035-.179.052.06.115-.082.16-.135.054-.055-.015-.11 0-.128.036.022.072-.098.088-.017-.002.028-.063.027-.059.083.054-.027.108.017.121-.097.008-.09-.138-.07-.022-.168-.003.044.017.068.028.108l.104-.093-.056-.045c.025-.009.036.005.036.005-.042-.077.092-.192.039-.266.031-.062.118-.097.158-.15l-.002.014c.08-.046.111-.155.105-.238l.013.012a.37.37 0 0 0 .065-.203c.101-.067.243.111.23-.043.058-.1-.017-.222-.08-.207.146-.15.16-.413.348-.52-.01-.04-.035-.033-.02-.095.166-.248.232-.59.455-.737-.014.09.06.04.097.059-.024-.096.097-.047.014-.121-.06-.023-.083-.047-.145.016.053-.171.169-.411.26-.474-.046.029-.048-.013-.05-.055.087.058.156-.055.166-.16l-.05-.038.082-.032c-.003-.043-.104-.091-.011-.158.024.009.05.014.071.002-.005-.113-.026-.273.056-.356l.114-.049c.007-.045-.019-.137-.07-.074.117-.15.156-.26.247-.292-.078-.367 0-.764.033-1.114l.048.012c.05-.09-.08-.051-.045-.115.044.033.1-.07.15.009.052-.138-.071-.18-.096-.265-.06-.013.042.07-.036.052-.023-.013.044-.186-.05-.202.037-.033.104-.011.142.005l-.05-.08c.106-.113.203.223.329.11l-.016-.082c.094-.085.114.214.142.003-.05-.088-.193-.151-.224-.07-.043-.175-.223-.062-.238-.243.048-.057.033.144.101.1.068-.1-.068-.168-.05-.247-.022.09-.125.037-.15-.012.027-.097.099.04.083-.089-.059-.008-.127-.106-.137-.004-.129-.008.004-.13-.106-.167.07-.066.225.062.224-.084-.07.045-.159-.12-.25-.007.006-.057.063-.088.123-.07.023-.098-.203-.102-.067-.194l-.085.014.044-.127c-.035-.059-.202-.105-.095-.176-.017-.014-.107-.12-.138-.023.011.092.107.039.037.148.05-.11-.077-.093-.13-.104l.031-.039c-.03-.009-.063-.064-.11-.04.03-.002.051-.036.043-.06l-.075.037c-.104-.042.068-.117-.027-.176l.099.015c-.018-.005-.003-.086-.06-.107l-.184.125c-.066-.006.02-.08-.067-.052l.11-.027c.023-.013.017-.128-.061-.18-.062-.005-.181.053-.122.122-.037-.013-.074-.08-.024-.11-.096-.021-.017.071-.107.078-.01-.065-.093-.154-.142-.242l.126-.081-.062-.021c.11-.065-.022-.081.054-.162-.044-.03-.107-.014-.158-.004.093.188-.196.176-.183.332-.174.018-.059-.375-.275-.163.026.04-.07.144.045.107-.11-.021-.084.143-.21.076.1-.054-.102-.151.047-.23-.012.046.079.039.103.026-.044-.059.021-.145-.103-.15-.074.011-.177.009-.161.083 0 .084.11-.003.061.08-.138.02-.163-.086-.207.06.079-.02.1.063.1.12l-.084.045.012-.057c-.145-.026-.032.106-.167.1l-.08-.095c.016-.106.208.021.167-.131-.098.007-.12.069-.211.064l.06-.05c-.033.001-.112-.181-.224-.025-.06.063-.002.057.01.11-.143.051-.156.151-.242.194-.028-.108-.163.067-.112-.082.079.042.266-.081.293-.182-.095-.11.125-.017.128-.156-.131.034-.163-.092-.21-.167-.041.007-.07.052-.086.071.01.08.06.064.088.142a.45.45 0 0 0-.304.254c-.06-.005-.088-.089-.037-.122-.187.135-.281.205-.468.336.168.019-.128.16 0 .183.091-.04.207-.023.205.056-.045.03-.034-.046-.069-.052-.006.103-.16-.006-.137.126.093-.142-.083-.137-.127-.233-.058.131-.049-.06-.138.039-.046.143-.13.28-.193.418-.189.083-.27.378-.352.522-.086.047-.151-.064-.216.012-.051.102.143-.01.021.11l-.013-.028c-.003.058-.212.236-.089.356l-.085-.102c-.022.025-.01.062-.011.092-.036-.016-.084 0-.087-.058-.117.058-.083.206-.123.313l.095-.039c-.027.204-.142.293-.184.48l-.063-.033-.001.122c-.055-.05-.13.033-.096.107l-.06-.34c.067-.06.047.117.13.093.07-.016.115-.186.064-.241-.033.06-.018.07-.013.128-.097-.016-.059-.11-.098-.186-.01.036-.056.071-.03.09-.02-.083.002-.152.048-.262.002.089.072-.014.083.026-.073-.046-.054-.163.033-.282.13-.049.06-.28.172-.417a.66.66 0 0 1 .045.322c.083-.072.051-.103.14-.174-.032-.074-.102-.16-.068-.302l.058.03c.038-.126-.04-.177.06-.306.179-.214.348-.445.5-.594l.053.04c-.03-.192.235-.317.315-.475.244-.121.46-.408.643-.36.404-.265.869-.399 1.357-.337l-.086.092c.09-.065.053.06.138.05-.092-.08.123-.1.195-.141.21.1.496.09.72.1l-.015.066c.243-.034.432.187.622.366.007.044.003.124.064.169.177.012.219.08.406.205.096.129.208.365.23.528.387.477.374 1.109.464 1.685l-.079.044c.162.574-.13 1.276-.21 1.733l-.107-.085c-.079.127-.082.325.019.323-.086.124-.072.37-.208.41-.08.128-.018.195-.048.316-.17.25-.204.354-.308.612l.039-.056c-.012-.041-.06-.069-.097-.012-.016.111-.201.32-.02.305-.21.22-.26.644-.504.83.047.002.02.068.029.108-.125.224-.33.415-.374.628-.041.021-.028-.096-.086-.008-.019.06.045.03.028.107-.144.4-.502.673-.68 1.002-.288.608-.694 1.168-1.03 1.708l-.02-.024c-.02.247-.374.347-.32.593-.052.023-.116.15-.144.083-.027.19-.326.352-.373.617.015-.018.016-.034.019-.062-.158.116-.32.526-.572.79.016-.047.051-.115.04-.154-.107.05-.138.439-.246.33-.044.07-.005.145.023.093-.13.123-.235.415-.378.43l-.499-.49c-.267-.25-.574-.535-.828-.774-.223-.373.162-.2-.143-.364 0-.038-.056.028-.035.003-.116-.065-.015-.267-.134-.277-.04.094-.074-.007-.119.03-.129-.23-.104-.327-.293-.427l.046-.023c-.26-.081-.389-.336-.64-.374-.897-.963-1.787-1.856-2.61-2.859-.73-1.029-1.69-1.953-2.06-3.475.024-.375.03-.391-.08-.776.024.015.031.037.049.009-.108-.01-.022-.279-.122-.313.019-.58.112-1.147.407-1.696-.034.095.02.176.064.072l.003-.137.035-.002c.028-.075.034-.177-.04-.125.342-.684 1.156-1.23 1.872-1.305.743-.123 1.483.058 2.1.345l.956.582c.693.77 1.13 1.48 1.734 2.293 0 0-.296.02-.563-.264"/>
    </g>
</svg>
