<?xml version="1.0" encoding="utf-8"?>
<!-- Generator: Adobe Illustrator 23.0.4, SVG Export Plug-In . SVG Version: 6.00 Build 0)  -->
<svg version="1.1" id="Layer_1" xmlns="http://www.w3.org/2000/svg" xmlns:xlink="http://www.w3.org/1999/xlink" x="0px" y="0px"
	 viewBox="0 0 63 40" style="enable-background:new 0 0 63 40;" xml:space="preserve">
<style type="text/css">
	.st0{fill:none;}
	.st1{fill-rule:evenodd;clip-rule:evenodd;fill:#3B3C3B;stroke:#1A1919;stroke-width:0.25;}
	.st2{fill-rule:evenodd;clip-rule:evenodd;fill:#3B3C3B;}
	.st3{fill-rule:evenodd;clip-rule:evenodd;fill:#1A1919;}
</style>
<g>
	<path class="st0" d="M1,13.184c-0.002-0.118,0.01-0.227,0.04-0.325c0.093-0.314,0.294-0.581,0.426-0.881
		c0.288-0.647,0.23-1.388,0.32-2.092c0.162-1.232,0.78-2.347,1.286-3.483c0.36-0.816,0.68-1.697,0.697-2.598
		C3.787,2.992,3.497,2.18,3.714,1.372C4.118,1.481,5.59,1.153,6.022,1.034c0.672-0.188,2.207,0.46,2.886,0.594
		c4.27,0.849,8.535,1.645,12.885,1.94c3.256,0.223,6.521,0.315,9.78,0.17c0.859-0.036,1.469,0.142,2.277,0.323
		c0.773,0.172,1.687-0.024,2.351,0.51c0.057,0.049,0.113,0.101,0.182,0.13c0.164,0.063,0.343-0.036,0.51-0.088
		c0.351-0.109,0.704-0.006,1.056,0.017c0.117,0.007,0.464-0.013,0.51,0.131c0.087,0.27-1.088,0.695-1.236,0.823
		c-0.102,0.088-1.037,1.117-0.93,1.232c0.184,0.197,0.714-0.377,0.943-0.352c0.494,0.056,1.76-0.146,1.99-0.365
		c0.256-0.246,0.31-0.551,0.677-0.696c0.073-0.03,0.41-0.196,0.462-0.067c0.035,0.09-0.176,0.289-0.223,0.345
		c-0.087,0.105-0.286,0.257-0.323,0.392c-0.06,0.234,0.547,0.085,0.708,0.169c0.114,0.06,0.186,0.176,0.264,0.276
		c0.456,0.59,1.395-0.26,1.895-0.413c0.183-0.053,0.388-0.154,0.585-0.099c0.259,0.073-0.106,0.315,0.324,0.355
		c0.403,0.035,0.404-0.233,0.692,0.018c-0.001-0.003,0.055,0.185,0.07,0.215c0.078,0.183,0.332,0.445,0.007,0.483
		c-0.422,0.05-0.88-0.007-1.294,0.089c-0.392,0.089-0.681,0.57-1.06,0.705c-0.478,0.173-0.924,1.285-0.856,2.362
		c0.031,0.552,0.1,2.384,0.91,1.824c0.847-0.587,0.492-1.164,0.207-1.882c-0.29-0.725-0.008-0.858,0.823-1.264
		c0.061,0.213,0.04-0.592,0.621-0.84c0.296-0.128,1.157,0.164,1.4,0.348c0.305,0.231,0.193,0.724,0.41,0.878
		c0.034,0.347,0.044,0.59-0.07,0.92c-0.125,0.368,0.184-0.005,0.498-0.048c0.466-0.067,0.88,0.966,0.812,1.297
		c-0.11,0.206-0.158,0.416-0.333,0.793c-0.075,0.16-0.354,0.651-0.246,0.81c0.08,0.119,0.927,0.289,1.02,0.277
		c0.63-0.094,1.518-0.872,1.99-1.279c0.54-0.463,0.965-0.936,1.424-1.48c-0.35-0.582-0.503-0.747,0.23-0.917
		c0.582-0.133,1.312-0.084,1.837-0.42c0.223-0.143,0.427-0.34,0.43-0.623c0.006-0.23-0.285-0.428-0.278-0.595
		c0.01-0.26,0.288-0.422,0.433-0.64c0.204-0.303,0.273-0.678,0.559-0.92c0.438-0.37,1.236-0.334,1.765-0.508
		c0.528-0.177,1.362-0.309,1.76-0.669c0.065-0.059,0.083-0.264,0.153-0.34c0.089-0.098,0.293-0.092,0.4-0.246
		c0.29-0.43,0.21-1.105,0.213-1.586c0.003-0.36,0.13-1.826,0.533-1.919c0.163-0.04,0.206,0.28,0.315,0.266
		c0.229-0.025,0.296-0.33,0.509-0.382c1.064-0.273,0.873,1.637,1.27,2.086c0.13,0.148,0.414,0.066,0.502,0.165
		c0.1,0.11,0.002,0.373,0.096,0.443c0.246,0.186,0.706-0.097,0.648,0.554c-0.05,0.536-0.539,0.615-0.86,0.9
		c-0.068,0.062-0.043,0.262-0.13,0.354c-0.037,0.036-0.224-0.075-0.266-0.04c-0.055,0.046-0.037,0.17-0.076,0.2
		c-0.343,0.27-0.587,0.642-0.94,0.921c-0.265,0.21-0.265,0.017-0.422,0.315c-0.145,0.28-0.119,0.794-0.119,1.099
		c0,0.537,0.067,1.175,0.623,1.458c0.821,0.419-0.526,0.97-0.962,1.19c-0.494,0.249-1.023,0.408-1.478,0.734
		c-0.471,0.34-0.664,1.063-0.495,1.618c0.072,0.232,0.046,0.511-0.014,0.837c-0.023,0.116-0.695,1.419-0.579,1.694
		c0.377,0.894-0.28,1.779-0.24,2.68c0.02,0.46,0.78,2.103,0.342,2.441c-0.395,0.308-0.718,0.783-1.041,1.161
		c-0.54,0.642-0.645,1.256-1.38,1.765c-0.605,0.413-0.639,0.908-0.973,1.49c-0.36,0.628-0.998,1.045-1.34,1.695
		c-0.78,1.479-0.087,3.19,0.935,4.359c1.06,1.197,1.643,2.943,1.802,4.498c0.035,0.334,0.126,0.367-0.01,0.747
		c-0.133,0.387-0.47,0.799-0.86,0.946c0.003-0.191-0.292-0.757-0.444-0.993c-0.263-0.412-1.091-1.061-1.492-1.344
		c-1.338-0.947-0.814-2.087-1.388-3.31c-0.16-0.341-0.396-0.294-0.692-0.464c-0.331-0.189-0.504-0.532-0.83-0.73
		c-0.745-0.455-0.84,0.226-1.498,0.46c-0.693,0.246-0.972-0.514-1.739-0.584c-0.553-0.052-0.957,0.159-1.457,0.241
		c-0.718,0.118-1.464-0.059-2.163,0.174c-0.111,0.037-1.129,0.51-0.848,0.642c0.275,0.127,0.643-0.659,0.508,0.153
		c-0.059,0.359-0.35,0.228-0.062,0.555c0.114,0.128,0.482-0.033,0.59,0.174c0.287,0.554-0.707,0.18-0.862,0.13
		c-0.308-0.101-0.134-0.225-0.386-0.102c-0.185,0.089,0.015,0.577-0.404,0.54c-0.107-0.012,0.255-0.258-0.222-0.203
		c-0.347,0.04-0.334,0.4-0.805,0.105c-0.315-0.199-0.141-0.272-0.339-0.463c-0.222-0.214-0.597,0.039-0.828,0.045
		c-0.637,0.016-1.25-0.104-1.886-0.127c-0.977-0.04-1.45,0.467-2.13,1.057c-0.74,0.64-1.748,0.924-2.44,1.577
		c-0.636,0.6-0.425,1.278-0.371,2.045c0.036,0.553,0.35,0.964-0.228,1.02c-0.501,0.046-1.318-0.3-1.745-0.575
		c-0.683-0.437-0.864-1.386-1.292-2.049c-0.272-0.425-0.58-0.827-0.828-1.264c-0.204-0.37-0.366-0.769-0.614-1.109
		c-0.337-0.474-1.04-0.886-1.644-0.838c-0.737,0.057-0.589,0.73-1.023,1.086c-0.536,0.44-1.826-0.491-2.083-1.082
		c-0.182-0.42-0.071-0.889-0.33-1.28c-0.249-0.368-0.737-0.517-1.047-0.827c-0.418-0.415-2.152-1.943-2.856-0.966
		c-0.352,0.49,0.098,0.404-0.555,0.433c-1.756,0.084-3.5-0.474-5.01-1.338c-1.337-0.767-2.62-1.862-4.248-1.852
		c-0.207,0.002-0.417,0.022-0.614-0.046c-0.66-0.227-0.782-1.26-1.152-1.773c-0.54-0.75-1.382-1.366-2.238-1.691
		c-0.238-0.092-0.503-0.18-0.621-0.407c-0.092-0.18-0.06-0.395-0.05-0.597c0.046-0.974-0.607-1.477-0.903-2.312
		C2.2,19.383,2.166,19.23,2.249,19.126c0.045-0.063,0.126-0.093,0.172-0.156c0.142-0.194-0.11-0.422-0.255-0.609
		c-0.385-0.493-0.098-1.177-0.273-1.73c-0.223-0.705-0.767-1.154-0.723-1.967C1.194,14.222,1.004,13.644,1,13.184"/>
	<path class="st1" d="M1.711,16.327c0.289,0.426,0.502,0.931,0.442,1.51C2.15,18.118,2.154,18.423,2.3,18.683
		c0.107,0.237,0.507,0.463,0.302,0.75l-0.134,0.123c-0.113,0.97,1.001,1.696,0.872,2.73c-0.01,0.237-0.056,0.513,0.11,0.713
		c0.16,0.195,0.406,0.258,0.62,0.348c0.437,0.172,0.843,0.404,1.207,0.674c0.27,0.22-0.094-0.026,0.488,0.498
		c0.253,0.254,0.524,0.539,0.682,0.924c0.172,0.368,0.296,0.798,0.592,1.134c0.302,0.372,0.828,0.23,1.273,0.297
		c0.465,0.038,0.93,0.179,1.371,0.372c0.882,0.401,1.669,1.007,2.49,1.507c0.825,0.502,1.691,0.888,2.536,1.134L14.5,29.849
		c0.639,0.207,1.46,0.293,2.166,0.31c0.006,0.012-0.227,0.012-0.063,0.035c0.237-0.015,0.459-0.023,0.75-0.037
		c0.087-0.015,0.215,0.018,0.251-0.075c0.014-0.084,0.039-0.165,0.075-0.242c0.062-0.133,0.148-0.217,0.19-0.276
		c0.224-0.133,0.213-0.122,0.535-0.122c0.124-0.004,0.25,0.006,0.38,0.035c0.54,0.137,1.113,0.552,1.642,1.059
		c0.241,0.286,0.596,0.46,0.897,0.692c0.325,0.223,0.435,0.626,0.473,1.01c-0.017-0.073-0.045-0.224-0.038-0.101
		c-0.007,0.663,0.49,1.23,1.067,1.565c0.286,0.169,0.625,0.333,0.969,0.264c0.357-0.095,0.457-0.507,0.611-0.816
		c0.159-0.362,0.597-0.444,0.939-0.375c0.357,0.064,0.688,0.236,0.968,0.464c0.57,0.48,0.731,1.238,1.159,1.786
		c-0.073-0.083-0.151-0.157-0.078-0.01c0.098,0.106,0.619,0.78,0.96,1.457c0.132,0.29,0.442,1.278,1.203,1.69l-0.068-0.027
		c0.569,0.259,0.845,0.444,1.35,0.471c0.125,0.026,0.256,0.037,0.373,0.017c0.325-0.071,0.016-0.805,0.026-1.325l-0.01,0.019
		c-0.059-0.5-0.082-0.787,0.066-1.251l0.025-0.04c0.598-0.979,1.342-1.076,1.247-1.155c0.34-0.17-0.89,0.574-0.353,0.303
		c0.62-0.42,1.337-0.71,1.898-1.224c0.54-0.508,1.162-1.093,1.969-1.072c0.751,0,1.53,0.176,2.254,0.07
		c0.168-0.051,0.396-0.137,0.577,0.003c0.186,0.146,0.131,0.388,0.321,0.46c0.148,0.104,0.334,0.198,0.478,0.072
		c0.149-0.135,0.352-0.193,0.549-0.156c0.083,0.04-0.02,0.12-0.008,0.172c0.31,0.063,0.23-0.28,0.366-0.492
		c0.074-0.042,0.096-0.073,0.203-0.075c0.087,0.062,0.09,0.091,0.15,0.116c0.106,0.047,0.23,0.088,0.343,0.122
		c0.368,0.157,0.687,0.132,0.644-0.033c-0.013-0.083-0.065-0.247-0.23-0.256c-0.133-0.033-0.342,0.053-0.449-0.109
		c-0.188-0.144,0-0.291,0.061-0.414c0.042-0.135,0.04-0.266,0.042-0.344c-0.015,0.06,0.028-0.003-0.008-0.09
		c-0.058-0.119-0.157,0.071-0.227,0.098c-0.099,0.102-0.31,0.122-0.31-0.011c0.038-0.1,0.12-0.146,0.181-0.203
		c0.122-0.103,0.313-0.236,0.661-0.38c-0.266,0.135-0.332,0.198-0.232,0.164c0.506-0.373,1.385-0.27,2.082-0.315
		c-0.11,0.018-0.282,0.026-0.256,0.04c0.791-0.001,1.39-0.378,2.096-0.302c-0.087-0.007-0.174,0.004-0.258,0.013
		c0.551,0.033,0.605,0.153,0.673,0.14c0.063,0.014,0.121,0.02,0.51,0.302c-0.195-0.12-0.132-0.07-0.177-0.082
		c0.192,0.115,0.42,0.273,0.693,0.252c0.269-0.024,0.517-0.197,0.73-0.393c0.19-0.214,0.536-0.386,0.811-0.23
		c0.268,0.104,0.462,0.308,0.614,0.471c-0.04-0.037-0.035-0.02-0.035-0.02c0.164,0.18,0.333,0.359,0.56,0.453
		c0.22,0.07,0.52,0.19,0.595,0.47c0.219,0.48,0.279,1.025,0.37,1.56c0.087,0.381-0.165-0.095,0.193,0.895
		c0.012-0.031,0.216,0.367,0.499,0.606c0.27,0.236,0.53,0.394,0.298,0.187c0.352,0.266,0.79,0.623,1.167,1.005
		c0.391,0.369,0.595,0.9,0.7,1.118l0.01,0.023l-0.01-0.02c-0.054-0.106-0.043-0.036-0.031,0.03c0.007,0.043,0.01,0.077-0.018,0.018
		c-0.04-0.083-0.078-0.166-0.116-0.25l0.098,0.271l0.065,0.202c0.011,0.022,0.005,0.06,0.02,0.067
		c-0.015,0.007-0.009-0.03-0.02-0.058c-0.025-0.066-0.054-0.13-0.089-0.192c-0.046-0.132-0.085-0.213-0.06-0.117
		c0.014,0.03,0.027,0.066,0.053,0.127c0.023,0.043,0.067,0.113,0.09,0.189c-0.009,0.104,0.098,0.035,0.173,0.023
		c0.478-0.269,0.706-0.777,0.776-1.005c0.025-0.712-0.175-1.325-0.447-2.402c0.162,0.499-0.019-0.305,0.087,0.034
		c-0.173-0.488-0.389-0.96-0.647-1.41c-0.166-0.327,0.01-0.097-0.261-0.554c0,0.032-0.123-0.163-0.225-0.288
		c-0.045-0.122-0.973-1.19-0.975-1.395c-0.074-0.149,0.338,0.505,0.129,0.148c-0.356-0.589-0.394-0.61-0.629-1.265l0.002-0.014
		c-0.161-0.433-0.225-1.34-0.225-0.831c0.037,0.322,0.016-0.126,0.065,0.351c-0.105-0.306-0.169-1.172,0.122-1.843
		c-0.074,0.233-0.047,0.21-0.063,0.307c0.167-1.002,1.151-1.595,1.556-2.452c-0.011-0.023-0.128,0.346-0.236,0.45
		c0.422-0.46,0.47-1.234,1.03-1.722c0.56-0.377,0.832-0.862,1.137-1.345c-0.088,0.158-0.082,0.063-0.07,0.057
		c0.34-0.552,0.392-0.498,0.626-0.827c0.045-0.013,0.3-0.423,0.603-0.746c0.155-0.17,0.077-0.077-0.171,0.208
		c0.077-0.094,0.199-0.248,0.42-0.437c0.389-0.533-0.885-2.51-0.19-3.58c-0.015,0.016,0.16-0.823,0.083-1.083l0.048,0.106
		c-0.001-0.154-0.031-0.306-0.088-0.448c-0.073-0.436,0.107-0.65,0.111-0.692c0.117-0.244-0.144,0.024-0.102,0.688
		c0.27,0.606-0.064,1.514,0.062,0.99c0.108-0.199,0.009-0.892-0.074-0.986c-0.01-0.036-0.004-0.039,0.013-0.004l0.005,0.01
		c-0.031-0.817,0.353-1.312,0.55-1.838c-0.05,0.118-0.138,0.46,0.046,0.012c0.073-0.86,0.075-0.24-0.047-0.929
		c-0.034-0.165-0.045-0.333-0.033-0.501c-0.08-0.05,0.248-0.848,0.088-0.512c0.034-0.048,0.173-0.4,0.45-0.621
		c0.261-0.206,0.517-0.318,0.486-0.273l-0.088,0.1c0.235-0.135,0.572-0.322,0.824-0.465c0.048-0.016,0.14-0.05,0.125-0.033
		c0.009-0.093,0.862-0.382,1.14-0.687c0.13-0.088,0.179-0.186,0.082-0.272c-0.078-0.044-0.45-0.272-0.545-0.499
		c-0.263-0.484-0.225-0.939-0.216-1.131c-0.01-0.313-0.042-0.62,0.011-0.965c0.04-0.172,0.077-0.364,0.28-0.543
		c0.262-0.09,0.235-0.104,0.407-0.243c-0.097,0.106-0.224,0.196-0.236,0.207c0.306-0.167,0.38-0.323,0.64-0.616
		c-0.07,0.027,0.31-0.179,0.493-0.55c0.047-0.061,0.13-0.05,0.199-0.033l0.113,0.03l0.018,0.007v0.002l0.005,0.056v0.01l0.004,0.023
		c-0.126-0.12-0.027-0.038-0.053-0.069c0.036-0.034,0.04-0.179,0.099-0.289c0.533-0.47,0.322-0.302,0.364-0.38
		c0.259-0.088,0.503-0.36,0.425-0.696c-0.039-0.136-0.105-0.083-0.409-0.143c-0.082-0.036-0.123-0.017-0.236-0.151
		c-0.07-0.131-0.05-0.19-0.055-0.25c0-0.052,0.008-0.096-0.013-0.139c-0.013-0.016-0.03-0.027-0.05-0.032
		c0.022,0.001,0.043,0.008,0.06,0.022c0.054,0.063,0.018,0.126,0.064,0.305c0.144,0.201-0.004,0.073,0.008-0.17
		c0.008-0.057,0.022-0.13-0.014-0.188c-0.074-0.097-0.278,0.022-0.505-0.18c-0.259-0.352-0.287-0.754-0.394-1.233l-0.006,0.23
		c-0.024-0.202-0.101-0.528-0.217-0.737c-0.114-0.213-0.241-0.242-0.203-0.257c-0.06-0.041-0.187-0.038-0.309-0.019
		c-0.083,0.024-0.406,0.416-0.335,0.353c-0.085,0.036-0.094,0.076-0.283,0.06c-0.205-0.104-0.103-0.074-0.145-0.108
		c-0.017-0.033-0.047-0.094-0.096-0.072c-0.096,0.066-0.095,0.082-0.169,0.311c-0.109,0.389-0.158,0.83-0.183,1.242
		c0.003,0.747,0.095,1.825-0.614,2.012c-0.086,0.03-0.105,0.074-0.166,0.284c-0.098,0.196-0.231,0.23-0.159,0.217
		c0.228-0.118,0.233-0.394,0.243-0.39c0.007-0.045,0.042-0.079,0.087-0.085c-0.1,0.044-0.071,0.104-0.071,0.104
		c-0.022,0.042-0.068,0.27-0.198,0.338c-0.063,0.053-0.132,0.097-0.207,0.132c-0.095,0.042-0.077,0.029,0.11-0.121
		c-0.994,0.47-0.966,0.496-2.285,0.82c0.056-0.03-0.05-0.027-0.414,0.046c-0.226,0.061-0.442,0.14-0.591,0.267
		c-0.458,0.51-0.277,0.32-0.34,0.275c-0.099,0.195-0.18,0.445-0.326,0.653c-0.156,0.196-0.283,0.317-0.306,0.4
		c-0.09,0.107-0.086,0.196,0.036,0.372c-0.1-0.172-0.046-0.107,0.058,0.043c0.151,0.15,0.126,0.534,0.05,0.624
		c0.035-0.08,0.054-0.166,0.058-0.253c0.046,0.14-0.317,0.658-0.595,0.75c0.058,0.011,0.634-0.314,0.637-0.77
		c0.022,0.34-0.328,0.687-0.612,0.841c0.092-0.036-0.77,0.263-1.128,0.25c-0.412,0.042-0.448,0.095-0.561,0.115
		c0,0-0.166,0.024-0.273,0.06c-0.08,0.026-0.116,0.04-0.04-0.007c0.1-0.043,0.284-0.067,0.499-0.116
		c-0.212,0.034-0.35-0.023-0.635,0.175c-0.035,0.123,0.03,0.115,0.03,0.115c0.052,0.063-0.065-0.115,0.25,0.435
		c-0.09-0.13-0.178-0.261-0.265-0.393c0.021,0.069,0.148,0.29,0.272,0.504l-0.25,0.256v0.048c-0.076,0.069-0.03,0.016-0.064,0.046
		c-0.134,0.193-0.803,0.869-0.896,1.026c-0.256,0.302-0.607,0.54-0.897,0.777l0.054-0.047c-0.366,0.272-0.85,0.641-1.241,0.796
		l0.015-0.016c-0.081,0.031-0.165,0.053-0.251,0.067c-0.344-0.02-0.683-0.087-1.008-0.2c-0.414-0.26-0.154-0.48-0.169-0.518
		c0.048-0.086,0.076-0.152,0.21-0.48c0.252-0.574,0.329-0.951,0.215-0.719c0.267-0.302-0.12-1.082-0.422-1.264
		c-0.04-0.008-0.04-0.017-0.101-0.003c-0.126,0.04-0.243,0.122-0.345,0.151c-0.158,0.044-0.327,0.057-0.34-0.106
		c-0.045-0.091,0.029-0.367,0.077-0.585c0.023-0.165,0.02-0.258,0.02-0.398c-0.016-0.063-0.023-0.099-0.032-0.141l0.083,0.148
		c-0.107-0.076-0.183-0.189-0.211-0.318c-0.08-0.336-0.09-0.528-0.28-0.612c-0.236-0.123-0.489-0.212-0.75-0.264
		c-0.588-0.163-0.575,0.278-0.976,0.845c-0.522,0.267-0.899,0.396-0.812,0.728c-0.03-0.358-0.046-0.033-0.056-0.008
		c0.113,0.336,0.119,0.442,0.212,0.552c0.02-0.042,0.025-0.03-0.104-0.441c0.091,0.403,0.62,1.03,0.287,1.789
		c-0.19,0.322-0.397,0.487-0.676,0.631c-0.365,0.173-0.677-0.155-0.718-0.289c0.217,0.307-0.01,0.081-0.113-0.152
		c0.039,0.047-0.164-0.714-0.194-1.278l-0.037-0.077l0.011-0.368c-0.011-0.226-0.088-0.256,0.013-0.835
		c0.029-0.051,0.05-0.105,0.063-0.162c0.052-0.3,0.13-0.66,0.318-1.009c0.096-0.189,0.232-0.355,0.4-0.484
		c0.27-0.15,0.262-0.12,0.409-0.23l0.411-0.3c0.203-0.21,0.799-0.376,0.212-0.194c0.639-0.223,1.041-0.096,1.373-0.133l0.189-0.013
		c0,0,0.071,0.122,0.06,0.091c0-0.018-0.133,0.01-0.1-0.006c-0.01-0.065-0.078-0.173-0.112-0.266
		c-0.018-0.062-0.057-0.057-0.056-0.252c0.038-0.163,0.23-0.168,0.216-0.165c0.024-0.007,0.022-0.023,0.022-0.04L44.06,6.789
		c-0.1-0.06-0.073-0.065-0.27,0.019c-0.104,0.034-0.217,0.04-0.321,0.034c-0.08-0.024-0.257,0.033-0.399-0.244
		c0.017-0.202-0.19-0.066-0.549,0.066c-0.304,0.15-0.622,0.392-1.04,0.532c-0.201,0.067-0.49,0.117-0.754-0.044
		c-0.276-0.214-0.305-0.291-0.392-0.396c0.015-0.012-0.224-0.004-0.394-0.01c-0.069-0.017-0.28,0.022-0.422-0.224
		c-0.009-0.037,0.012-0.042,0.022-0.06c0.026-0.036,0.172-0.145,0.064-0.15l0.06-0.068c-0.137,0-0.134,0.126-0.193,0.142
		c0.054-0.102-0.093,0.03,0.026-0.158c-0.06,0.056-0.098,0.131-0.141,0.184c-0.01,0.047-0.243,0.236-0.331,0.254
		c-0.219,0.098-0.448,0.171-0.684,0.218c-0.077,0.05,0.427-0.107,0.33-0.05c-0.09,0.061-1.14,0.176-1.283,0.195
		c-0.225-0.022-0.046-0.052,0.066-0.074c-0.217,0.02-0.278-0.06-0.606,0.201c-0.23,0.11-0.178,0.057-0.052-0.017
		c0.088-0.058,0.183-0.122,0.285-0.188c0.09-0.076,0.15-0.03,0.255-0.05c0.358-0.023,0.687-0.1,0.367-0.097
		c-0.153,0.011-0.306,0.026-0.466,0.017c-0.43-0.032,1.211-0.085,0.068-0.067c-0.242-0.062-0.485,0.217-0.604,0.278
		c-0.114,0.082-0.155,0.12,0.057,0.032c-0.45,0.249-0.615,0.212-0.66,0.069c0.045-0.123-0.21-0.077,0.367-0.816
		c0.177-0.193-0.081,0.1-0.25,0.369c-0.167,0.274-0.118,0.41-0.104,0.328c0.033-0.199,0.273-0.516,0.51-0.81
		c0.249-0.279,0.303-0.456,0.61-0.607c-0.573,0.387-0.084-0.068,0.202-0.178c0.48-0.215-0.239,0.17,0.338-0.118
		c0.052-0.05,0.135-0.16-0.01-0.07c-0.035-0.046,0.093-0.1-0.2-0.08c-0.155-0.063,0.556-0.033-0.038-0.126
		c0.065,0.033-0.207-0.003-0.396,0.026c-0.19,0.03-0.302,0.101-0.135,0.083c-0.26,0.066-0.356,0.078-0.115-0.04
		c-0.106,0.024-0.236,0.11-0.47,0.107c-0.237-0.013-0.377-0.193-0.47-0.227c-0.18-0.122-0.358-0.17-0.416-0.23l-0.155,0.002
		c-0.19-0.054-0.383-0.094-0.579-0.12c-0.42,0.02-1.448-0.126-1.37-0.195c-0.14-0.038-1.083-0.226-0.725-0.11
		c0.579,0.14,0.682,0.119,1.004,0.25c-0.416-0.144-0.86-0.2-1.195-0.233l-0.05-0.03c-0.2-0.027-0.66-0.054-0.783-0.017
		c0.152-0.017,0.074-0.033-0.087-0.034l-0.219,0.034c-0.858,0.003-0.204-0.067-1.043-0.073l0.637-0.017
		c-0.14,0.004-0.425-0.036-0.826-0.03c-0.188,0.027-0.431,0.066-0.578,0.087c-0.474,0.007-0.214-0.04-0.676-0.013l0.607-0.03
		c0.091-0.01-0.411-0.063-1.042-0.074c-0.403,0.004-1.027,0.042-0.391,0.073c-0.316-0.006-0.76-0.035-0.508-0.055
		c-0.716,0,0.092,0.038-0.524,0.049l-1.513-0.116l0.647-0.043l-0.431-0.008c0.557-0.036-0.28-0.042,0.035-0.083
		c-0.292-0.012-0.647-0.002-0.93,0.004c0.854,0.093-0.962,0.09-0.718,0.162c-1.174-0.002-0.723-0.182-1.954-0.095
		c0.201,0.022-0.38,0.063,0.359,0.057c-0.729-0.022-0.499,0.075-1.357-0.022c0.639,0.02-0.68-0.124,0.244-0.095
		c-0.064,0.019,0.511,0.064,0.653,0.048c-0.299-0.035,0.066-0.052-0.68-0.108c-0.454-0.026-1.074-0.087-0.99-0.04
		c0.018,0.04,0.696,0.059,0.4,0.07c-0.906-0.064-1.05-0.15-1.43-0.116c0.57,0.056,0.708,0.109,0.695,0.135l-0.666-0.053l0.133-0.012
		c-1.062-0.143-0.321,0.016-1.352-0.12l-0.475-0.116c0.25-0.006,1.496,0.211,1.32,0.113c-0.667-0.082-0.894-0.074-1.524-0.179
		l0.474,0.049c-0.24-0.033-0.465-0.16-1.423-0.243c-0.495-0.05-0.134,0.007-0.15,0.03c-1.037-0.148-1.412-0.202-2.08-0.296
		c0.149-0.027-1.212-0.22-0.446-0.14c0.344,0.097,1.887,0.35,2.275,0.357c-0.38-0.123,0.839,0.138,1.076,0.102
		c-0.858-0.124-0.806-0.183-0.939-0.242c-0.214-0.027-0.464-0.059-0.611-0.076c-0.11,0.023,0.204,0.07,0.215,0.113
		c-0.799-0.14-1.601-0.26-2.405-0.361c-0.316-0.074-0.208-0.094,0.168-0.03c-1.139-0.197-2.275-0.416-3.406-0.657
		c0.679,0.201-1.199-0.224-0.737-0.078c0.572,0.13,1.056,0.27,0.734,0.236c-0.357-0.076,0.017-0.024-0.13-0.07
		C9.633,2.229,9.405,2.093,8.937,2.05c1.044,0.195,0.22-0.034,0.42-0.043C8.608,1.877,9.391,1.999,8.66,1.808
		c-0.722-0.167-1.647-0.556-2.4-0.447c-0.607,0.12-1.597,0.376-2.24,0.346C3.928,1.924,3.958,2.535,4,2.837
		c0.029,0.498-0.057,0.166-0.009,0.712c0.038,0.645,0.038-0.486,0.054,0.477l-0.01-0.093c0.081,0.308-0.283,1.73-0.351,2.006
		l0.039-0.297c-0.052,0.16-0.103,0.32-0.147,0.465c-0.022,0-0.11,0.186-0.02-0.089l-0.73,1.707L3.024,7.37
		c-0.415,0.999-0.767,1.646-0.939,2.677l-0.027-0.035c-0.027,0.205-0.044,0.411-0.05,0.618c-0.026-0.154-0.076,0.418-0.082,0.75
		c0.026-0.541-0.004-1.088,0.09-1.633c0.112-0.44-0.06,0.495,0.033,0.223c0.048-0.236,0.322-1.164,0.364-1.319
		C2.279,8.999,2.283,9.02,2.209,9.299c-0.082,0.104,0.083-0.438,0.16-0.711C2.302,8.771,2.196,9.032,2.201,9.076
		c0.096-0.373,0.232-0.74,0.492-1.324c-0.158,0.403,0.123-0.203,0.07-0.045c-0.022-0.068,0.23-0.624,0.547-1.34
		c0.254-0.496,0.513-1.389,0.55-2.279c0.033,0.362-0.001,0.84-0.146,1.376c0.17-0.545,0.168-0.616,0.25-1.183
		C3.95,3.998,3.912,3.807,3.802,3.068l0.027-0.045c-0.05-0.687-0.212-0.602,0.01-1.574c0.026,0.004,0.063,0.01,0.102,0.018
		C4.777,1.511,5.409,1.31,6.102,1.16C6.849,0.996,7.48,1.296,8.01,1.429l0.032,0.042c0.595,0.17,1.98,0.473,2.806,0.603
		c1.413,0.271,2.717,0.523,3.718,0.716c2.46,0.392,4.615,0.671,7.178,0.874L21.31,3.677c0.462-0.004,0.296,0.063,0.75,0.066
		c-0.516-0.046,0.631-0.037,0.95-0.06c1.145,0.057,2.62,0.043,3.635,0.027l0.04,0.033c1.027-0.04,2.25,0.034,3.53,0.067
		c0.147,0.016,0.38,0.049,0.761,0.053c0.68-0.017,1.086-0.117,2.107,0.082c0.377,0.072,0.833,0.23,1.303,0.259
		c0.475,0.037,0.997,0.06,1.378,0.225c0.178,0.061,0.357,0.166,0.502,0.276c0.132,0.097,0.172,0.127,0.333,0.059
		c0.324-0.172,0.799-0.141,1.116-0.088c0.257,0.024,0.572,0.02,0.711,0.12c0.192,0.076,0.186,0.388,0.029,0.507
		c-0.125,0.157-0.444,0.332-0.617,0.418l-0.477,0.238c-0.092,0.031-0.213,0.205-0.332,0.329l-0.153,0.187
		c-0.043,0.058-0.094,0.118-0.12,0.187c0.019,0.089,0.135,0.013,0.182-0.02c0.074-0.037,0.095-0.09,0.218-0.104
		c0.192,0.008,0.34,0.004,0.52-0.013c0.348-0.032,0.692-0.097,1.028-0.195l0.193-0.027c0.098-0.05,0.107-0.04,0.173-0.126
		l0.275-0.376c0.18-0.21,0.343-0.31,0.586-0.4c0.187-0.076,0.496-0.091,0.517,0.105c-0.019,0.097-0.076,0.13-0.116,0.213
		c-0.01,0.03-0.013,0.062-0.01,0.094c-0.026,0.049,0.074,0.131-0.196,0.36l-0.143,0.095l-0.035,0.025L39.94,6.3l-0.13,0.076h0.004
		l0.006-0.004c0.012-0.01,0.006-0.01,0.028-0.037c0.03-0.051,0.043-0.108,0.043-0.085l0.079,0.01
		c0.156,0.022,0.276-0.047,0.576,0.057c0.438,0.427,0.427,0.534,0.792,0.424c0.312-0.098,0.616-0.311,0.966-0.487
		c0.22-0.094,0.325-0.132,0.586-0.2c0.278-0.069,0.623,0.066,0.593,0.366c-0.165-0.05,0.117,0.03,0.184-0.014
		c0.028,0.001,0.16-0.083,0.3-0.085c0.134-0.002,0.264,0.085,0.353,0.162l-0.144,0.17c0.01,0.038-0.013,0.136,0.077,0.141
		c0.092-0.032-0.073,0.096,0.2,0l0.117,0.21c0.027,0.044,0.165,0.313-0.074,0.508c-0.18,0.103-0.255,0.073-0.331,0.09
		c0.074-0.034,0.16-0.033,0.306-0.146c-0.534,0.165-0.876,0.056-1.196,0.125c-0.306,0.037-0.393,0.127-0.327,0.118
		c-0.235,0.069-0.615,0.584-1.018,0.723c-0.25,0.187-0.4,0.598-0.492,0.794c-0.204,0.72-0.158,0.893-0.12,1.523
		c0.023,0.728,0.149,1.413,0.345,1.533c0.034,0.052,0.266-0.098,0.426-0.277c0.155-0.179,0.22-0.375,0.13-0.694
		c0.026,0.095,0.037,0.194,0.033,0.292c-0.01,0.11,0.055,0.15,0.037-0.152c-0.025-0.232-0.24-0.671-0.372-1.064
		c-0.141-0.407,0.05-0.83-0.101-0.409c0.135-0.667,0.732-0.746,0.993-0.932c0.018,0.097,0.112-0.464,0.417-0.708
		c0.122-0.132,0.375-0.259,0.588-0.244c0.191,0.002,0.356,0.04,0.52,0.08c0.33,0.116,0.61,0.141,0.95,0.486
		c0.237,0.366,0.228,0.77,0.25,0.77l0.106-0.002l0.005,0.17l0.01,0.351c0.026-0.15,0.02,0.35,0.026,0.262
		c-0.008,0.023-0.03,0.091,0.017,0.057c0.088-0.003-0.099-0.06,0.334-0.012c0.53,0.238,0.619,0.634,0.767,0.981
		c0.052,0.193,0.116,0.34,0.08,0.632l-0.203,0.505c-0.115,0.276-0.224,0.534-0.333,0.8c-0.057,0.132,0.033-0.212-0.06,0.075
		c0.028,0.092,0.008,0.015,0.098,0.053c0.182,0.057,0.556,0.134,0.669,0.14c1.147-0.344,2.41-1.841,3.112-2.547l-0.08-0.135
		c-0.042-0.077-0.163-0.303-0.141-0.469c0.036-0.397,0.534-0.481,0.676-0.52c0.473-0.115,0.927-0.118,1.326-0.228
		c0.375-0.085,0.769-0.384,0.741-0.607c0.056-0.056-0.248-0.19-0.275-0.658c0.092-0.447,0.355-0.547,0.444-0.703
		c0.198-0.243,0.3-0.903,0.862-1.182c0.491-0.245,0.969-0.25,1.38-0.345l1.262-0.363c0.187-0.061,0.365-0.146,0.531-0.252
		c0.093-0.082,0.04,0,0.087-0.132c0.03-0.156,0.168-0.355,0.357-0.405c0.238,0,0.32-0.516,0.317-0.893l0.016,0.038
		c-0.046-0.553-0.025-1.32,0.147-1.976c0.036-0.23,0.3-1.024,0.77-0.869c0.088,0.039,0.16,0.109,0.233,0.214
		c0.01,0.02,0.04,0.067,0.04,0.067l-0.014-0.009l-0.095,0.15C58.74,1.624,58.74,1.621,58.74,1.621
		c0.02,0.173-0.027-0.233-0.02-0.192V1.426l0.002-0.004c0.02-0.004,0.084-0.112,0.188-0.239c0.077-0.075,0.171-0.129,0.275-0.156
		c0.212-0.057,0.531-0.027,0.71,0.12c0.17,0.133,0.202,0.234,0.133,0.152c0.45,0.49,0.405,1.446,0.648,1.93
		c0.03,0.025,0.018,0.026,0.1,0.038c0.136,0.012,0.311,0.035,0.406,0.148c0.125,0.112,0.11,0.407,0.11,0.477l0.003,0.01
		c-0.039,0.007-0.078,0.019-0.114,0.036l-0.025,0.016l-0.004,0.002L61.15,3.958v0.003l0.093-0.129l0.01,0.004
		c0.025,0.011,0.051,0.018,0.078,0.02c0.059,0.014,0.257-0.002,0.422,0.098C61.914,4.042,61.988,4.248,62,4.411
		c-0.02-0.187-0.058-0.353-0.266-0.471c0.56,0.58,0.097,1.235-0.277,1.454c-0.166,0.106-0.398,0.245-0.383,0.271
		c-0.036,0.004,0.064,0.144-0.202,0.4c-0.233,0.069-0.142,0.018-0.172,0.03l-0.022-0.006c-0.013-0.004-0.033-0.011-0.039,0.006
		c-0.233,0.258-0.575,0.653-0.997,1.023c0.125-0.104,0.313-0.31,0.327-0.35c-0.124,0.12-0.22,0.21-0.337,0.322
		c-0.073,0.067-0.158,0.121-0.25,0.16c-0.068,0.022-0.068,0.026-0.086,0.056c-0.093,0.146-0.104,0.425-0.147,0.559
		c-0.007,0.307,0.031,0.216,0.031,0.032c0.012,0.813-0.132,1.524,0.734,1.953c0.27,0.238,0.058,0.668-0.147,0.804
		c-0.178,0.154-0.361,0.258-0.545,0.358c-0.364,0.189-0.726,0.374-1.104,0.538c-0.356,0.159-0.736,0.34-0.96,0.571
		c-0.218,0.248-0.332,0.621-0.31,0.967c-0.006,0.162,0.088,0.332,0.101,0.613c0.004,0.26-0.011,0.43-0.076,0.708
		c-0.17,0.427-0.331,0.766-0.46,1.142c-0.084,0.214-0.117,0.4-0.104,0.4c0.186,0.742,0.04,0.688,0.061,0.656
		c-0.037-0.036,0.052,0.017-0.12,0.864c-0.051,0.143-0.002,0.115-0.021,0.135c-0.162,0.698-0.345,1.033-0.153,1.488
		c-0.013-0.208,0.114,0.305,0.146,0.313c0.12,0.425,0.202,0.756,0.24,1.055c0.023,0.282,0.089,0.595-0.189,0.878
		c-0.218,0.171-0.414,0.394-0.67,0.745l0.034-0.082c-0.426,0.541-0.739,1.081-1.128,1.72c-0.195,0.299-0.533,0.562-0.742,0.73
		c-0.208,0.187-0.324,0.422-0.415,0.675c-0.198,0.57-0.62,1.2-1.047,1.61c-0.42,0.437-0.72,0.888-0.825,1.449
		c-0.233,1.105,0.24,2.276,0.932,3.177c0.813,0.888,1.43,2.073,1.751,3.263c0.172,0.589,0.282,1.237,0.346,1.813
		c0.016,0.091,0.084,0.354,0.028,0.562c-0.039,0.177-0.102,0.348-0.187,0.508c-0.163,0.283-0.353,0.604-0.9,0.863
		c-0.1-0.068-0.192-0.116-0.222-0.15l-0.215-0.162c-0.284-0.743-0.439-0.933-0.852-1.317c-0.385-0.366-0.76-0.614-1.23-1
		c-0.456-0.396-0.738-1.02-0.821-1.582c-0.099-0.563-0.135-1.067-0.314-1.512c-0.13-0.333-0.076-0.216-0.521-0.42
		c-0.386-0.191-0.595-0.524-0.784-0.689c-0.18-0.167-0.427-0.266-0.494-0.19c-0.15,0.071-0.424,0.41-0.798,0.554
		c-0.386,0.207-0.95,0.018-1.183-0.191c-0.273-0.194-0.475-0.33-0.705-0.354c-0.484-0.094-1.072,0.257-1.794,0.28
		c-0.664,0.03-1.295-0.048-1.753,0.145c-0.11,0.054-0.043,0.023-0.074,0.04h0.012l0.004-0.005c0.045,0.109,0.02,0.27,0.015,0.345
		c-0.013,0.082-0.015,0.175-0.067,0.318c-0.04,0.092-0.013,0.03-0.025,0.05l0.007,0.007c-0.132,0.035,0.3-0.12,0.566,0.317
		c0.024,0.104,0.163,0.247-0.006,0.567c-0.233,0.26-0.398,0.188-0.5,0.201c-0.218-0.016-0.38-0.066-0.543-0.117l-0.24-0.082
		c-0.061-0.021-0.119-0.05-0.173-0.086l-0.094-0.073l-0.039-0.041l-0.011-0.015l0.158-0.147c0.093-0.106,0.01-0.057,0.062,0.08
		c0.08,0.248,0.037,0.108,0.031,0.152l-0.041,0.02c-0.18-0.375-0.05-0.105-0.088-0.187v0.001l0.022,0.018
		c0.274,0.047,0.094,0.27,0.09,0.394c-0.086,0.249-0.336,0.382-0.594,0.352c-0.05,0,0.215,0.003,0-0.006
		c-0.1,0.03-0.055-0.174-0.07-0.203l-0.05,0.003c-0.051,0.004-0.051,0.006-0.07,0.01c-0.037,0.004-0.054,0.061-0.3,0.18
		c-0.196,0.088-0.466-0.007-0.572-0.074c-0.12-0.075-0.238-0.12-0.382-0.327c-0.132-0.29-0.063-0.198-0.097-0.234
		c-0.016,0,0.018-0.006-0.053-0.001c-0.094,0.018-0.186,0.043-0.276,0.075c-0.135,0.044-0.277,0.059-0.418,0.042
		c-0.887-0.003-1.906-0.296-2.565,0.023c-0.652,0.316-0.947,0.709-1.352,0.994c-0.393,0.301-0.86,0.521-1.605,0.98
		c0.055-0.044,0.147-0.106,0.042-0.05c-0.091,0.06-0.967,0.727-0.857,0.912c-0.164,0.435-0.014,1.225,0.052,1.767l0.05,0.259
		c0.025,0.144,0.008,0.293-0.05,0.427c-0.125,0.281-0.514,0.332-0.674,0.329c-0.39-0.01-0.709-0.118-1.024-0.239
		c-0.317-0.134-0.601-0.26-0.912-0.495c-0.302-0.246-0.5-0.563-0.657-0.87c-0.3-0.652-0.513-1.151-0.93-1.736
		c0.24,0.36,0.394,0.523,0.114,0.09l-0.321-0.438l-0.034-0.08c-0.208-0.292-0.404-0.608-0.244-0.29l-0.6-1.089
		c-0.19-0.287-0.506-0.514-0.83-0.642c-0.317-0.128-0.704-0.116-0.782,0.032c-0.165,0.13-0.192,0.897-0.965,1.085
		c-0.63,0.045-1.02-0.241-1.398-0.504c-0.346-0.281-0.739-0.62-0.871-1.183c-0.095-0.51-0.07-0.858-0.27-1.052
		c-0.191-0.227-0.63-0.392-0.973-0.753c-0.557-0.535-1.263-1.105-1.903-1.18c-0.322,0.051-0.372,0.015-0.666,0.672
		c-0.394,0.139-0.599,0.057-0.8,0.089c-0.214,0-0.428-0.007-0.642-0.023c-1.712-0.133-3.334-0.801-4.745-1.714
		c-0.665-0.428-1.439-0.988-2.3-1.294c-0.426-0.155-0.877-0.231-1.33-0.227c-0.28-0.05-0.529,0.028-0.815-0.147
		c-0.268-0.163-0.428-0.4-0.54-0.61c-0.338-0.775-0.494-1.327-1.034-1.8c-0.479-0.476-1.051-0.848-1.68-1.092
		c-0.166-0.07-0.365-0.147-0.536-0.334c-0.182-0.197-0.205-0.486-0.192-0.668c0.035-0.37,0.015-0.643-0.1-0.956
		c-0.11-0.3-0.298-0.589-0.472-0.907c-0.091-0.163-0.17-0.332-0.237-0.506c-0.054-0.13-0.189-0.455,0-0.703l0.123-0.111
		c0.082-0.078-0.02-0.16-0.21-0.41c-0.19-0.252-0.244-0.57-0.248-0.837c0.01-0.565,0.035-0.963-0.231-1.405
		c-0.221-0.424-0.565-0.927-0.552-1.543C1.214,14.632,1.026,14.152,1,13.55c0,0,0.029,0.201,0.143,0.63
		c0.05,0.215,0.139,0.492,0.152,0.837C1.273,15.403,1.431,15.871,1.711,16.327"/>
	<path class="st2" d="M8.493,1.488c0.018-0.002,0.169,0.053,0.21,0.063C8.547,1.519,8.409,1.494,8.297,1.449
		C8.444,1.492,8.424,1.476,8.493,1.488 M13,2.584c-0.045,0.01-0.647-0.097-1-0.169l1,0.17 M15.507,2.485
		c0.245,0.05,0.175,0.048-0.156,0C15.327,2.471,15.438,2.483,15.507,2.485"/>
	<path class="st2" d="M15.27,2.457c0.238,0.035,0.354,0.062,0.468,0.087c-0.007-0.015-0.55-0.07-0.467-0.087 M25.2,3.492
		c0.15,0.002,0.476-0.008,0.616,0.016C25.659,3.491,25.083,3.516,25.2,3.492 M29.344,3.488l0.242,0.004
		c0.171,0.012-0.01,0.02-0.155,0.02L29.344,3.488 M50.572,26.375c-0.144,0.3-0.114,0.202-0.145,0.25
		C50.556,26.351,50.395,26.731,50.572,26.375 M50.486,33.458l0.038,0.084l-0.047-0.014L50.486,33.458"/>
	<path class="st3" d="M10.526,15.231c-0.413-0.186-0.648-0.74-1.09-0.923C9.388,14.282,9.513,14.223,9.4,14.17
		c-0.44-0.14-0.962-0.562-1.496-0.773l0.038-0.027c-0.104-0.043-0.241,0.04-0.348,0.034c-0.002-0.02,0.036-0.031,0.012-0.06
		c-0.03,0.064-0.204,0.03-0.247,0.08c-0.047-0.027-0.045-0.074-0.106-0.094l-0.054,0.085c-0.141,0.193-0.417,0.085-0.606,0.276
		c0.003-0.022,0.02-0.044-0.005-0.05c-0.308,0.247-0.638,0.591-0.79,0.994c-0.014-0.027-0.048-0.066-0.086-0.057
		c0.054,0.057,0.021,0.184,0,0.295c-0.1,0.02,0.015,0.207-0.06,0.32l-0.015-0.016c0.064,0.11-0.064,0.138,0.02,0.227l-0.068,0.057
		c0.107,0.047-0.058,0.139-0.004,0.223l0.023-0.003c0.024,0.074-0.025,0.118,0.003,0.184l-0.013,0.01
		c0.045,0.161,0.004,0.267,0.09,0.245c-0.059,0.072-0.062-0.151-0.144-0.043c0.184,0.537,0.424,1.045,0.74,1.499
		c0.011,0.071,0.025,0.113,0.009,0.144c0.047,0.033,0.138,0.157,0.2,0.17c-0.012-0.016-0.01,0.057,0.005,0.082
		c0.04,0.101,0.143,0.02,0.184,0.132c-0.045-0.018-0.075-0.01-0.09,0.023c0.11,0.027,0.183,0.13,0.27,0.2
		c-0.02-0.003-0.043-0.019-0.061,0.004c0.135,0.04,0.135,0.181,0.243,0.226l-0.066,0.007c0.07,0.171,0.112-0.036,0.185,0.1
		c-0.037-0.015-0.044,0.008-0.06,0.017c0.156,0.04,0.286,0.227,0.401,0.305l-0.016,0.011c0.109,0.102,0.194,0.242,0.337,0.331
		c0.027,0.058-0.098,0.075,0.026,0.176c0.066-0.076,0.216,0.166,0.229,0.014c0.08,0.112,0.206,0.293,0.295,0.332
		c-0.07-0.016-0.039,0.14-0.125,0.064l0.02,0.108c-0.036,0.02-0.053-0.075-0.068-0.017c0.042,0.04,0.186,0.127,0.209,0.176
		c0.118,0.03,0.263,0.01,0.394,0.119c-0.084-0.026-0.044,0.118-0.095,0.092l0.299,0.022c0.042,0.035-0.045,0.07,0.03,0.105
		c0.015-0.022,0.052-0.01,0.084-0.01c0.008,0.026,0.185,0.148,0.136,0.24c-0.009,0.047-0.078-0.05-0.057,0.023
		c0.074,0.07,0.1,0.048,0.177,0.121l-0.008,0.01c0.04,0.06,0.173,0.108,0.155,0.015c-0.032-0.037-0.025,0.058-0.057-0.013
		c0.073-0.01,0.17,0.061,0.249,0.134c-0.038-0.015-0.052,0.011-0.083,0.023c0.154,0.035,0.279,0.118,0.412,0.202
		c0.034-0.033-0.1,0.028-0.1-0.01c0.103,0.19,0.364,0.214,0.421,0.404c-0.025-0.015,0.032-0.063,0.026-0.053
		c0.067,0.073,0.02,0.122,0.08,0.145c-0.02,0.036,0.068,0.046,0.124,0.078c0.043,0,0,0.027-0.046-0.006
		c0.089,0.033,0.391,0.232,0.51,0.419c0.012-0.025,0.155,0.01,0.19,0.044l-0.056,0.037c0.008,0.058,0.122,0.102,0.094,0.151
		c0.125,0.01-0.331-0.218-0.192-0.169c-0.007,0.064,0.205,0.054,0.13,0.099c0.072,0.063,0.187,0.071,0.216,0.18
		c-0.013-0.028-0.113,0.013-0.051,0.062c0.106,0.083,0.046,0.002,0.141,0.06l0.068,0.029c0.055-0.034,0.048,0.054,0.07-0.02
		c-0.019,0.052,0.082,0.033,0.04,0.132l-0.037,0.074c0.034,0.022,0.075-0.048,0.098-0.074c0,0.01,0.005,0.035,0,0.051
		c0.019-0.147,0.06,0.067,0.082-0.042c0.053,0.16,0.088-0.073,0.14,0.013c0.015-0.106,0.014-0.194,0.06-0.223
		c0,0.023-0.006,0.041,0.007,0.073c0.043-0.006,0.03-0.048,0.037-0.1c0.006,0.025,0.088-0.02,0.153-0.05
		c0.007-0.086-0.062-0.094-0.092-0.12c0.14-0.012,0.062-0.28,0.206-0.32c-0.003,0.038-0.018,0.153,0.046,0.099
		c0.144-0.019,0.009-0.203,0.125-0.3l-0.1-0.016c0.083-0.026,0.048-0.215,0.13-0.153c-0.01-0.058,0.104-0.13,0.014-0.166
		c0.18-0.164,0.225-0.524,0.438-0.568c0.003-0.035,0.055-0.1,0.004-0.112c-0.07,0.023-0.001,0.09-0.044,0.09
		c0.012-0.029-0.006-0.048-0.018-0.057c0.054-0.052,0.086-0.1,0.122,0c0.126-0.113-0.064-0.227,0.062-0.392
		c0.032,0.027,0.051,0.021,0.076-0.037l-0.01-0.134c0.075-0.108,0.114-0.021,0.174,0.01c0.023-0.068,0.066-0.145,0.036-0.199
		l0.113-0.036c-0.08,0.027-0.009-0.072-0.009-0.108v0.036c0.03,0.001,0.051-0.08,0.065-0.12c-0.04-0.01-0.095,0.054-0.127,0.09
		c-0.007-0.047,0.025-0.094,0.016-0.155c0.049,0.047,0.09-0.078,0.124-0.127c0.043-0.051-0.02-0.093-0.009-0.11
		c0.032,0.017,0.054-0.089,0.073-0.021c0,0.024-0.05,0.028-0.043,0.076c0.043-0.027,0.092,0.006,0.095-0.092
		c0-0.077-0.122-0.05-0.031-0.142c0,0.038,0.02,0.057,0.03,0.09l0.082-0.088l-0.05-0.033c0.02-0.01,0.03,0.001,0.03,0.001
		c-0.04-0.062,0.063-0.17,0.013-0.23c0.022-0.055,0.093-0.092,0.122-0.14v0.012c0.064-0.045,0.082-0.14,0.07-0.21l0.012,0.009
		c0.031-0.054,0.044-0.117,0.04-0.179c0.081-0.065,0.213,0.077,0.191-0.054c0.042-0.089-0.03-0.188-0.082-0.17
		c0.112-0.14,0.104-0.365,0.254-0.47c-0.011-0.034-0.032-0.026-0.024-0.08c0.122-0.224,0.153-0.522,0.33-0.664
		c-0.005,0.079,0.053,0.03,0.086,0.044c-0.027-0.08,0.078-0.048,0.003-0.104c-0.052-0.015-0.074-0.034-0.121,0.024
		c0.032-0.15,0.112-0.364,0.185-0.424c-0.037,0.028-0.043-0.007-0.046-0.044c0.077,0.044,0.127-0.058,0.127-0.148l-0.045-0.029
		l0.066-0.033c-0.005-0.037-0.093-0.07-0.02-0.134c0.02,0.005,0.042,0.008,0.06-0.004c-0.013-0.096-0.042-0.231,0.02-0.308
		l0.093-0.05c0.003-0.04-0.025-0.117-0.064-0.059c0.087-0.136,0.112-0.233,0.186-0.267c-0.092-0.308-0.056-0.653-0.054-0.954
		l0.041,0.007c0.036-0.081-0.07-0.038-0.046-0.095c0.04,0.024,0.078-0.068,0.127-0.004c0.034-0.122-0.073-0.149-0.1-0.219
		c-0.051-0.007,0.04,0.057-0.027,0.047c-0.02-0.01,0.023-0.162-0.056-0.169c0.028-0.03,0.086-0.017,0.119-0.006l-0.047-0.064
		c0.08-0.105,0.187,0.174,0.284,0.07l-0.019-0.07c0.073-0.08,0.112,0.174,0.12-0.008c-0.05-0.072-0.174-0.115-0.194-0.043
		c-0.049-0.146-0.193-0.037-0.218-0.19c0.036-0.052,0.038,0.12,0.092,0.078c0.05-0.09-0.07-0.138-0.06-0.207
		c-0.012,0.078-0.103,0.04-0.127,0.001c0.015-0.085,0.086,0.026,0.062-0.082c-0.05-0.003-0.114-0.081-0.115,0.007
		c-0.11,0.002-0.006-0.113-0.101-0.136c0.053-0.06,0.193,0.037,0.182-0.087c-0.055,0.043-0.143-0.091-0.21,0.012
		c0-0.049,0.045-0.08,0.097-0.07c0.013-0.084-0.179-0.07-0.07-0.16l-0.071,0.019l0.028-0.112c-0.035-0.048-0.179-0.075-0.094-0.143
		c-0.015-0.011-0.099-0.095-0.118-0.01c0.017,0.078,0.094,0.026,0.042,0.124c0.035-0.098-0.071-0.074-0.116-0.08l0.023-0.034
		c-0.027-0.006-0.058-0.05-0.097-0.026c0.026-0.004,0.042-0.035,0.033-0.056l-0.06,0.038c-0.092-0.028,0.048-0.105-0.037-0.148
		l0.085,0.005c-0.015-0.003-0.009-0.073-0.06-0.086c-0.048,0.04-0.106,0.087-0.144,0.12c-0.057,0,0.01-0.07-0.06-0.04l0.09-0.03
		c0.019-0.014,0.005-0.111-0.065-0.15c-0.052,0-0.149,0.059-0.093,0.113c-0.033-0.008-0.069-0.062-0.029-0.092
		c-0.082-0.01-0.009,0.062-0.084,0.074c-0.013-0.054-0.09-0.124-0.138-0.195l0.1-0.079l-0.054-0.013
		c0.089-0.064-0.024-0.068,0.034-0.142c-0.039-0.023-0.091-0.004-0.134,0.008c0.093,0.154-0.151,0.165-0.13,0.297
		c-0.144,0.029-0.076-0.316-0.243-0.119c0.025,0.033-0.05,0.129,0.046,0.088c-0.095-0.01-0.06,0.128-0.172,0.081
		c0.08-0.054-0.096-0.121,0.023-0.2c-0.006,0.04,0.07,0.027,0.089,0.015c-0.041-0.047,0.007-0.126-0.098-0.12
		c-0.062,0.015-0.149,0.02-0.13,0.082c0.007,0.072,0.093-0.01,0.058,0.064c-0.115,0.028-0.144-0.061-0.17,0.067
		c0.065-0.023,0.09,0.046,0.093,0.095l-0.068,0.044l0.007-0.05c-0.125-0.01-0.02,0.094-0.134,0.1l-0.074-0.077
		c0.005-0.091,0.177,0.003,0.13-0.124c-0.082,0.014-0.096,0.068-0.173,0.07l0.048-0.047c-0.029,0.004-0.108-0.146-0.192-0.004
		c-0.045,0.058,0.003,0.049,0.017,0.093c-0.117,0.054-0.12,0.14-0.19,0.184c-0.03-0.09-0.132,0.069-0.1-0.062
		c0.07,0.03,0.218-0.09,0.234-0.177c-0.089-0.087,0.104-0.024,0.096-0.143c-0.108,0.039-0.144-0.067-0.189-0.127
		c-0.034,0.01-0.055,0.05-0.068,0.067c0.014,0.068,0.055,0.05,0.085,0.115c-0.112,0.039-0.2,0.127-0.238,0.24
		c-0.05,0-0.08-0.07-0.04-0.102c-0.147,0.13-0.221,0.196-0.37,0.321c0.143,0.005-0.095,0.146,0.014,0.157
		c0.074-0.042,0.173-0.035,0.177,0.033c-0.036,0.028-0.032-0.037-0.062-0.04c0.003,0.088-0.135,0.007-0.106,0.118
		c0.068-0.128-0.08-0.11-0.125-0.19c-0.038,0.117-0.045-0.046-0.113,0.044c-0.028,0.126-0.088,0.249-0.132,0.372
		c-0.153,0.085-0.199,0.343-0.258,0.471c-0.07,0.048-0.132-0.043-0.181,0.027c-0.036,0.09,0.12-0.02,0.026,0.092l-0.013-0.023
		c0.001,0.05-0.162,0.218-0.049,0.311l-0.08-0.081c-0.016,0.023-0.003,0.054-0.002,0.08c-0.03-0.011-0.07,0.007-0.077-0.043
		c-0.095,0.058-0.055,0.182-0.081,0.277l0.077-0.041c-0.008,0.176-0.098,0.26-0.12,0.423L10.884,15.1l0.008,0.104
		c-0.05-0.038-0.106,0.038-0.073,0.099l-0.076-0.285c0.053-0.057,0.049,0.096,0.117,0.068c0.058-0.018,0.083-0.167,0.036-0.21
		c-0.023,0.054-0.01,0.06-0.001,0.11c-0.084-0.006-0.058-0.09-0.097-0.15c-0.006,0.03-0.042,0.064-0.019,0.078
		c-0.023-0.07-0.009-0.13,0.022-0.228c0.008,0.076,0.06-0.017,0.072,0.017c-0.066-0.034-0.058-0.135,0.006-0.244
		c0.107-0.05,0.031-0.243,0.115-0.368c0.042,0.087,0.065,0.18,0.061,0.271c0.066-0.067,0.036-0.092,0.105-0.16
		c-0.032-0.06-0.097-0.128-0.08-0.252l0.052,0.022c0.023-0.111-0.047-0.149,0.028-0.267c0.135-0.196,0.261-0.405,0.378-0.544
		l0.047,0.03c-0.038-0.161,0.175-0.288,0.231-0.429c0.197-0.121,0.357-0.382,0.515-0.355c0.321-0.257,0.704-0.406,1.12-0.39
		l-0.066,0.086c0.07-0.062,0.049,0.047,0.12,0.032c-0.084-0.06,0.096-0.094,0.154-0.135c0.184,0.069,0.424,0.04,0.614,0.031
		l-0.007,0.058c0.201-0.047,0.377,0.127,0.55,0.266c0.01,0.037,0.012,0.106,0.067,0.14c0.15-0.003,0.19,0.05,0.357,0.144
		c0.091,0.103,0.203,0.296,0.234,0.434c0.36,0.378,0.396,0.919,0.514,1.404l-0.062,0.043c0.178,0.479-0.016,1.1-0.05,1.496
		l-0.097-0.065c-0.056,0.115-0.045,0.284,0.04,0.275c-0.063,0.112-0.033,0.321-0.145,0.366c-0.058,0.115,0,0.167-0.017,0.273
		c-0.126,0.226-0.146,0.317-0.214,0.546l0.028-0.052c-0.013-0.033-0.055-0.054-0.082-0.002c-0.005,0.096-0.146,0.288,0.005,0.262
		c-0.16,0.204-0.172,0.569-0.363,0.746c0.04-0.001,0.022,0.057,0.032,0.09c-0.089,0.2-0.248,0.379-0.268,0.564
		c-0.034,0.022-0.031-0.08-0.074,0c-0.011,0.053,0.04,0.022,0.031,0.09c-0.09,0.352-0.373,0.611-0.5,0.906
		c-0.197,0.54-0.497,1.049-0.741,1.535l-0.02-0.019c0.003,0.212-0.288,0.324-0.224,0.53c-0.042,0.024-0.087,0.136-0.116,0.082
		c-0.009,0.164-0.249,0.325-0.27,0.554c0.012-0.016,0.012-0.03,0.012-0.054c-0.124,0.111-0.23,0.473-0.423,0.718
		c0.01-0.042,0.034-0.103,0.022-0.135c-0.086,0.051-0.084,0.385-0.183,0.3c-0.032,0.063,0.007,0.124,0.026,0.078
		c-0.1,0.115-0.167,0.372-0.286,0.396l-0.457-0.382c-0.244-0.194-0.524-0.414-0.755-0.6c-0.216-0.3,0.122-0.182-0.148-0.3
		c-0.002-0.032-0.045,0.03-0.03,0.006c-0.102-0.047-0.031-0.227-0.133-0.227c-0.027,0.084-0.063,0-0.097,0.035
		c-0.126-0.187-0.112-0.271-0.279-0.343l0.037-0.023c-0.224-0.05-0.353-0.258-0.567-0.271c-0.827-0.756-1.643-1.452-2.41-2.246
		c-0.691-0.825-1.57-1.542-1.994-2.814c-0.007-0.321-0.003-0.336-0.124-0.657c0.021,0.011,0.029,0.03,0.042,0.004
		c-0.092,0-0.039-0.236-0.126-0.258c-0.027-0.497,0.01-0.988,0.218-1.478c-0.022,0.084,0.03,0.149,0.059,0.057l-0.008-0.118
		l0.03-0.004c0.018-0.066,0.015-0.154-0.043-0.104c0.238-0.61,0.884-1.136,1.482-1.254c0.617-0.16,1.254-0.06,1.796,0.138
		l0.848,0.425c0.64,0.606,1.062,1.179,1.63,1.829C11.02,15.415,10.773,15.455,10.526,15.231"/>
</g>
</svg>
