<svg xmlns="http://www.w3.org/2000/svg" xmlns:xlink="http://www.w3.org/1999/xlink" width="74" height="15" viewBox="0 0 74 15">
    <defs>
        <path id="a" d="M0 .21h5.537V7.5H0z"/>
        <path id="c" d="M.007.147h5.62v7.019H.007z"/>
        <path id="e" d="M.097.334h7.867V8.92H.097z"/>
    </defs>
    <g fill="none" fill-rule="evenodd">
        <g transform="translate(0 6.745)">
            <mask id="b" fill="#fff">
                <use xlink:href="#a"/>
            </mask>
            <path fill="#231F20" d="M1.96 2.494L.62 3.15a.186.186 0 0 1-.249-.085L.019 2.35A.184.184 0 0 1 .104 2.1L3.934.23a.185.185 0 0 1 .248.084l.353.717c.043.088.011.2-.085.248l-1.341.655 2.41 4.903a.191.191 0 0 1-.085.248l-.815.399a.193.193 0 0 1-.248-.085l-2.41-4.903z" mask="url(#b)"/>
        </g>
        <path fill="#231F20" d="M7.016 5.853a.19.19 0 0 1 .114-.235l.856-.3a.186.186 0 0 1 .236.114l.854 2.434 3.002-1.048-.854-2.433a.185.185 0 0 1 .114-.235l.847-.296a.192.192 0 0 1 .236.114l2.133 6.078a.191.191 0 0 1-.114.235l-.847.296a.185.185 0 0 1-.236-.114l-.889-2.534-3.002 1.047.89 2.534a.185.185 0 0 1-.115.236l-.856.299a.192.192 0 0 1-.236-.114L7.016 5.853zM16.033 3.017a.191.191 0 0 1 .136-.223l.882-.214c.094-.023.2.042.223.136l1.528 6.258a.192.192 0 0 1-.136.223l-.882.214a.191.191 0 0 1-.224-.135l-1.527-6.259zM21.346 7.62l.25-.652a.226.226 0 0 1 .316-.12c.053.02.926.461 1.552.36.501-.08.824-.468.757-.882-.08-.49-.55-.758-1.412-.954-.964-.22-1.964-.649-2.149-1.782-.139-.855.336-1.948 1.868-2.195.983-.16 1.816.219 2.032.331.106.042.161.201.11.308l-.278.607c-.058.128-.19.228-.318.17-.085-.036-.896-.398-1.425-.312-.55.088-.789.502-.739.81.074.45.48.7 1.312.892.996.223 2.165.606 2.367 1.845.16.99-.548 2.04-1.906 2.26-1.215.197-2.02-.255-2.242-.406-.101-.072-.157-.112-.095-.28M30.933 6.51l.488-.534c.104-.1.202-.085.293 0 .131.13.333.299.655.288.38-.015.768-.34.744-1.011L32.946.664a.185.185 0 0 1 .178-.191l.917-.034a.185.185 0 0 1 .191.178l.168 4.59c.05 1.35-.83 2.161-1.97 2.203a1.871 1.871 0 0 1-1.508-.656.205.205 0 0 1 .01-.244"/>
        <g transform="translate(37.407 .259)">
            <mask id="d" fill="#fff">
                <use xlink:href="#c"/>
            </mask>
            <path fill="#231F20" d="M.199.323A.192.192 0 0 1 .393.147l.926.042c.107.006.18.097.176.194L1.31 4.357c-.038.826.497 1.503 1.345 1.542.848.04 1.453-.585 1.491-1.4L4.331.514a.185.185 0 0 1 .194-.177l.925.043c.098.005.181.096.177.194l-.189 4.041C5.37 6.093 4.134 7.234 2.595 7.162 1.065 7.092-.058 5.842.01 4.365L.2.323z" mask="url(#d)"/>
        </g>
        <path fill="#231F20" d="M45.448 6.758l.428-.552a.226.226 0 0 1 .338-.024c.044.036.752.709 1.38.793.504.066.925-.212.98-.626.067-.493-.305-.885-1.074-1.321-.86-.487-1.692-1.187-1.54-2.325.115-.859.886-1.768 2.424-1.563.987.13 1.675.732 1.849.903.088.07.096.238.015.326l-.44.5c-.094.106-.249.164-.355.071-.07-.058-.742-.638-1.274-.709-.551-.073-.9.254-.942.563-.06.453.257.81.998 1.232.888.5 1.897 1.204 1.73 2.448-.132.994-1.115 1.796-2.48 1.615-1.218-.162-1.859-.826-2.028-1.035-.075-.099-.117-.153-.009-.296M54.34 3.418l-1.462-.308a.184.184 0 0 1-.143-.22l.166-.78a.185.185 0 0 1 .22-.143l4.173.88a.184.184 0 0 1 .143.22l-.165.78a.186.186 0 0 1-.22.143l-1.461-.308-1.134 5.341a.191.191 0 0 1-.22.143l-.888-.187a.191.191 0 0 1-.142-.22l1.133-5.341zM63.822 4.874a.192.192 0 0 1 .234-.118l.861.283c.094.03.15.14.119.233l-2.016 6.117a.192.192 0 0 1-.234.118l-.861-.282a.191.191 0 0 1-.119-.233l2.016-6.118z"/>
        <g transform="translate(65.868 5.934)">
            <mask id="f" fill="#fff">
                <use xlink:href="#e"/>
            </mask>
            <path fill="#231F20" d="M2.687.438c.038-.09.15-.127.24-.09l.224.096 2.043 5.544.008.004 1.581-3.697a.185.185 0 0 1 .244-.098l.825.352a.19.19 0 0 1 .098.242L5.375 8.816c-.038.089-.15.126-.24.088l-.215-.092L2.924 3.11l-.01-.004-1.645 3.85a.186.186 0 0 1-.243.097L.21 6.704a.191.191 0 0 1-.098-.242L2.687.438z" mask="url(#f)"/>
        </g>
    </g>
</svg>
