<svg xmlns="http://www.w3.org/2000/svg" width="23" height="26" viewBox="0 0 23 26">
    <path fill="#1A1919" fill-rule="evenodd" d="M11.444 7.963c-.613-.682-.597-1.888-1.269-2.586-.067-.086.214-.09.048-.28-.7-.62-1.324-1.82-2.141-2.646l.093-.018c-.157-.164-.48-.124-.671-.225.011-.039.091-.027.07-.101-.11.093-.403-.112-.522-.055-.066-.089-.022-.173-.12-.26l-.169.11c-.418.237-.841-.188-1.346.005.023-.038.074-.062.032-.096-.772.198-1.663.556-2.27 1.167-.005-.061-.037-.161-.114-.175.054.148-.111.353-.242.537-.2-.044-.14.39-.37.537l-.015-.042c.029.255-.23.199-.146.431l-.173.048c.16.174-.22.207-.188.404l.045.014c-.018.155-.143.194-.145.338l-.031.007c-.05.333-.21.492-.034.523-.168.083.009-.327-.231-.197-.097 1.131-.066 2.258.15 3.347-.037.14-.045.229-.102.272.062.098.13.4.234.474-.01-.037-.067.097-.058.154-.009.218.247.155.232.394-.069-.07-.129-.081-.185-.032.182.14.234.388.339.588-.036-.022-.066-.07-.118-.043.217.185.103.442.266.612l-.127-.042c-.009.372.235.028.26.338-.056-.06-.086-.024-.125-.02.258.2.345.65.495.889l-.04.006c.12.275.163.602.356.883.003.128-.243.054-.095.342.182-.084.264.482.412.213.058.272.144.706.276.85-.115-.086-.186.226-.283.014l-.052.214c-.083.007-.037-.18-.113-.086.047.107.242.386.245.493.194.152.48.235.632.542-.133-.115-.176.18-.25.09l.536.286c.05.1-.14.091-.029.218.044-.028.103.025.162.051-.006.054.223.422.058.55-.056.079-.105-.156-.126-.006.08.19.146.171.229.368l-.022.011c.025.142.233.34.275.155-.03-.093-.094.085-.097-.07.143.043.267.252.352.45-.056-.058-.103-.022-.17-.026.256.192.42.445.599.708.088-.032-.209-.03-.178-.1.035.433.499.69.45 1.085-.035-.048.112-.09.09-.075.065.188-.06.24.033.33-.068.05.086.14.164.246.079.035-.022.05-.08-.05.137.134.536.747.603 1.185.043-.034.278.147.315.238l-.132.02c-.033.113.142.289.05.355.223.12-.435-.67-.218-.468-.064.111.336.268.162.288.081.176.286.285.253.507-.002-.06-.22-.069-.146.07.129.242.083.044.212.228l.103.108c.13-.016.044.138.146.024-.078.078.123.126-.036.271l-.127.106c.045.067.178-.027.241-.055-.008.02-.019.068-.041.094.155-.254.057.17.186-.01-.032.335.223-.06.249.138.114-.18.183-.341.293-.357-.019.042-.046.07-.048.138.086.026.096-.06.15-.15-.008.05.181.034.323.035.085-.151-.037-.223-.07-.297.266.094.34-.458.64-.414-.036.067-.158.265.005.219.282.084.182-.363.475-.446l-.173-.112c.176.022.266-.352.365-.172.03-.114.3-.15.163-.291.466-.15.843-.773 1.272-.676.034-.062.184-.138.099-.202-.147-.015-.075.162-.154.127.045-.042.027-.092.013-.119.142-.049.24-.111.226.1.324-.1.066-.467.433-.664.037.075.077.081.17-.005l.092-.251c.226-.137.226.053.313.16.098-.105.239-.21.228-.334l.239.027c-.172-.018.041-.139.071-.205l-.03.066c.056.028.16-.103.22-.165-.068-.054-.22.02-.31.06.025-.092.123-.152.155-.27.052.126.233-.069.334-.13.12-.06.038-.188.073-.208.046.056.172-.118.153.021-.02.044-.118.01-.143.102.103-.013.166.089.25-.09.064-.14-.184-.191.06-.284-.031.07-.011.12-.017.19l.22-.093-.064-.103c.045 0 .056.028.056.028-.026-.148.254-.26.21-.41.086-.082.246-.091.34-.156l-.01.023c.155-.029.267-.19.302-.327l.014.026a.633.633 0 0 0 .219-.293c.202-.051.332.317.398.06.149-.13.096-.37-.014-.38.32-.162.49-.58.853-.65.006-.07-.038-.073.02-.165.408-.31.707-.827 1.15-.94-.073.138.074.097.124.15.015-.169.184-.023.09-.189-.083-.07-.108-.122-.243-.055.181-.247.502-.572.687-.623-.092.022-.073-.047-.05-.117.107.143.282-.001.356-.167l-.06-.088.15-.007c.02-.071-.116-.206.072-.262.033.027.071.05.115.043.054-.186.11-.457.288-.546l.212-.015c.037-.07.047-.234-.072-.16.273-.177.397-.335.563-.335.08-.64.426-1.24.676-1.788l.07.047c.133-.119-.1-.128-.008-.211.054.077.2-.06.238.097.161-.195-.014-.332-.007-.482-.09-.055.028.136-.088.064-.03-.034.174-.278.033-.355.077-.034.173.038.226.086l-.036-.156c.235-.126.205.473.471.361l.02-.142c.2-.085.066.41.228.084-.032-.171-.227-.353-.323-.239.028-.307-.327-.225-.25-.525.109-.067-.027.251.108.217.166-.125-.016-.31.057-.428-.086.134-.224-.01-.237-.102.098-.143.138.118.184-.099-.09-.046-.146-.242-.22-.083-.204-.085.08-.21-.077-.33.149-.067.329.226.408-.01-.137.033-.19-.283-.4-.152.04-.089.151-.107.238-.045.093-.145-.272-.278 0-.352l-.146-.024c.044-.054.073-.094.143-.182-.026-.115-.27-.282-.057-.339-.02-.032-.106-.254-.21-.114-.034.157.152.124-.023.262.144-.152-.073-.195-.152-.242l.072-.045c-.046-.032-.067-.14-.158-.126.051.013.105-.03.105-.075l-.143.02c-.145-.128.176-.153.055-.302l.152.08c-.026-.018.043-.141-.039-.207l-.366.1c-.105-.046.076-.12-.08-.121l.192.017c.046-.009.1-.198.002-.324-.098-.044-.323-.017-.265.127-.053-.04-.075-.17.023-.19-.144-.088-.068.105-.218.065.02-.11-.065-.301-.095-.471l.25-.06-.09-.07c.216-.043.01-.143.178-.232-.053-.073-.165-.082-.254-.095.046.358-.414.177-.482.437-.291-.068.115-.642-.354-.419.02.08-.195.195.014.199-.168-.096-.216.185-.384.006.193-.032-.08-.301.205-.346-.045.069.106.106.152.1-.038-.12.116-.223-.083-.3-.126-.024-.292-.086-.307.044-.046.136.18.056.055.163-.237-.043-.216-.23-.37-.017.14.012.128.158.096.25l-.162.026.052-.086c-.221-.123-.111.154-.327.07l-.076-.2c.084-.163.325.151.343-.12-.163-.042-.233.045-.378-.014.052-.02.074-.026.127-.047-.056-.016-.081-.355-.351-.165-.13.07-.035.091-.045.184-.26.003-.338.158-.501.18.016-.191-.301.017-.135-.197.104.112.476.017.576-.13-.093-.231.213.04.295-.183-.231-.017-.212-.24-.246-.387-.072-.012-.143.045-.18.067-.03.135.06.137.063.28a.771.771 0 0 0-.634.241c-.095-.042-.094-.193.008-.218-.378.115-.57.175-.945.283.26.125-.297.187-.104.297.172-.015.35.079.301.205-.09.022-.03-.093-.082-.122-.067.162-.255-.099-.293.127.23-.179-.057-.268-.076-.448-.166.18-.045-.124-.245-.015-.154.207-.366.382-.547.57-.352.03-.647.464-.86.65-.168.029-.21-.188-.358-.1-.14.136.238.061-.027.189l-.005-.053c-.038.093-.476.265-.343.528l-.082-.214c-.05.028-.05.096-.07.144-.047-.045-.135-.046-.107-.143-.223.028-.25.288-.375.44l.176-.01c-.157.314-.393.395-.565.674l-.084-.088-.07.197c-.062-.11-.228-.019-.216.12l.092-.584c.144-.06.012.216.16.222.123.013.291-.237.238-.355-.086.08-.068.103-.092.201-.15-.08-.033-.213-.055-.356-.037.052-.131.084-.1.128.014-.145.09-.245.225-.397-.047.145.124.017.12.089-.093-.116.003-.295.21-.44.239-.005.255-.418.512-.58a1.13 1.13 0 0 1-.107.548c.176-.07.14-.138.324-.205-.01-.137-.076-.315.058-.527l.078.082c.133-.184.033-.311.269-.463.409-.247.812-.526 1.141-.684l.064.093c.06-.326.557-.382.776-.592.463-.06.972-.405 1.242-.225.803-.205 1.632-.161 2.388.21l-.19.103c.181-.056.052.126.194.157-.104-.18.256-.093.396-.12.286.278.753.424 1.112.564l-.061.1c.411.08.595.543.802.94-.013.074-.064.202.01.309.281.119.31.25.544.558.085.263.134.708.08.985.359.989-.014 2.006-.19 2.99l-.152.027c-.059 1.021-.923 1.997-1.307 2.693l-.128-.199c-.198.163-.314.482-.15.534-.207.153-.323.56-.566.55-.2.162-.136.306-.253.485-.416.308-.529.46-.84.82l.093-.07c.004-.072-.058-.144-.15-.073-.087.171-.504.406-.203.484-.463.24-.781.897-1.28 1.063.075.03-.005.122-.014.192-.326.292-.766.487-.955.809-.079.012.008-.172-.135-.06-.064.086.056.072-.015.188-.456.569-1.19.81-1.662 1.245-.806.825-1.775 1.505-2.622 2.193l-.02-.05c-.168.39-.799.354-.847.783-.099.01-.273.177-.281.055-.15.291-.725.387-.95.79.035-.02.046-.045.065-.09-.32.1-.812.675-1.367.963.053-.068.147-.16.15-.229-.2.023-.468.635-.581.398-.111.09-.09.232-.017.164-.278.128-.61.542-.852.488-.164-.334-.34-.681-.534-1.076-.294-.554-.633-1.187-.91-1.715-.154-.729.374-.233-.03-.67.022-.061-.106.015-.058-.015-.152-.17.125-.44-.063-.524-.118.13-.116-.052-.21-.017-.08-.446.015-.588-.235-.856l.087-.012c-.375-.276-.443-.762-.829-.963-.916-2.062-1.86-4.006-2.635-6.09-.608-2.076-1.649-4.11-1.4-6.784.249-.593.268-.617.305-1.301.03.036.028.077.073.04-.169-.074.121-.463-.023-.574.355-.931.823-1.797 1.607-2.522-.109.135-.067.296.063.153l.081-.221.058.017c.087-.107.154-.27.006-.226C3.417.966 5.041.535 6.243.813c1.274.215 2.37.922 3.212 1.732.5.601.835 1.008 1.224 1.477.693 1.634 1.006 3.027 1.53 4.684 0 0-.49-.133-.765-.743"/>
</svg>
