<svg xmlns="http://www.w3.org/2000/svg" xmlns:xlink="http://www.w3.org/1999/xlink" width="116" height="88" viewBox="0 0 116 88">
    <defs>
        <path id="a" d="M0 0h60v59.2H0z"/>
        <path id="c" d="M.095.402h8.517V22.86H.095z"/>
        <path id="e" d="M0 .182h6.738V22H0z"/>
    </defs>
    <g fill="none" fill-rule="evenodd">
        <g transform="rotate(22 21.29 50.806)">
            <mask id="b" fill="#fff">
                <use xlink:href="#a"/>
            </mask>
            <path fill="#000" d="M6.092 3.81c-.053-.018-.114-.06-.158-.043-.036.014-.05.098-.074.15.044.017.103.063.13.045.044-.03.07-.1.102-.153zm30.883 37.453c.29-.032.704-.119.857-.608.272-.868.217-1.724-.194-2.54-.193-.384-.407-.405-.727-.177-.607.432-1.242.816-1.848 1.25-.097.07-.18.33-.142.446.262.78 1.171 1.649 2.054 1.629zm15.29-7.921c0 .226-.009.452.004.677.006.105.054.208.083.31.117-.043.268-.05.348-.138.813-.905 1.657-1.78 2.404-2.753.44-.572.88-1.215.785-2.1-.044-.406-.222-.567-.516-.452-.368.144-.702.397-1.058.586-1.445.772-2.019 2.135-2.05 3.87zM.017 18.757c0-.757.014-1.516-.004-2.273-.028-1.22.233-2.373.553-3.525.693-2.493 1.756-4.776 3.1-6.878 1.856-2.903 4.322-4.833 7.39-5.796 1.565-.492 3.083-.274 4.613.104 1.855.46 3.454 1.565 4.934 2.82 1.536 1.303 2.506 3.162 3.14 5.217.38 1.233.763 2.47 1.044 3.735.225 1.01.34 2.058.427 3.097.067.79.063 1.596 0 2.385-.086 1.074-.187 2.158-.411 3.201-.29 1.346-.692 2.662-1.083 3.976-.136.457-.417.855-.581 1.304-.687 1.877-1.624 3.59-2.652 5.24-1.029 1.652-2.21 3.133-3.516 4.529-.985 1.052-1.952 2.097-3.07 2.959-.133.103-.29.176-.405.3-.099.108-.197.266-.208.41-.005.077.176.249.27.247.842-.014 1.401.642 1.985 1.145 1.314 1.133 2.502 2.463 3.857 3.522 1.106.865 2.379 1.452 3.578 2.162 1.05-.164 2.044.5 3.148.14.753-.245 1.566-.256 2.256-.764.297-.219.619-.403.885-.66 1.631-1.577 2.944-3.433 3.58-5.783.21-.77.183-1.634.193-2.455.007-.511.142-.89.514-1.14.157-.107.426-.246.525-.17.447.342.818.14 1.199-.105.44-.284.912-.26 1.347-.074.772.33 1.42.205 2.093-.354.612-.509 1.313-.885 1.985-1.297.955-.584 2.13-.32 2.86.62.109.14.21.29.326.422.533.609.872 1.307.851 2.197-.015.68-.022 1.362.01 2.04.026.543.239.625.654.358.42-.269.855-.517 1.3-.73 1.288-.619 2.444-1.484 3.548-2.441.304-.263.71-.336.913-.818.187-.444.314-.84.111-1.28-.327-.71-.214-1.355.088-2.042.353-.804.511-1.75.966-2.46.747-1.167 1.504-2.41 2.943-2.664.37-.064.642.014.925.247.797.653.965 1.579.618 2.656-.612 1.906-1.83 3.263-3.077 4.607-.215.232-.45.44-.676.659-.203.197-.17.37.03.55.616.557 1.217 1.127 2.094 1.02.727-.09 1.465-.086 2.187-.206.567-.095 1.053-.445 1.437-.946.152-.198.27-.498.46-.576.21-.085.483.03.729.058-.057.192-.104.39-.176.573-.04.1-.146.167-.182.267-.528 1.473-1.7 2.08-2.893 2.221-1.496.176-3.084.147-4.257-1.295-.297-.365-.551-.438-.933-.095-.697.627-1.42 1.22-2.168 1.765a29.86 29.86 0 0 1-2.633 1.732c-.318.184-.696.21-.904.613-.041.08-.164.12-.256.152-.816.289-1.633.575-2.452.855-.19.065-.384.136-.579.151-.415.033-.925-.277-.861-.553.086-.373.288-.965.502-1.002 1.008-.175 1.412-.946 1.62-1.897.205-.938-.16-1.779-.592-2.544-.736-1.307-1.935-1.469-2.998-.46-.25.236-.514.462-.794.649-.727.487-.8.767-.576 1.6.286 1.059.235 2.083-.103 3.177-.408 1.32-1.161 1.56-2.224 1.48-.928-.072-1.573-.685-2.225-1.31-.147-.141-.225-.372-.354-.543-.177-.238-.346-.143-.493.054-.042.058-.092.123-.103.192-.187 1.228-.984 2.091-1.463 3.144-.143.313-.407.558-.628.82-1.573 1.87-3.414 2.96-5.767 3.13-2.17.156-3.967-.707-5.74-1.883-1.578-1.047-2.782-2.614-4.203-3.872-1.415-1.252-2.993-2.009-4.877-1.283-1.193.459-1.635-.092-1.339-1.486.072-.336.23-.425.489-.423.634.003 1.268-.006 1.902.012.417.012.762-.109 1.098-.423.658-.615 1.389-1.133 2.038-1.76a27.144 27.144 0 0 0 1.932-2.1c1.138-1.36 2.166-2.818 3.133-4.35 1.223-1.936 2.28-3.96 3.007-6.18.481-1.47.891-2.97 1.165-4.526.213-1.207.261-2.397.246-3.604-.025-1.92-.2-3.807-.883-5.602-.489-1.287-.797-2.64-1.495-3.85-1.065-1.843-2.318-3.336-4.187-4.094-.834-.337-1.608-.876-2.452-1.16-.686-.231-1.446-.364-2.154-.289-2.183.232-4.215 1.027-5.984 2.54-1.962 1.68-3.423 3.838-4.551 6.301-.077.168-.133.35-.227.505-.613 1.012-.745 2.204-1.004 3.355a23.228 23.228 0 0 0-.446 7.487c.034.333.144.656.178.99.115 1.084.196 2.172.318 3.256.103.92.212 1.841.374 2.75.259 1.46.545 2.915.856 4.362.185.863.447 1.705.66 2.56.488 1.939.965 3.882 1.451 5.82.23.918.49 1.826.706 2.747.185.784.328 1.58.485 2.372.021.11 0 .231.027.338.363 1.395.849 2.766 1.058 4.19.156 1.055.593 1.978.77 3.005.187 1.08.676 2.031 1.14 2.981.276.566.331 1.343 1.066 1.522.072.017.146.341.115.496-.028.14-.191.331-.309.345-.487.058-.898.076-1.322-.474-.397-.517-.944-.93-1.103-1.606-.244-1.039-.71-1.987-.834-3.083-.122-1.073-.439-2.118-.647-3.18-.197-1.012-.367-2.032-.542-3.049-.026-.147.01-.31-.026-.452-.547-2.16-1.11-4.315-1.65-6.477-.261-1.04-.473-2.097-.73-3.139-.298-1.217-.644-2.42-.928-3.642-.319-1.373-.59-2.76-.884-4.14-.04-.181-.103-.358-.13-.542-.25-1.74-.496-3.481-.737-5.223-.026-.186-.008-.379-.029-.566-.094-.819-.233-1.634-.284-2.455-.05-.792-.01-1.591-.01-2.387h.002z" mask="url(#b)"/>
        </g>
        <path fill="#000" d="M80.963 78.912c-.15.37-.257.524-.265.676-.024.47-.151.98.247 1.335.4.356.847.263 1.27-.002.8-.504 1.533-1.134 2.027-1.972.317-.537.703-1.083.73-1.775.028-.679-.245-1.027-.843-.822-.465.159-.873.565-1.34.713-1.013.321-1.405 1.246-1.826 1.847m15.755-8.399c-.082.477-.171.953-.244 1.43-.165 1.083-.33 2.166-.477 3.251-.048.351-.601.78-.047 1.042.45.212.497-.395.723-.634 1.232-1.302 2.131-2.864 2.937-4.455.296-.585.226-1.414.182-2.111-.033-.501-.66-.813-1.012-.537-.733.576-1.665.96-2.062 2.014m3.402 1.758c-.272 1.398-1.316 2.662-2.422 3.865-.51.555-.989 1.151-1.511 1.693-.597.618-.824 1.675-1.137 2.566-.157.447-.152.95-.209 1.427-.007.06.047.155.097.177.052.024.166.005.199-.039.266-.363.57-.71.77-1.11.636-1.281 1.71-2.062 2.8-2.772 1.12-.731 2.235-.204 2.635.684.354.785.764 1.548 1.026 2.373.424 1.33 1.86 1.95 2.962.799.155-.162.38-.28.589-.343.459-.139.616.072.472.586-.588 2.098-2.467 2.78-4.027 1.5-.6-.492-1.04-1.025-1.26-1.85-.201-.75-.602-1.438-.99-2.1-.355-.605-.66-.618-1.18-.076a98.343 98.343 0 0 0-2.68 2.933c-.17.194-.253.48-.365.73-.081.181-.096.438-.223.546-.439.372-.807 1.073-1.455.81-.533-.217-.644-.875-.642-1.42.004-.88-.153-1.779.262-2.66.11-.233.065-.555.043-.829-.004-.058-.265-.16-.329-.113-1.398 1.036-2.987 1.613-4.48 2.419-.522.282-1.025.35-1.538.21-.822-.226-1.704-.345-2.208-1.204-.198-.336-.457-.131-.69.038-.48.352-.94.75-1.445 1.048a8.32 8.32 0 0 1-1.493.67c-1.075.377-2.1-.19-2.37-1.316-.188-.786-.236-1.588.142-2.393.262-.562.495-1.14.73-1.715.119-.288.082-.49-.27-.398-1.46.381-2.938.629-4.382 1.137-.491.173-.715.412-.863.867-.488 1.493-.73 3.027-.893 4.57-.046.429-.09.806-.475 1.064-.53.356-.98.21-.967-.411.018-.824-.338-1.744.497-2.448.052-.044.098-.164.082-.226-.244-.927.118-1.84.244-2.752.068-.483-.12-.662-.47-.793-.388-.145-.787-.273-1.146-.474-.57-.32-.658-.629-.468-1.3.172-.608.437-.693.904-.365.426.299.888.544 1.345.792.28.153.631.058.613-.283-.059-1.148.615-2.123.763-3.218.102-.762.535-1.232.968-1.194.556.05 1.005.858.808 1.584-.15.555-.406 1.084-.613 1.626-.118.31-.264.614-.34.933-.04.172.042.37.068.555.14-.038.279-.08.42-.113.81-.187 1.62-.386 2.434-.553.792-.161 1.593-.252 2.38-.443.629-.153 1.245-.332 1.833-.731 1.283-.87 2.642-.781 3.693.17.163.146.198.474.25.731.05.258.004.55.075.797.214.742.233 1.423-.12 2.215-.471 1.054.27 2.055 1.357 1.93 1.108-.126 2.16-.573 3.187-1.053.91-.425 1.77-.99 2.67-1.449.376-.191.627-.456.527-.85-.274-1.08.284-2.085.39-3.13.211-2.1 1.09-4.041 1.965-5.957.601-1.314 1.95-1.996 3.052-1.604 1.044.372 1.76 2.053 1.354 3.28-.233.705-.55 1.383-.945 2.36M14.318 79.556c.008.09-.034.429.08.675.183.39.531.324.907.176.984-.39 1.498-1.38 2.266-2.04.788-.675.669-1.576.752-2.43.007-.073-.215-.244-.3-.218-.878.265-1.754.627-2.344 1.42-.492.664-.83 1.456-1.361 2.417m-1.153-.78c.205-.66.614-1.3 1.205-1.873.705-.683 1.3-1.498 1.967-2.231.334-.368.693-.732 1.09-1.006.789-.544 1.495-.398 2.038.328.132.178.27.364.444.484.554.381.772.933.606 1.608-.16.65-.305 1.3-.47 1.948-.235.92.18 1.585.638 2.21.102.141.452.225.596.14.507-.304 1.01-.564 1.414-1.125.893-1.241 1.895-2.4 2.906-3.537.518-.58 1.266-.315 1.56.402.298.728.238 1.501.234 2.279-.002.525.008 1.058.092 1.566.091.556.415.602.787.122.766-.985 1.51-1.987 2.258-2.988a5.876 5.876 0 0 1 2.167-1.781c1.604-.785 2.875.143 2.533 1.983-.2 1.08.252 1.822.557 2.659.188.518.665.44 1.094.26.395-.167.774-.384 1.17-.55.102-.042.323-.014.345.049.057.165.111.463.031.54-.586.561-1.183 1.117-1.822 1.601-.389.296-1.107.107-1.457-.362-.673-.902-1.245-1.87-1.232-3.139a8.382 8.382 0 0 0-.07-1.214c-.074-.538-.56-.828-1.009-.55a3.68 3.68 0 0 0-.975.914 148.115 148.115 0 0 0-2.674 3.748c-.297.427-.513.918-.815 1.34-.646.908-.984.808-1.457-.1-.593-1.143-.837-2.366-.9-3.677a3.467 3.467 0 0 0-.153-.839c-.083-.274-.26-.385-.516-.135-.175.17-.43.309-.512.516-.415 1.038-1.189 1.795-1.871 2.598-.458.538-1.125 1.105-1.73 1.202-.556.089-1.159-.429-1.732-.698-.09-.043-.13-.192-.197-.29-.29-.44-.581-.877-.872-1.314-.442.366-.876.744-1.328 1.094-.414.32-.83.65-1.278.902-.758.427-1.493.374-2.215-.024-.775-.427-1.118-1.327-.78-2.234.09-.239.19-.473.333-.826M56.887 70.334l.777-1.92c.128-.316.338-.424.64-.321.306.104.305.303.28.636-.066.897-.336 1.705-.67 2.547-.425 1.08-.675 2.235-.93 3.372a17.282 17.282 0 0 0-.41 2.68c-.075 1.19-.062 2.382-.026 3.567.009.267.214.635.427.73.277.124.646.066.886-.333.138-.232.386-.39.576-.59.46-.487.966-.938 1.363-1.477.776-1.051 1.768-1.918 2.34-3.151.23-.495.73-.855.981-1.344.629-1.224 1.192-2.483 1.767-3.735.4-.868.765-1.753 1.168-2.62.19-.407.96-.492 1.12-.104.12.292.165.69.086 1.005-.126.505-.304 1.042-.6 1.456-1.102 1.546-1.27 3.35-1.482 5.098-.154 1.273-.066 2.592.1 3.85.19 1.431 1.272 1.788 2.78 1.356.513-.147 1.007-.386 1.513-.567.318-.113.432.037.299.353-.091.216-.202.492-.374.593-1.012.597-2.045 1.063-3.224 1.038-.681-.013-1.168-.324-1.51-.805-.394-.555-.842-1.14-.747-1.96.02-.16.05-.334.01-.478-.237-.843-.514-1.67-.049-2.585.079-.155.02-.398-.011-.59-.016-.1-.11-.181-.17-.27-.057.054-.125.1-.168.164-.607.889-1.212 1.779-1.815 2.67-.643.95-1.273 1.909-1.935 2.843-.128.182-.368.302-.576.391-.535.23-1.028.467-1.412 1.001-.36.499-.902.602-1.446.397-.55-.207-.954-.57-1.06-1.218-.126-.773-.253-1.548-.35-2.33-.039-.309-.039-.639.01-.953.32-2.083.614-4.17 1.013-6.241.142-.738.555-1.434.843-2.15-.004 0-.009-.003-.014-.005"/>
        <g transform="rotate(22 -111.084 319.911)">
            <mask id="d" fill="#fff">
                <use xlink:href="#c"/>
            </mask>
            <path fill="#000" d="M8.582 11.468c-.17 3.47-.718 6.096-1.986 8.538-.363.699-.622 1.458-.903 2.2-.169.448-.557.728-.977.638-.388-.084-.673-.664-.488-1.154.279-.737.549-1.497.957-2.155 1.473-2.375 1.946-4.968 1.996-7.774.036-2.06-.658-3.814-1.614-5.41-.795-1.329-1.982-2.437-3.274-3.32-.342-.235-.768-.361-1.172-.467A1.368 1.368 0 0 1 .197.713C.356.308.707.36.975.519c.736.435 1.486.863 2.16 1.394C4.564 3.039 5.844 4.345 6.86 5.896a8.19 8.19 0 0 1 .903 1.932c.458 1.406.98 2.814.818 3.64" mask="url(#d)"/>
        </g>
        <g transform="rotate(22 -157.65 50.679)">
            <mask id="f" fill="#fff">
                <use xlink:href="#e"/>
            </mask>
            <path fill="#000" d="M4.024 20.7c.852.122 1.582-.34 2.318-.786.114-.069.25-.09.375-.132-.004.19.062.474-.022.553-.498.465-.984 1.007-1.562 1.288-.872.423-1.807.559-2.735.045-.542-.3-.99-.675-1.222-1.325-.365-1.02-.882-2.01-1.051-3.07-.189-1.187-.128-2.443-.052-3.66.09-1.466.216-2.946.495-4.378.404-2.074.947-4.114 1.456-6.162.194-.781.332-1.575.804-2.265.343-.501.704-.706 1.201-.597.416.092.827.25 1.214.446.115.059.228.371.19.516-.05.193-.254.483-.383.477-.803-.035-1.22.574-1.503 1.234-.413.967-1.05 1.84-1.085 2.994-.006.19-.154.368-.193.562-.102.513-.443.893-.245 1.583.161.56-.234 1.313-.342 1.99-.302 1.904-.697 3.813-.49 5.758.118 1.125.39 2.238.677 3.329.318 1.205.962 1.64 2.155 1.6" mask="url(#f)"/>
        </g>
        <path fill="#000" d="M41.787 79.969c-.005-.004.091.043.167.114.565.52 1.123-.15 1.684-.105.033-.367.07-.735.097-1.102.012-.155.014-.312.005-.465-.014-.214.03-.54-.08-.615-.259-.178-.634-.395-.893-.31a2.912 2.912 0 0 0-1.824 1.676c-.152.36-.056.616.301.717.14.039.288.049.543.09m4.376-8.048c-.266 1.428-.554 2.854-.788 4.285-.113.693-.149 1.398-.17 2.096-.01.3.053.625.171.89.32.722.073 1.359-.301 1.982-.188.312-.552.477-.771.245-.564-.596-1.158-.2-1.622.074-.815.48-1.452.008-2.101-.189-.386-.117-.758-.617-.914-1.046-.27-.745-.108-1.542.335-2.252.102-.164.318-.26.396-.428.69-1.484 1.944-1.947 3.303-2.064.562-.048.623-.252.608-.706-.041-1.343.118-2.665.696-3.916a3.53 3.53 0 0 1 .663-.96c.52-.533 1.008-.392 1.025.329.014.556-.185 1.131-.29 1.698l-.24-.038"/>
    </g>
</svg>
