<svg xmlns="http://www.w3.org/2000/svg" xmlns:xlink="http://www.w3.org/1999/xlink" width="121" height="43" viewBox="0 0 121 43">
    <defs>
        <path id="a" d="M0 0h121v43H0z"/>
        <path id="c" d="M0 .21h5.537V7.5H0z"/>
        <path id="e" d="M.007.147h5.62v7.019H.007z"/>
        <path id="g" d="M.097.334h7.867V8.92H.097z"/>
    </defs>
    <g fill="none" fill-rule="evenodd">
        <mask id="b" fill="#fff">
            <use xlink:href="#a"/>
        </mask>
        <path fill="#000" d="M98.689 36.508c2.518-.244 4.847-.781 6.938-2.085l.091-.558-7.392-2.799.363 5.442m9.468-11.75c-.217 2.77-.437 5.253-.599 7.74-.096 1.482-.782 2.398-2.245 2.83-1.56.462-3.087 1.038-4.627 1.565l.01.369 14.3 4.793c-.14-1.848-.345-3.605-.37-5.366-.007-.57.313-1.291.73-1.693 1.309-1.264 2.735-2.41 4.408-3.856-3.897-2.143-7.636-4.2-11.607-6.382M21.531 37.343a68.905 68.905 0 0 0-.068-.415c-1.678-.574-3.358-1.142-5.034-1.722-1.225-.424-1.962-1.06-2.017-2.57-.078-2.174-.493-4.342-.842-6.5-.17-1.057-.77-1.555-1.904-1.006-2.029.983-4.152 1.804-6.082 2.947-1.52.899-2.87 2.113-4.18 3.31-1.188 1.086-.946 1.835.638 2.265 1.01.274 2.052.442 3.085.634 1.877.349 3.757.68 5.714 1.032-1.117 1.65-2.13 3.04-3.012 4.507-.314.522-.314 1.23-.457 1.854.601.06 1.277.33 1.793.149 4.138-1.447 8.248-2.979 12.366-4.485m-.33-5.695c28.702-11.665 57.157-10.206 85.484 2.29.17-1.382.412-2.556.437-3.734.074-3.276.482-6.62-.02-9.818-.865-5.504-4.989-8.613-9.818-10.586-4.851-1.984-9.863-3.617-14.882-5.157C70.88 1.103 59.167-.401 47.17 1.953 36.916 3.963 26.754 6.18 17.89 12.16c-2.685 1.81-4.58 3.795-3.983 7.292.166.968-.02 1.989.076 2.973.372 3.762.793 7.52 1.212 11.436l2.91-1.172.072.178-1.827 1.374-.02.51 6.983 2.026c.094-1.157.126-1.936.226-2.706.346-2.66.314-2.702-2.302-2.398-.036.003-.08-.063-.036-.026m3.13-.874c-.144 2.138-.198 4.052-.454 5.938-.067.493-.688 1.174-1.181 1.308-3.813 1.034-7.594 2.087-11.061 4.082-.998.575-2.285.833-3.457.893-1.69.087-2.316-.953-1.561-2.45.676-1.341 1.522-2.597 2.248-3.815-2.348-.829-4.648-1.529-6.856-2.446-2.414-1.002-2.622-2.098-.783-3.981 2.594-2.654 5.978-4.046 9.37-5.333 2.34-.888 2.704-1.224 2.695-3.723-.007-1.514-.056-3.03-.014-4.541.061-2.202 1.087-3.806 3-4.998 7.118-4.434 15.017-6.917 22.926-9.516C46.663-.26 54.205-.09 61.85.097c8.406.207 16.471 2.172 24.475 4.4 5.74 1.598 11.118 4.187 16.249 7.177 3.875 2.256 5.34 6.048 5.626 10.3.08 1.182.452 1.951 1.44 2.54 2.973 1.776 5.926 3.583 8.894 5.367.669.401 1.364.757 2.466 1.365-1.6 1.338-2.957 2.586-4.438 3.667-.843.615-1.302 1.216-1.252 2.295.082 1.765.023 3.535.023 5.628-.898-.168-1.859-.246-2.753-.53a615.484 615.484 0 0 1-13.309-4.376c-.49-.168-1.062-.826-1.14-1.327-.266-1.738-.33-3.508-.505-5.685-5.943-1.652-12.116-3.54-18.38-5.06-5.389-1.306-10.944-1.253-16.481-1.403-10.177-.276-20.012 1.487-29.75 4.15-2.276.622-4.613 1.024-6.912 1.567-.702.165-1.371.463-1.773.602" mask="url(#b)"/>
        <g mask="url(#b)">
            <g transform="translate(23 15.745)">
                <mask id="d" fill="#fff">
                    <use xlink:href="#c"/>
                </mask>
                <path fill="#231F20" d="M1.96 2.494L.62 3.15a.186.186 0 0 1-.249-.085L.019 2.35A.184.184 0 0 1 .104 2.1L3.934.23a.185.185 0 0 1 .248.084l.353.717c.043.088.011.2-.085.248l-1.341.655 2.41 4.903a.191.191 0 0 1-.085.248l-.815.399a.193.193 0 0 1-.248-.085l-2.41-4.903z" mask="url(#d)"/>
            </g>
            <path fill="#231F20" d="M30.016 14.853a.19.19 0 0 1 .114-.235l.856-.3a.186.186 0 0 1 .236.114l.854 2.434 3.002-1.048-.854-2.433a.185.185 0 0 1 .114-.235l.847-.296a.192.192 0 0 1 .236.114l2.133 6.078a.191.191 0 0 1-.114.235l-.847.296a.185.185 0 0 1-.236-.114l-.889-2.534-3.002 1.047.89 2.534a.185.185 0 0 1-.115.236l-.856.299a.192.192 0 0 1-.236-.114l-2.133-6.078zM39.033 12.017a.191.191 0 0 1 .136-.223l.882-.214c.094-.023.2.042.223.136l1.528 6.258a.192.192 0 0 1-.136.223l-.882.214a.191.191 0 0 1-.224-.135l-1.527-6.259zM44.346 16.62l.25-.652a.226.226 0 0 1 .316-.12c.053.02.926.461 1.552.36.501-.08.824-.468.757-.882-.08-.49-.55-.758-1.412-.954-.964-.22-1.964-.649-2.149-1.782-.139-.855.336-1.948 1.868-2.195.983-.16 1.816.219 2.032.331.106.042.161.201.11.308l-.278.607c-.058.128-.19.228-.318.17-.085-.036-.896-.398-1.425-.312-.55.088-.789.502-.739.81.074.45.48.7 1.312.892.996.223 2.165.606 2.367 1.845.16.99-.548 2.04-1.906 2.26-1.215.197-2.02-.255-2.242-.406-.101-.072-.157-.112-.095-.28M53.933 15.51l.488-.534c.104-.1.202-.085.293 0 .131.13.333.299.655.288.38-.015.768-.34.744-1.011l-.167-4.589a.185.185 0 0 1 .178-.191l.917-.034a.185.185 0 0 1 .191.178l.168 4.59c.05 1.35-.83 2.161-1.97 2.203a1.871 1.871 0 0 1-1.508-.656.205.205 0 0 1 .01-.244"/>
            <g transform="translate(60.407 9.259)">
                <mask id="f" fill="#fff">
                    <use xlink:href="#e"/>
                </mask>
                <path fill="#231F20" d="M.199.323A.192.192 0 0 1 .393.147l.926.042c.107.006.18.097.176.194L1.31 4.357c-.038.826.497 1.503 1.345 1.542.848.04 1.453-.585 1.491-1.4L4.331.514a.185.185 0 0 1 .194-.177l.925.043c.098.005.181.096.177.194l-.189 4.041C5.37 6.093 4.134 7.234 2.595 7.162 1.065 7.092-.058 5.842.01 4.365L.2.323z" mask="url(#f)"/>
            </g>
            <path fill="#231F20" d="M68.448 15.758l.428-.552a.226.226 0 0 1 .338-.024c.044.036.752.709 1.38.793.504.066.925-.212.98-.626.067-.493-.305-.885-1.074-1.321-.86-.488-1.692-1.187-1.54-2.325.115-.859.886-1.768 2.424-1.563.987.13 1.675.732 1.849.903.088.07.096.238.015.326l-.44.5c-.094.106-.249.164-.355.071-.07-.058-.742-.638-1.274-.709-.551-.073-.9.254-.942.563-.06.453.257.81.998 1.232.888.5 1.897 1.204 1.73 2.448-.132.994-1.115 1.796-2.48 1.615-1.218-.162-1.859-.826-2.028-1.035-.075-.098-.117-.153-.009-.296M77.34 12.418l-1.462-.308a.184.184 0 0 1-.143-.22l.166-.78a.185.185 0 0 1 .22-.143l4.173.88a.184.184 0 0 1 .143.22l-.165.78a.186.186 0 0 1-.22.143l-1.461-.308-1.134 5.341a.191.191 0 0 1-.22.143l-.888-.187a.191.191 0 0 1-.142-.22l1.133-5.341zM86.822 13.874a.192.192 0 0 1 .234-.118l.861.283c.094.03.15.14.119.233l-2.016 6.117a.192.192 0 0 1-.234.118l-.861-.282a.191.191 0 0 1-.119-.233l2.016-6.118z"/>
            <g transform="translate(88.868 14.934)">
                <mask id="h" fill="#fff">
                    <use xlink:href="#g"/>
                </mask>
                <path fill="#231F20" d="M2.687.438c.038-.09.15-.127.24-.09l.224.096 2.043 5.544.008.004 1.581-3.697a.185.185 0 0 1 .244-.098l.825.352a.19.19 0 0 1 .098.242L5.375 8.816c-.038.089-.15.126-.24.088l-.215-.092L2.924 3.11l-.01-.004-1.645 3.85a.186.186 0 0 1-.243.097L.21 6.704a.191.191 0 0 1-.098-.242L2.687.438z" mask="url(#h)"/>
            </g>
        </g>
    </g>
</svg>
