<svg xmlns="http://www.w3.org/2000/svg" width="14" height="15" viewBox="0 0 14 15">
    <path fill="#1A1919" fill-rule="evenodd" d="M6.813 3.785c-.468-.26-.688-.928-1.191-1.185-.054-.035.1-.091-.027-.164-.504-.209-1.076-.753-1.684-1.053l.048-.027c-.118-.061-.288.022-.413.003 0-.024.046-.032.02-.07-.043.073-.243.016-.298.07-.053-.037-.046-.091-.116-.121l-.072.093c-.186.21-.5.056-.742.258.006-.025.029-.048 0-.059-.388.256-.812.623-1.031 1.075-.014-.033-.05-.082-.096-.075.058.072.006.216-.031.342-.118.014-.003.242-.102.367l-.017-.02c.065.135-.09.153.001.265l-.085.06c.12.065-.083.155-.028.258h.028c.02.088-.042.133-.016.213l-.016.01c.037.193-.023.311.08.295-.076.077-.056-.183-.164-.065.162.642.393 1.257.718 1.818.007.084.019.134-.004.169.053.042.147.196.219.216-.012-.018-.018.067-.003.097.037.122.166.038.203.173-.051-.025-.087-.02-.108.017.127.043.203.17.298.26-.024-.005-.05-.026-.073-.001.155.06.14.224.263.287l-.078.001c.066.207.135-.03.208.137-.042-.023-.052.003-.073.013.18.061.314.293.442.396l-.02.01c.117.13.203.302.363.42.026.07-.124.077.012.207.085-.081.237.216.268.04.084.138.214.362.314.416-.08-.026-.06.16-.153.061l.011.128c-.044.02-.054-.092-.078-.026.046.05.206.167.229.226.136.046.308.038.451.179-.095-.039-.063.132-.12.097l.35.055c.045.046-.06.078.025.126.019-.024.061-.006.099-.002.006.03.203.19.136.292-.016.054-.087-.066-.07.02.08.09.112.067.196.16l-.01.01c.04.074.193.144.181.034-.034-.046-.036.064-.067-.02.087-.004.195.088.28.18-.043-.02-.062.008-.1.019.179.057.317.165.465.276.043-.034-.12.023-.117-.021.102.232.406.286.455.513-.029-.02.044-.07.036-.059.07.092.012.144.08.177-.028.04.074.06.137.104.05.004-.002.031-.053-.013.1.048.437.31.557.54.018-.028.182.028.22.07l-.07.037c.004.069.134.132.095.186.146.024-.367-.287-.21-.216-.013.073.237.084.145.128.078.081.212.102.236.231-.013-.033-.135.004-.067.067.117.108.054.008.16.085l.077.04c.069-.033.05.068.085-.014-.028.057.092.046.032.156l-.05.083c.037.028.093-.05.123-.077-.001.013.002.042-.006.06.038-.17.065.083.101-.04.046.19.112-.076.164.028.029-.12.036-.223.094-.253-.003.027-.012.048 0 .086.052-.002.04-.052.054-.111.005.029.106-.016.185-.042.017-.1-.063-.117-.095-.151.164.002.1-.317.274-.35-.007.044-.037.176.044.12.171-.007.031-.235.177-.336l-.116-.03c.101-.02.08-.244.168-.163-.004-.069.137-.14.035-.192.229-.172.318-.586.573-.615.007-.04.076-.11.016-.13-.084.02-.01.104-.06.1.016-.032-.003-.056-.015-.068.068-.054.11-.108.143.012.16-.117-.052-.27.112-.449.036.035.059.03.093-.034l.003-.157c.099-.118.136-.013.203.03.035-.077.092-.162.063-.228l.137-.03c-.098.022-.004-.085 0-.127l-.004.042c.037.005.069-.087.09-.133-.048-.017-.118.053-.16.092-.003-.056.04-.107.035-.179.052.06.115-.082.16-.135.054-.055-.015-.11 0-.128.036.022.072-.098.088-.017-.002.028-.063.027-.059.083.054-.027.108.017.121-.097.008-.09-.138-.07-.022-.168-.003.044.017.068.028.108l.104-.093-.056-.045c.025-.009.036.005.036.005-.042-.077.092-.192.039-.266.031-.062.118-.097.158-.15l-.002.014c.08-.046.111-.155.105-.238l.013.012a.37.37 0 0 0 .065-.203c.101-.067.243.111.23-.043.058-.1-.017-.222-.08-.207.146-.15.16-.413.348-.52-.01-.04-.035-.033-.02-.095.166-.248.232-.59.455-.737-.014.09.06.04.097.059-.024-.096.097-.047.014-.121-.06-.023-.083-.047-.145.016.053-.171.169-.411.26-.474-.046.029-.048-.013-.05-.055.087.058.156-.055.166-.16l-.05-.038.082-.032c-.003-.043-.104-.091-.011-.158.024.009.05.014.071.002-.005-.113-.026-.273.056-.356l.114-.049c.007-.045-.019-.137-.07-.074.117-.15.156-.26.247-.292-.078-.367 0-.764.033-1.114l.048.012c.05-.09-.08-.051-.045-.115.044.033.1-.07.15.009.052-.138-.071-.18-.096-.265-.06-.013.042.07-.036.052-.023-.013.044-.186-.05-.202.037-.033.104-.011.142.005l-.05-.08c.106-.113.203.223.329.11l-.016-.082c.094-.085.114.214.142.003-.05-.088-.193-.151-.224-.07-.043-.175-.223-.062-.238-.243.048-.057.033.144.101.1.068-.1-.068-.168-.05-.247-.022.09-.125.037-.15-.012.027-.097.099.04.083-.089-.059-.008-.127-.106-.137-.004-.129-.008.004-.13-.106-.167.07-.066.225.062.224-.084-.07.045-.159-.12-.25-.007.006-.057.063-.088.123-.07.023-.098-.203-.102-.067-.194l-.085.014.044-.127c-.035-.059-.202-.105-.095-.176-.017-.014-.107-.12-.138-.023.011.092.107.039.037.148.05-.11-.077-.093-.13-.104l.031-.039c-.03-.009-.063-.064-.11-.04.03-.002.051-.036.043-.06l-.075.037c-.104-.042.068-.117-.027-.176l.099.015c-.018-.005-.003-.086-.06-.107l-.184.125c-.066-.006.02-.08-.067-.052l.11-.027c.023-.013.017-.128-.061-.18-.062-.005-.181.053-.122.122-.037-.013-.074-.08-.024-.11-.096-.021-.017.071-.107.078-.01-.065-.093-.154-.142-.242l.126-.081-.062-.021c.11-.065-.022-.081.054-.162-.044-.03-.107-.014-.158-.004.093.188-.196.176-.183.332-.174.018-.059-.375-.275-.163.026.04-.07.144.045.107-.11-.021-.084.143-.21.076.1-.054-.102-.151.047-.23-.012.046.079.039.103.026-.044-.059.021-.145-.103-.15-.074.011-.177.009-.161.083 0 .084.11-.003.061.08-.138.02-.163-.086-.207.06.079-.02.1.063.1.12l-.084.045.012-.057c-.145-.026-.032.106-.167.1l-.08-.095c.016-.106.208.021.167-.131-.098.007-.12.069-.211.064l.06-.05c-.033.001-.112-.181-.224-.025-.06.063-.002.057.01.11-.143.051-.156.151-.242.194-.028-.108-.163.067-.112-.082.079.042.266-.081.293-.182-.095-.11.125-.017.128-.156-.131.034-.163-.092-.21-.167-.041.007-.07.052-.086.071.01.08.06.064.088.142a.45.45 0 0 0-.304.254c-.06-.005-.088-.089-.037-.122-.187.135-.281.205-.468.336.168.019-.128.16 0 .183.091-.04.207-.023.205.056-.045.03-.034-.046-.069-.052-.006.103-.16-.006-.137.126.093-.142-.083-.137-.127-.233-.058.131-.049-.06-.138.039-.046.143-.13.28-.193.418-.189.083-.27.378-.352.522-.086.047-.151-.064-.216.012-.051.102.143-.01.021.11l-.013-.028c-.003.058-.212.236-.089.356l-.085-.102c-.022.025-.01.062-.011.092-.036-.016-.084 0-.087-.058-.117.058-.083.206-.123.313l.095-.039c-.027.204-.142.293-.184.48l-.063-.033-.001.122c-.055-.05-.13.033-.096.107l-.06-.34c.067-.06.047.117.13.093.07-.016.115-.186.064-.241-.033.06-.018.07-.013.128-.097-.016-.059-.11-.098-.186-.01.036-.056.071-.03.09-.02-.083.002-.152.048-.262.002.089.072-.014.083.026-.073-.046-.054-.163.033-.282.13-.049.06-.28.172-.417a.66.66 0 0 1 .045.322c.083-.072.051-.103.14-.174-.032-.074-.102-.16-.068-.302l.058.03c.038-.126-.04-.177.06-.306.179-.214.348-.445.5-.594l.053.04c-.03-.192.235-.317.315-.475.244-.121.46-.408.643-.36.404-.265.869-.399 1.357-.337l-.086.092c.09-.065.053.06.138.05-.092-.08.123-.1.195-.141.21.1.496.09.72.1l-.015.066c.243-.034.432.187.622.366.007.044.003.124.064.169.177.012.219.08.406.205.096.129.208.365.23.528.387.477.374 1.109.464 1.685l-.079.044c.162.574-.13 1.276-.21 1.733l-.107-.085c-.079.127-.082.325.019.323-.086.124-.072.37-.208.41-.08.128-.018.195-.048.316-.17.25-.204.354-.308.612l.039-.056c-.012-.041-.06-.069-.097-.012-.016.111-.201.32-.02.305-.21.22-.26.644-.504.83.047.002.02.068.029.108-.125.224-.33.415-.374.628-.041.021-.028-.096-.086-.008-.019.06.045.03.028.107-.144.4-.502.673-.68 1.002-.288.608-.694 1.168-1.03 1.708l-.02-.024c-.02.247-.374.347-.32.593-.052.023-.116.15-.144.083-.027.19-.326.352-.373.617.015-.018.016-.034.019-.062-.158.116-.32.526-.572.79.016-.047.051-.115.04-.154-.107.05-.138.439-.246.33-.044.07-.005.145.023.093-.13.123-.235.415-.378.43l-.499-.49c-.267-.25-.574-.535-.828-.774-.223-.373.162-.2-.143-.364 0-.038-.056.028-.035.003-.116-.065-.015-.267-.134-.277-.04.094-.074-.007-.119.03-.129-.23-.104-.327-.293-.427l.046-.023c-.26-.081-.389-.336-.64-.374-.897-.963-1.787-1.856-2.61-2.859-.73-1.029-1.69-1.953-2.06-3.475.024-.375.03-.391-.08-.776.024.015.031.037.049.009-.108-.01-.022-.279-.122-.313.019-.58.112-1.147.407-1.696-.034.095.02.176.064.072l.003-.137.035-.002c.028-.075.034-.177-.04-.125C1.057 1.45 1.87.904 2.587.829c.743-.123 1.483.058 2.1.345l.956.582c.693.77 1.13 1.48 1.734 2.293 0 0-.296.02-.563-.264"/>
</svg>
