<svg xmlns="http://www.w3.org/2000/svg" width="18" height="15" viewBox="0 0 18 15">
    <path fill="#1A1919" fill-rule="nonzero" d="M4.435 12.705c.475-.612.667-.86.908-1.176.123-.16.2-.191.413-.157 2.137.343 4.2.357 6.202.037 1.508-.241 2.7-.68 3.708-1.385 2.764-1.935 2.865-6.058.196-8.106-.877-.673-1.934-1.107-3.314-1.384C10.698.163 8.75.1 6.655.336 5.193.5 4.013.833 2.976 1.388 1.801 2.018 1.012 2.84.591 3.91-.417 6.48.5 9.156 3.004 10.445c.266.137.346.257.346.489V14.103l.895-1.153.183-.236.007-.01zm-.085-1.77c0-.624-.302-1.077-.889-1.38C1.426 8.509.697 6.38 1.521 4.278c.33-.837.95-1.485 1.927-2.008.916-.49 1.975-.788 3.319-.94 1.996-.224 3.84-.165 5.584.185 1.24.25 2.158.626 2.902 1.197 2.132 1.636 2.051 4.946-.16 6.493-.875.612-1.925.999-3.292 1.217-1.895.303-3.852.29-5.886-.036-.575-.093-1.02.083-1.367.537l-.198.26v-.247z"/>
</svg>
