<svg xmlns="http://www.w3.org/2000/svg" width="17" height="17" viewBox="0 0 17 17">
    <g fill="#000" fill-rule="evenodd">
        <path stroke="#1A1919" stroke-width=".4" d="M1.354 7.277c.204.41.372.828.603 1.202 1.509 2.445 4.926 2.845 7.48.94 1.88-1.4 2.24-3.256 1.799-5.023C10.718 2.319 8.89.98 6.769 1.115c-2.524.16-4.702 1.982-5.34 4.466a5.866 5.866 0 0 0-.088 2.663.28.28 0 0 1-.011.169c-.022-.056-.048-.111-.065-.17-.496-1.722-.248-3.415.843-5.03C3.84.646 7.36-.177 9.665 1.423c.971.675 1.48 1.679 1.74 2.83.269 1.187.216 2.403-.377 3.582-1.244 2.472-4.723 4.355-7.687 2.524-1.081-.668-1.757-1.656-1.975-2.956-.006-.037-.007-.075-.012-.126M10.196 11.78c.44-.465.892-.92 1.318-1.398.45-.506.46-.522.876-.146a36.22 36.22 0 0 1 3.832 4.045c.322.398.257.916-.173 1.362-.14.144-.291.29-.458.396-.61.389-1.057.34-1.59-.104-1.18-.985-2.208-2.108-3.144-3.321-.177-.23-.379-.439-.565-.661-.04-.05-.063-.116-.094-.175.175.173.343.354.527.518.947.84 1.915 1.66 2.717 2.645.264.324.532.643.813.95.153.169.343.302.614.281.393-.03.951-.452 1.16-.872.153-.308.046-.697-.248-.986-1.287-1.262-2.593-2.506-3.727-3.913-.025-.032-.059-.057-.102-.097-.148.112-.296.209-.425.327-.262.24-.507.5-.773.735-.173.153-.37.277-.558.414"/>
        <path d="M9.726 9.098c.331.15.652.313.996.447.369.145.541.438.355 1.027-.4.197-.629.06-.762-.126-.27-.377-.458-.828-.679-1.25l.09-.098"/>
    </g>
</svg>
