<svg xmlns="http://www.w3.org/2000/svg" xmlns:xlink="http://www.w3.org/1999/xlink" width="256" height="170" viewBox="0 0 256 170">
    <defs>
        <path id="a" d="M0 .082h255.959v169.893H0z"/>
        <filter id="c" width="105.7%" height="165%" x="-2.9%" y="-32.5%" filterUnits="objectBoundingBox">
            <feGaussianBlur in="SourceGraphic" stdDeviation=".5"/>
        </filter>
        <filter id="d" width="105.7%" height="165%" x="-2.9%" y="-32.5%" filterUnits="objectBoundingBox">
            <feGaussianBlur in="SourceGraphic" stdDeviation=".5"/>
        </filter>
    </defs>
    <g fill="none" fill-rule="evenodd">
        <g transform="translate(0 .026)">
            <mask id="b" fill="#fff">
                <use xlink:href="#a"/>
            </mask>
            <path fill="#000" d="M230.614 153.428c-.067 3.107-.415 6.209-.101 9.324.086.856-.049 1.74-.13 2.606-.08.854-.22 1.703-.345 2.635-1.177.053-2.365.156-3.553.148-2.106-.015-4.211-.099-6.317-.15-2.869-.07-5.737-.136-8.606-.203-2.652-.062-5.303-.114-7.954-.186-1.916-.053-3.833-.229-5.745-.174-3.462.098-6.875-.496-10.318-.603-2.102-.065-4.209-.021-6.312.043-2.793.086-5.583.293-8.377.349-2.61.052-5.225-.058-7.837-.038-2.358.017-4.716.114-7.074.174-.29.007-.581.013-.872.009-1.303-.018-2.607-.03-3.91-.066-.321-.01-.64-.103-1.023-.168-.105-.723-.46-1.075-1.264-1.156-.95-.095-1.82-1.325-1.785-2.283.05-1.337.18-2.671.214-4.008.06-2.359.09-4.718.097-7.078.002-.795-.134-1.59-.16-2.387-.057-1.773-.11-3.548-.12-5.321-.01-1.922.053-3.845.043-5.767-.011-2.215-.072-4.43-.102-6.646-.03-2.287-.04-4.574-.078-6.86-.035-2.104-.094-4.208-.145-6.312-.033-1.379-.09-2.758-.1-4.137-.006-.578.127-1.158.113-1.736-.062-2.395-.156-4.789-.238-7.183-.011-.327-.035-.654-.035-.98 0-2.36.007-4.718.003-7.077-.003-1.561.012-3.123-.04-4.683-.071-2.104-.242-4.205-.29-6.31-.048-2.107.01-4.217.004-6.326-.001-.542-.078-1.084-.104-1.628-.057-1.196-.093-2.393-.156-3.59-.11-2.102-.257-4.202-.344-6.305a138.778 138.778 0 0 1-.133-5.664c-.001-3.23.058-6.461.07-9.692.008-1.921.006-3.844-.059-5.763-.02-.618.247-1.467-.927-1.71-.05.306-.135.594-.136.882-.01 2.901-.015 5.803-.002 8.704.018 3.743.005 7.487.098 11.229.061 2.5.412 4.996.395 7.492-.016 2.145.141 4.275.198 6.412.065 2.397.084 4.796.12 7.194.012.828.012 1.656.017 2.485 0 .109-.027.22-.01.326.477 2.817.034 5.653.174 8.477.021.43-.05.866-.076 1.3-.013.215-.109.485-.015.636.403.649.223 1.344.243 2.024.083 2.868.164 5.737.246 8.606.008.29.019.581.015.872-.028 2.175-.077 4.35-.08 6.526-.002.796.139 1.593.147 2.39.03 2.603.015 5.208.043 7.812.011 1.083.096 2.165.132 3.248.015.456-.01.913-.016 1.33-.176.054-.267.113-.307.089-.91-.55-2.018-.628-2.879-1.378-.568-.494-1.427-.665-2.17-.943-.473-.177-.972-.285-1.537-.447-.061-.331-.135-.68-.187-1.032-.378-2.56-.365-5.138-.379-7.718-.01-1.958-.193-3.915-.22-5.874-.028-2.07.018-4.143.072-6.213.028-1.088.166-2.174.215-3.262.134-2.973.305-5.946.351-8.921.049-3.16-.007-6.32-.059-9.48-.043-2.617-.036-5.228.175-7.84.101-1.26-.001-2.537.013-3.806.031-2.721.065-5.443.124-8.164.025-1.16.147-2.319.174-3.48.082-3.555.163-7.11.2-10.666.019-1.887-.06-3.776-.08-5.664-.008-.726.001-1.453.046-2.177.187-3.02-.246-6.02-.267-9.032-.004-.47.071-.942.073-1.413.004-1.125-.019-2.249-.022-3.373-.006-1.741.03-3.483-.016-5.223-.045-1.743-.155-3.484-.27-5.223-.025-.364.026-.933-.545-.902-.551.03-.469.552-.45.942.027.577.107 1.152.122 1.73.05 1.889.075 3.778.12 5.667.033 1.38.1 2.759.114 4.138.008.725-.065 1.45-.103 2.175-.019.36-.082.725-.054 1.082.275 3.55.22 7.104.206 10.658-.014 3.416.032 6.831.021 10.247-.004 1.306-.105 2.611-.136 3.917-.026 1.052 0 2.105-.022 3.157-.02.98-.074 1.958-.108 2.938-.032.907-.067 1.814-.086 2.722-.03 1.453-.063 2.906-.067 4.36-.004 1.307.072 2.616.037 3.923-.065 2.47-.211 4.938-.27 7.409-.027 1.197.105 2.398.1 3.597a421.582 421.582 0 0 1-.109 8.275c-.087 3.591-.21 7.181-.332 10.772-.058 1.7-.203 3.399-.216 5.099-.014 1.846.086 3.693.124 5.54.043 2.107.023 4.217.127 6.32.07 1.447.338 2.882.459 4.327.132 1.587.198 3.18.289 4.77.057 1.01.098 2.023.16 3.034.09 1.474.226 2.945.282 4.42.056 1.515.01 3.035.064 4.552.049 1.375.214 2.746.247 4.12.027 1.15-.036 2.305-.11 3.454-.052.792.054 1.068.96 1.551.096-.485.231-.86.237-1.236.042-2.83.104-5.654-.219-8.482-.226-1.975-.213-3.978-.299-5.968-.104-2.395-.2-4.79-.297-7.185-.01-.24.005-.481.011-.892.8.571 1.53.982 2.123 1.538 1.31 1.227 2.846 2.007 4.652 2.545-.01.684.043 1.373-.04 2.046-.279 2.246-.09 4.493-.06 6.738.036 2.677.192 5.354.247 8.031.02.941-.131 1.885-.162 2.828-.057 1.743-.08 3.488-.125 5.231-.007.237-.06.473-.122.936-.82-.7-1.492-1.284-2.176-1.854-1.556-1.295-3-2.779-4.716-3.81-1.302-.782-2.215-1.798-3.135-2.905-.208-.25-.573-.468-.893-.514-1.432-.205-2.874-.343-4.312-.506-.108-.012-.22-.042-.325-.028-1.61.223-3.238.364-4.822.708-1.34.29-2.673.23-4.012.265-1.122.03-2.246-.003-3.37-.03-.615-.015-1.229-.073-1.81-.11-.897-1.38-.944-2.896-.855-4.356.092-1.505-.115-2.964-.251-4.438-.15-1.626-.395-3.245-.518-4.874-.094-1.225-.06-2.46-.085-3.69-.034-1.745-.062-3.49-.107-5.233-.034-1.342-.124-2.683-.127-4.025-.003-1.318.075-2.637.114-3.955.005-.179.044-.385-.027-.532-.67-1.37-.646-2.774-.265-4.209.045-.167.066-.38.002-.532-.61-1.435-.251-2.952-.391-4.425-.02-.216.026-.44 0-.654-.36-2.962-.024-5.936-.156-8.905-.112-2.533.028-5.077.022-7.616-.002-.833-.144-1.665-.163-2.499-.03-1.301.026-2.605-.022-3.905-.045-1.267-.225-2.529-.258-3.795-.083-3.122-.102-6.247-.178-9.37-.015-.61-.221-1.216-.255-1.828-.148-2.716-.329-5.432-.377-8.15-.052-2.907 0-5.816.066-8.723.056-2.501.208-5 .29-7.502.039-1.16.015-2.323.015-3.485 0-3.162.023-6.323-.014-9.484-.017-1.523-.157-3.044-.221-4.567-.042-.98-.033-1.963-.068-2.943-.106-2.969-.222-5.937-.34-9.042 1.062-.145 2.087-.319 3.12-.42 4.776-.473 9.563-.657 14.36-.448 3.12.136 6.236.336 9.355.496.799.04 1.601.077 2.4.046 4.035-.156 8.04.16 12.048.604 2.269.25 4.566.303 6.852.322 3.559.03 7.12-.012 10.679-.087 1.815-.038 3.627-.24 5.442-.32a586.69 586.69 0 0 1 9.254-.34c3.341-.093 6.686-.093 10.025-.228 2.502-.1 4.995-.408 7.497-.52 2.824-.124 5.654-.286 8.465.303.91.19 1.877.184 2.815.16 4.43-.116 8.86-.266 13.289-.415.396-.014.788-.124 1.185-.161.385-.036.774-.037 1.312-.06-.012 1.336-.01 2.56-.036 3.785-.027 1.308-.08 2.615-.124 3.923-.012.361-.01.725-.052 1.084-.316 2.735-.667 5.467-.948 8.206-.096.935-.127 1.901-.003 2.829.234 1.75.058 3.482-.071 5.216-.143 1.915-.4 3.82-.543 5.736-.105 1.405-.085 2.82-.157 4.228-.046.904-.2 1.803-.234 2.708a997.424 997.424 0 0 0-.304 9.475c-.051 1.813-.066 3.627-.11 5.44-.01.47-.093.94-.097 1.412-.017 1.916-.01 3.831-.024 5.747-.013 1.77-.053 3.542-.06 5.312-.007 1.744.019 3.487.02 5.23 0 .616-.048 1.231-.048 1.847 0 2.175-.096 4.357.044 6.524.17 2.645.12 5.287.159 7.93.038 2.577.165 5.152.24 7.728.053 1.887.047 3.777.135 5.662.102 2.174.356 4.342.407 6.516.095 4.065.093 8.131.125 12.197.003.355-.039.711-.069 1.213-.475-.094-.858-.134-1.216-.25-.712-.23-1.403-.231-2.141-.076-1.7.356-3.422.553-5.163.64-1.84.091-3.676.27-5.508.46-3.084.322-6.165.107-9.245.003-2.356-.08-4.707-.26-7.063-.321-1.048-.027-2.1.2-3.15.19-2.869-.028-5.737-.114-8.605-.19-2.794-.075-5.588-.144-8.38-.256-1.771-.071-3.539-.222-5.308-.324a26.89 26.89 0 0 0-1.85-.042c-1.775.02-3.55.09-5.323.077-1.488-.012-2.975-.141-4.463-.163-1.886-.029-3.773.01-5.66-.002-.87-.005-1.74-.11-2.607-.078-1.25.044-1.827.735-1.898 1.999-.15 2.643-.347 5.283-.512 7.925-.028.434-.003.871.013 1.307.079 2.21.091 4.41-.236 6.613-.185 1.244-.112 2.528-.13 3.794-.01.603.036 1.206.062 1.809.017.426.086.83.65.796.444-.027.663-.357.651-.964-.012-.652-.08-1.305-.06-1.956.071-2.175.19-4.348.25-6.524.028-1.012-.056-2.026-.055-3.04 0-.54.088-1.08.11-1.622.118-2.93.228-5.86.344-8.883.495-.03.92-.071 1.344-.08 1.705-.038 3.41-.103 5.115-.086 2.034.02 4.067.135 6.101.172 1.705.03 3.412-.009 5.117.015.901.012 1.802.09 2.702.145.4.024.797.073 1.196.092 2.827.132 5.653.288 8.481.378 2.035.065 4.072.03 6.107.059.8.01 1.598.112 2.396.103 2.178-.026 4.355-.104 6.532-.13.979-.012 1.958.052 2.937.082 2.398.074 4.807.033 7.192.254 2.482.23 4.933.041 7.397-.112 2.322-.144 4.644-.274 6.967-.39.794-.04 1.59-.024 2.386-.026 1.048-.003 1.938.384 2.52 1.253.399.596.756 1.264.939 1.95.195.737.403 1.322 1.4 1.302-.087 2.329-.2 4.57-.247 6.81m-83.671 13.396c-2.562-.297-5.123.013-7.684-.057-.574-.015-1.151.124-1.728.134-3.407.06-6.815.08-10.222.158-2.207.05-4.417.123-6.618.29-1.947.148-3.879.534-5.827.641-1.834.101-3.681-.026-5.6-.053-.243-1.107.388-1.841.867-2.577 1.26-1.937 2.593-3.824 3.888-5.738a192.48 192.48 0 0 0 2.161-3.262c.307-.474.721-.693 1.275-.685 1.811.027 3.623.034 5.434.08 1.56.038 3.095.029 4.656-.262 2.413-.449 4.865-.814 7.329-.247.035.008.072.02.107.016 1.695-.161 2.711.835 3.685 2.035.724.892 1.616 1.646 2.67 2.167a3.7 3.7 0 0 1 .734.454c1.779 1.485 3.544 2.986 5.324 4.469.465.387.564.932.61 1.452.065.73-.29 1.074-1.061.985m-40.347.256c-.31.36-.696.483-1.152.511-2.28.144-4.558.309-6.838.442-.356.022-.718-.099-1.08-.118-2.607-.141-5.214-.339-7.824-.389-2.322-.044-4.65.031-6.97.138-2.898.133-5.79.37-8.687.527-1.559.085-3.124.06-4.681.155-1.954.119-3.903.311-5.854.47-.325.027-.65.06-.976.064-2.868.024-5.735.073-8.602.053a243.72 243.72 0 0 1-8.07-.182 301.882 301.882 0 0 1-9.572-.523c-.834-.06-1.663-.371-2.463-.655-.514-.182-.541-.704-.56-1.198-.02-.531-.113-1.06-.157-1.591a8.968 8.968 0 0 1-.022-.979c.03-1.122.087-2.244.105-3.366.037-2.325.049-4.65.087-6.975.008-.433.09-.866.142-1.298.399-3.28.291-6.582.437-9.874.082-1.877.345-3.746.526-5.605 1.478-.375 2.883-.169 4.285-.131.724.019 1.45-.046 2.175-.027 1.303.035 2.605.102 3.907.16 1.121.05 2.24.128 3.362.153 1.775.04 3.552.057 5.328.062.798.003 1.6-.093 2.396-.063 2.502.095 5.003.221 7.504.356.503.027 1 .18 1.504.209 1.045.06 2.093.07 3.14.11 1.703.068 3.405.16 5.108.21.723.02 1.448-.062 2.171-.058 1.194.007 2.388.072 3.582.066 1.414-.006 2.834.007 4.241-.108 2.3-.188 4.559.02 6.825.38 2.121.338 4.268.25 6.408.2.358-.008.742-.06 1.07.047.591.192 1.015-.014 1.323-.456.246-.354.572-.46.933-.637 1.219-.6 2.381-1.315 3.555-2.003.215-.126.385-.33.568-.508.627-.609.65-.74.27-1.89-.328.433-.592.794-.868 1.145-.327.418-.685.705-1.143.142-.775.683-1.48 1.355-2.237 1.96-1.188.95-2.666 1.134-4.086 1.19-1.696.069-3.405-.136-5.106-.252-1.012-.069-2.019-.262-3.03-.28-2.14-.036-4.283.014-6.424.01-.976-.001-1.952-.067-2.928-.067-1.053 0-2.107.074-3.16.06-1.34-.02-2.68-.103-4.02-.143-.906-.028-1.815-.005-2.72-.048-1.266-.061-2.528-.18-3.793-.241-1.126-.055-2.255-.047-3.38-.1-1.16-.056-2.318-.157-3.477-.228-.653-.04-1.308-.091-1.962-.088-2.648.012-5.297.076-7.946.052-1.157-.01-2.31-.22-3.469-.28-1.08-.058-2.164-.038-3.246-.048-.145-.001-.29.033-.434.03-2.028-.026-4.056-.056-6.117-.086-.395-.914-.275-1.831-.255-2.714.062-2.724.234-5.445.274-8.169a144.18 144.18 0 0 0-.088-7.176c-.123-3.52-.336-7.035-.466-10.554-.092-2.47-.158-4.943-.151-7.414.01-3.705.11-7.409.14-11.114.022-2.617.013-5.235-.024-7.852-.05-3.484.292-6.966-.038-10.453-.166-1.766-.108-3.552-.182-5.328-.093-2.248-.243-4.494-.317-6.743-.046-1.41.017-2.825.003-4.238-.007-.714-.076-1.428-.108-1.98.707-.133 1.309-.267 1.918-.357 1.68-.25 3.357-.54 5.047-.701 1.547-.149 3.115-.279 4.661-.19 3.028.172 6.06.407 9.063.809 1.522.203 3.025.144 4.537.213 1.45.067 2.9.182 4.352.188 2.07.008 4.14-.06 6.21-.101 1.198-.024 2.398-.126 3.591-.074 2.427.106 4.85.307 7.276.436.762.04 1.476.186 2.217.384.739.197 1.581-.008 2.378-.01 1.59-.004 3.182.037 4.772.008 1.014-.019 2.025-.171 3.04-.188 1.001-.017 2.005.063 3.098.103.037.83.1 1.546.094 2.261-.022 2.651-.114 5.303-.089 7.953.02 2.103.157 4.206.272 6.308.117 2.143.163 4.278-.032 6.425-.118 1.293.051 2.61.03 3.915-.016 1.12-.183 2.241-.173 3.36.026 2.686.148 5.371.167 8.057.01 1.375-.125 2.752-.182 4.128a22.187 22.187 0 0 0-.008 1.525c.048 1.773.099 3.545.164 5.318.086 2.357.27 4.714.26 7.071-.01 2.608-.152 5.216-.306 7.82-.11 1.842-.434 3.675-.483 5.517-.076 2.865 0 5.734.014 8.601.006 1.053.01 2.107.038 3.159.013.507.035 1.023.147 1.514.039.167.37.38.555.368.17-.012.414-.277.458-.469.08-.346.066-.724.038-1.085-.247-3.266-.32-6.532-.094-9.801.143-2.059.296-4.116.414-6.176.106-1.835.17-3.673.253-5.51.018-.398.07-.797.063-1.194-.037-2.25-.162-4.5-.112-6.747.052-2.289-.343-4.549-.153-6.858.198-2.411 0-4.856-.034-7.286-.021-1.524.023-3.054-.112-4.568-.239-2.694.027-5.367.127-8.05.143-3.813.037-7.625-.123-11.44-.159-3.773-.077-7.556-.122-11.334a46.571 46.571 0 0 0-.163-3.262c-.061-.74-1.07-1.51-1.83-1.494-2.718.055-5.437.094-8.156.152-1.268.028-2.536.144-3.803.117-1.815-.038-3.627-.187-5.441-.258-1.089-.043-2.187-.116-3.267-.023-2.652.23-5.294-.083-7.94-.054-3.371.035-6.743.06-10.112-.012-1.215-.025-2.423-.346-3.635-.524-.391-.057-.788-.142-1.178-.122-2.005.102-3.98-.095-5.939-.51a4.13 4.13 0 0 0-.97-.076c-.684.02-1.38.176-2.047.093-1.463-.18-2.898-.066-4.338.153-.213.032-.436.004-.654-.01-1.223-.07-2.445-.146-3.756-.226l.065-4.512a9.747 9.747 0 0 1 4.146-.17c.68.115 1.373.15 2.06.228 1.549.174 3.096.365 4.647.524.685.07 1.376.076 2.064.12.977.063 1.953.14 2.93.2.653.04 1.308.059 1.961.088.756.034 1.511.084 2.268.1 1.16.024 2.322.015 3.483.037 3.014.057 6.029.113 9.042.19 2.758.072 5.514.224 8.27.243 2.425.017 4.851-.155 7.275-.138 1.554.011 3.106.23 4.66.322.615.036 1.234-.035 1.85-.022 1.232.025 2.464.072 3.695.115.363.013.727.079 1.088.06 2.178-.114 4.355-.233 6.53-.377.818-.054.845-.116.98-1.077-.256-.054-.524-.17-.784-.157-2.277.124-4.55.357-6.828.387-2.493.034-4.992-.051-7.482-.195-3.231-.188-6.453-.308-9.688-.023-1.145.102-2.312-.066-3.47-.094-1.889-.045-3.778-.073-5.666-.114-2.544-.055-5.088-.117-7.632-.172-.544-.012-1.09.002-1.634-.017-1.594-.056-3.189-.114-4.783-.187-2.746-.127-5.496-.208-8.236-.416-2.129-.163-4.241-.533-6.369-.727-1.08-.099-2.178-.02-3.268-.006-.319.004-.637.064-1.06.11.014-.947-.032-1.812.05-2.666.274-2.862.28-5.731.277-8.602-.004-2.724.011-5.449.01-8.173-.001-.653-.005-1.31-.067-1.96-.05-.53.126-.84.65-.942 1.8-.35 3.572-1.06 5.448-.389.2.071.431.083.646.076 1.953-.06 3.906-.132 5.858-.202.108-.004.222-.054.323-.033 1.815.38 3.617-.05 5.424-.072 1.988-.023 3.976.074 5.965.083.937.005 1.88-.154 2.812-.1 2.097.124 4.196.238 6.266.655.778.156 1.585.161 2.376.258.608.075 1.21.212 1.818.275.572.059 1.15.053 1.726.083.505.027 1.028-.013 1.51.107 2.117.524 4.257.345 6.395.295.835-.02 1.67-.006 2.505-.006.83 0 1.66.029 2.487-.003 2.539-.095 5.076-.258 7.615-.31a24.029 24.029 0 0 1 6.976.862c.103.029.205.075.31.081 1.046.055 1.007.053.986 1.066-.028 1.302.009 2.605.034 3.907.022 1.158.065 2.316.099 3.473.005.182.036.369.007.545-.325 2.02-.047 4.044-.053 6.066-.004 1.339-.193 2.677-.246 4.017-.022.532.065 1.077.168 1.603.11.557.42 1.095-.148 1.605-.122.11-.112.404-.107.612.045 1.923.103 3.845.158 5.767.05 1.74.107 3.48.146 5.22.011.508-.05 1.017-.042 1.526.008.5-.031 1.017.576 1.295.153.07.235.42.248.649.225 3.84.504 7.678.62 11.522.076 2.464-.076 4.935-.163 7.402-.053 1.522-.293 3.046-.242 4.562.113 3.338-.241 6.676.121 10.017.152 1.396.003 2.83-.056 4.244-.084 2.03-.241 4.059-.315 6.09-.12 3.305-.094 6.618-.322 9.915-.192 2.78-.046 5.57-.446 8.35-.21 1.452.016 2.973.09 4.46.099 2.026.125 4.049-.078 6.07-.069.689.12 1.11.531 1.139.419.03.59-.302.6-1.073.012-.943.085-1.886.067-2.829-.048-2.579-.153-5.157-.186-7.737-.012-.938.124-1.879.18-2.819.053-.903.094-1.808.135-2.712.085-1.85.168-3.698.25-5.548.037-.83.082-1.66.104-2.49.085-3.303.147-6.607.25-9.91.045-1.414.249-2.825.241-4.237-.011-2.14-.139-4.28-.227-6.418-.111-2.722.043-5.44.243-8.15.227-3.083.242-6.162.104-9.247-.087-1.958-.116-3.919-.215-5.876-.076-1.486-.218-2.968-.335-4.451-.012-.143-.02-.304-.088-.422-.59-1.017-.461-2.137-.492-3.237-.05-1.811-.114-3.621-.184-5.432-.074-1.886-.169-3.772-.236-5.658-.008-.23.068-.478.162-.692.163-.37.37-.72.436-1.195 1.403-.758 2.804-1.52 4.212-2.27.216-.116.455-.221.694-.253.545-.072.717-.484.794-.905.03-.16-.206-.467-.389-.544-.394-.165-.734-.017-1.068.297-.41.384-.9.695-1.386.983-.836.493-1.697.943-2.639 1.462-.22-.606-.06-1.103-.059-1.584.004-2.101.028-4.202.037-6.304.003-.872-.016-1.745-.022-2.617-.022-3.017-.046-6.033-.059-9.05-.001-.243.07-.487.124-.83.545.077 1.035.172 1.53.211.652.052 1.307.055 1.96.09.941.05 1.231.298 1.28 1.246.055 1.082.066 2.169.049 3.253-.026 1.626-.106 3.25-.132 4.876-.006.39.148.781.163 1.174.063 1.669.124 3.339.136 5.008.005.61.02 1.159.618 1.525.104-.05.25-.073.28-.144.414-1.004 1.261-1.503 2.176-1.95.296-.145.535-.406.803-.615-.67-.796-.755-.818-1.323-.287-.395.369-.748.786-1.479.926l-.255-14.968 3.729-.3c.465.679.443 1.409.461 2.125.102 4.067.228 8.133.289 12.2.053 3.523.038 7.047.036 10.57a622.501 622.501 0 0 1-.05 8.917c-.018 1.27-.18 2.537-.205 3.807-.044 2.163-.031 4.328-.042 6.491-.002.437-.019.874-.005 1.31.057 1.703.099 3.408.19 5.11.177 3.295.534 6.575.445 9.89-.06 2.242.223 4.49.304 6.738.049 1.342-.003 2.686.007 4.03.004.616.044 1.232.077 1.848.063 1.196.181 2.391.19 3.587.02 2.94-.006 5.879-.017 8.818-.006 1.521-.028 3.042-.021 4.563.003.578.09 1.155.099 1.733.025 1.84-.008 3.684.057 5.523.044 1.227.27 2.449.313 3.676.025.708-.144 1.424-.239 2.134-.085.635-.186 1.269-.284 1.903-.022.141-.014.314-.093.417-1.146 1.49-2.237 3.043-4.04 3.843-.062.028-.142.017-.28.03-.069-.129-.205-.274-.218-.43-.119-1.375-.19-2.755-.325-4.128-.183-1.838-.415-3.67-.617-5.506-.147-1.333-.326-2.665-.41-4.003-.153-2.427-.308-4.858-.343-7.289-.028-1.848.145-3.699.196-5.55.048-1.738.18-3.487.049-5.215-.214-2.802-.049-5.587.07-8.38.11-2.608.17-5.218.27-7.827.1-2.648.246-5.293.326-7.94.118-3.918.338-7.84.242-11.754-.066-2.695.217-5.362.204-8.04-.014-2.902-.216-5.801-.3-8.702-.03-1.088.048-2.18.069-3.27.009-.482-.013-.959-.596-1.17-.398.097-.448.408-.44.752.05 2.03.109 4.058.146 6.088.018.979-.013 1.958-.007 2.938.01 2.103.048 4.207.039 6.31-.004.834-.145 1.667-.15 2.5-.009 1.851.044 3.702.043 5.552 0 1.563-.005 3.126-.069 4.687-.124 3.04-.3 6.079-.437 9.119a654.848 654.848 0 0 0-.358 8.818c-.092 2.937-.321 5.885-.153 8.81.19 3.309.04 6.607-.1 9.893a70.364 70.364 0 0 0 .073 7.503c.152 2.375.162 4.791.74 7.135.103.419.133.858.175 1.29.24 2.455.51 4.908.697 7.367.06.783.069 1.565.002 2.341.05.13.08.276.079.442l-.027 3.957c.06.14.105.282.105.423.004 1.337-.022 2.675-.067 4.012-.101 3.049-.273 6.096-.315 9.146-.031 2.274.102 4.55.15 6.826.03 1.41.038 2.82.056 4.23.002.144-.042.313.018.428.089.173.236.41.386.432.166.023.474-.125.525-.269.132-.365.22-.772.211-1.16-.05-2.248-.144-4.497-.203-6.746-.054-2.032-.126-4.065-.11-6.098.013-1.483.198-2.964.231-4.447.04-1.766.005-3.533-.013-5.3-.008-.79-.055-1.58-.083-2.37-.004-.108-.033-.226.001-.32.569-1.56.67-3.29 2.23-4.436 1.147-.844 2.033-2.043 3.158-3.212.102.36.23.607.234.856.05 2.759.045 5.52.129 8.277.05 1.661.233 3.318.349 4.977.07 1.015.059 2.04.2 3.043.337 2.382.34 4.775.38 7.17.015.85-.13 1.523-.715 2.259-1.328 1.668-2.406 3.532-3.676 5.25-.79 1.07-1.481 2.237-2.581 3.065-.367.276-.61.714-.92 1.07-.688.788-1.39 1.565-2.073 2.359m-73.863-23.44c-.124 2.573-.241 5.147-.366 7.72-.076 1.56-.183 3.121-.236 4.683-.101 2.976-.177 5.953-.256 8.93-.019.719-.106 1.442.3 2.12.132.223.073.56.105.874-1.114.42-2.186.042-3.246.001-1.253-.048-2.501-.206-3.878-.328-.68-1.275-.412-2.699-.366-4.097.024-.721.128-1.439.17-2.16.126-2.18-.031-4.352-.155-6.527-.137-2.423-.32-4.84-.154-7.279.158-2.313-.142-4.638.097-6.963.14-1.363.051-2.749.097-4.123.024-.721.191-1.444.16-2.16-.052-1.264-.27-2.523-.302-3.787-.046-1.74.01-3.483.035-5.224.026-1.852.05-3.704.103-5.555.05-1.77.17-3.54.195-5.312.026-1.779-.067-3.56-.036-5.338.042-2.395.268-4.792.213-7.183-.119-5.161.2-10.323-.124-15.484-.146-2.316-.055-4.648-.054-6.973 0-2.47.002-4.94.04-7.41.022-1.38.125-2.756.176-4.135.042-1.124.083-2.25.085-3.374.007-3.705.015-7.41-.018-11.114-.015-1.668-.207-3.336-.174-5.001.061-3.051.248-6.1.346-9.15.079-2.43.107-4.863.149-7.295.037-2.175.08-4.351.085-6.527.003-1.227-.081-2.454-.093-3.681-.006-.608.06-1.216.095-1.826 2.27-.567 4.44-1.06 6.71-.65.046.11.122.208.123.306.03 2.789.065 5.578.073 8.367.006 1.949.016 3.898-.053 5.845-.07 2.024-.277 4.044-.346 6.068a236.295 236.295 0 0 0-.147 8.037c0 1.666.147 3.33.189 4.997.04 1.59.001 3.181.05 4.77.05 1.67.192 3.336.24 5.005.05 1.664.012 3.33.051 4.995.03 1.23.137 2.46.182 3.691.049 1.37.095 2.742.09 4.112-.007 1.884-.084 3.768-.093 5.652-.01 2.434.03 4.87.023 7.304-.003.828-.114 1.656-.12 2.484-.025 3.408-.083 6.816-.023 10.222.046 2.643.275 5.282.373 7.924.1 2.722.132 5.445.21 8.168.02.722.134 1.443.139 2.166.01 1.66-.026 3.32-.028 4.98 0 .543.085 1.087.068 1.63-.042 1.415-.159 2.828-.174 4.243-.022 2.104.065 4.21.013 6.312-.031 1.265-.26 2.525-.363 3.79-.088 1.084-.127 2.173-.18 3.26M25.1 5.276c-1.24-.271-2.02-1.08-2.488-2.224-.168-.41-.043-.735.383-.862.618-.184 1.248-.438 1.878-.457 2.833-.086 5.669-.07 8.502-.153 1.332-.039 2.664-.346 3.99-.304 1.4.044 2.849.178 4.176.594 2.202.688 4.43 1.041 6.713 1.2 3.882.272 7.757-.185 11.642-.086 4.054.103 8.116-.02 12.172-.139 3.72-.11 7.385.489 11.08.687.435.024.872.062 1.307.048 2.366-.077 4.695.319 7.042.503 1.882.148 3.778.114 5.667.186 1.16.044 2.318.164 3.478.201 2.36.077 4.72.165 7.08.166a434.07 434.07 0 0 0 9.485-.124c2.064-.044 4.126-.204 6.19-.215 3.014-.017 5.984-.603 9.02-.496 2.53.089 5.072-.255 7.611-.373 2.176-.101 4.36-.086 6.53-.248 2.154-.162 4.276.132 6.413.2 3.12.097 6.243.113 9.364.069 1.766-.025 3.464.316 5.183.596.523.085 1.09.125 1.602.017 3.174-.672 6.388-1.003 9.623-1.058 2.566-.044 5.137.03 7.703.13 2.875.11 5.727-.184 8.585-.374 2.353-.156 4.702-.367 7.056-.511 1.992-.123 3.988-.228 5.983-.259 1.229-.02 2.46.14 3.69.172 1.995.052 3.992.1 5.988.082a81.861 81.861 0 0 0 5.119-.197c3.482-.248 6.97-.158 10.455-.214a38.704 38.704 0 0 1 6.5.454c.853.13 1.737.04 2.606.07.53.018 1.058.074 1.685.12-.286 1.312-1.438 1.337-2.042 2.031l-.079 1.096-.268.08-2.213-.664c-1.819-.785-3.74-.093-5.599-.378-.521-.08-1.08.08-1.622.133-4.123.409-8.258.479-12.398.532-2.43.031-4.858.305-7.288.424-2.03.099-4.063.146-6.095.188-2.827.059-5.654.074-8.48.14-2.252.053-4.501.168-6.752.228-.979.026-1.96-.013-2.939-.026-2.144-.028-4.29-.14-6.43-.07-3.08.1-6.156.333-9.233.503-2.067.114-4.135.323-6.2.3-2.612-.029-5.221-.252-7.831-.388-2.751-.143-5.492-.45-8.26-.06-1.502.211-3.044.13-4.567.204-1.706.084-3.409.207-5.114.292-1.16.057-2.323.132-3.482.103a74.81 74.81 0 0 1-4.555-.273c-2.75-.238-5.496-.512-8.263-.484-.687.006-1.374-.1-2.062-.13-1.417-.061-2.835-.082-4.25-.166-1.01-.06-2.016-.194-3.024-.293-1.73-.172-3.46-.343-5.19-.512a8.225 8.225 0 0 0-.755-.045c-.976-.004-1.954-.034-2.928.007-1.704.07-3.412.12-5.106.298-3.511.367-7.037.188-10.552.358-.61.03-1.228-.101-1.843-.12-1.161-.034-2.324-.02-3.485-.064-.716-.028-1.442-.065-2.142-.205a18.797 18.797 0 0 0-5.84-.24c-1.259.143-2.52.268-3.784.374-2.638.22-5.277.42-7.916.634-.829.067-1.662.112-2.483.231-1.467.213-2.894-.105-4.34-.217-2.132-.164-4.275-.196-6.413-.286-.253-.011-.515.006-.757-.055-2.04-.506-4.113-.31-6.176-.328-.582-.006-1.164-.025-1.745-.037-.943-.02-1.898-.144-2.827-.037-1.544.177-3.069.063-4.554-.264-1.51-.332-3.02-.402-4.547-.419-1.526-.017-3.052-.02-4.578-.016-.455.001-.929-.106-1.298.354-.106.13-.48.116-.708.066m9.61 14.307c-.461.428-.702.402-1.068-.22l1.067.22m43.445 1.404l-.567.032-.03-.192.569-.11.028.27m162.856-5.236a27.39 27.39 0 0 0-.073 2.397c.008.651-.274 1.02-.894 1.174-.691.172-1.369.533-2.077.015-.113-.083-.344-.021-.517 0-.714.085-1.425.223-2.142.265-2.683.156-5.367.303-8.052.412-1.807.073-3.617.073-5.425.113-1.996.044-3.992.154-5.986.125-1.444-.022-2.884-.241-4.328-.338a21.044 21.044 0 0 0-2.16-.02c-1.739.062-3.478.144-5.217.23-2.972.15-5.943.368-8.917.445-3.373.087-6.75-.002-10.123.09-2.137.06-4.268.319-6.403.475-1.413.104-2.827.235-4.241.263-1.993.039-3.987-.016-5.98-.013-.798.001-1.597.072-2.395.07-2.761-.01-5.522-.029-8.283-.067a12.64 12.64 0 0 1-1.944-.171c-4.103-.7-8.245-.713-12.387-.733-1.126-.005-2.253-.067-3.378-.114-1.995-.083-3.99-.177-5.985-.263-1.595-.07-3.19-.185-4.784-.19-2.252-.008-4.508-.009-6.754.127-2.718.165-5.448.335-8.133.757-3.585.564-7.16.716-10.74.22-1.845-.256-3.687-.315-5.535-.373-2.496-.078-4.995-.177-7.49-.128-3.135.062-6.226-.476-9.35-.538-2.797-.055-5.593-.204-8.39-.307-2.76-.103-5.52-.193-8.28-.303-3.263-.13-6.517-.494-9.79-.345-2.096.096-4.193.28-6.287.249-2.453-.038-4.899-.048-7.344.148-.215.017-.435-.02-.65-.05-2.223-.301-4.468-.454-6.64-1.085-.513-.15-1.081-.106-1.624-.144-1.697-.118-3.393-.218-5.07.206-.195.05-.415.001-.695-.003.024-.337-.013-.599.068-.816.432-1.163.366-2.39.134-3.524-.325-1.588-.277-3.171-.362-4.76a15.786 15.786 0 0 0-.222-1.941c-.129-.716.125-1.217.818-1.363.315-.066.65-.06.975-.057 1.418.012 2.84-.034 4.25.071 1.81.136 3.608.434 5.417.589 1.04.089 2.092.03 3.14.044.652.008 1.305.031 1.957.04.615.009 1.23.01 1.845.01.145 0 .3-.06.433-.025 1.44.368 2.889.036 4.329.074 2.971.078 5.958.173 8.9.55 2.333.3 4.616.423 6.939.08.821-.121 1.67-.04 2.5-.121 3.395-.33 6.786-.717 10.184-1.02 1.667-.148 3.326.007 4.972.387.765.176 1.579.154 2.372.191.47.023.944-.026 1.416-.022 3.489.035 6.977.111 10.465.095 1.446-.006 2.89-.212 4.337-.318 1.847-.136 3.693-.328 5.543-.371a37.453 37.453 0 0 1 4.574.194c1.73.172 3.445.481 5.167.73.144.02.291.05.434.038 3.02-.255 6.008.437 9.02.315 2.488-.102 4.92.36 7.367.644 1.96.228 3.916.174 5.876.084 3.517-.16 7.035-.324 10.551-.508 1.376-.071 2.749-.204 4.123-.302.18-.013.364-.005.542.02 2.85.39 5.718.415 8.586.51 3.968.133 7.919-.044 11.87-.407 1.37-.126 2.759-.063 4.137-.12.978-.041 1.954-.209 2.929-.197 2.47.028 4.938.153 7.408.183 1.342.016 2.686-.113 4.03-.125 2.533-.024 5.068.013 7.603-.02 2.284-.03 4.568-.121 6.852-.18.726-.02 1.456.009 2.18-.039 2.243-.148 4.483-.328 6.725-.484.726-.05 1.457-.122 2.18-.08 2.985.176 5.95-.198 8.924-.297 3.121-.105 6.244-.205 9.367-.229 1.07-.008 2.14.221 3.166.337.186.93.418 1.703.484 2.488.197 2.35.138 4.704-.042 7.056m14.823 151.893c-.038-.087-.328-.13-.48-.093-1.053.253-2.086.65-3.152.775-1.756.204-3.539.382-5.299.307-2.49-.108-4.966-.544-7.457-.673-1.991-.102-3.996.04-5.994.083-.907.02-1.82.173-2.653-.051.26-.357.636-.639.664-.953.14-1.508.32-3.032.235-4.536-.18-3.23.102-6.443.17-9.663.051-2.43.01-4.864-.046-7.295-.035-1.521-.244-3.04-.25-4.56-.013-2.938.125-5.877.086-8.814-.042-3.232-.211-6.462-.327-9.692-.06-1.669-.072-3.341-.199-5.005-.277-3.63-.306-7.26-.242-10.897.035-1.994-.013-3.99-.026-5.985 0-.11-.003-.221-.028-.326-.4-1.65-.258-3.321-.217-4.993.049-1.962.036-3.926.043-5.888.005-1.152-.017-2.303 0-3.454.03-1.851.193-3.708.099-5.552-.144-2.797-.054-5.58.106-8.37.144-2.503.27-5.007.363-7.513.059-1.589.003-3.182.067-4.771.122-3.009.287-6.015.45-9.022.037-.688.15-1.372.201-2.06.123-1.66.498-3.287.42-4.98-.137-2.937-.054-5.877.328-8.803.197-1.51.367-3.029.438-4.55.133-2.868.184-5.74.276-8.61.01-.313.069-.624.123-1.086.763.01 1.447-.012 2.127.037 1.581.113 3.158.27 4.698-.295.472-.173.968-.282 1.614-.466.093 2.02.09 3.936-.158 5.855-.163 1.255-.236 2.524-.294 3.789-.027.61.106 1.227.113 1.842.03 2.823.062 5.647.055 8.471-.007 2.647-.01 5.296-.11 7.94-.082 2.21-.22 4.425-.477 6.62-.381 3.259-.396 6.52-.355 9.791.022 1.852-.104 3.71-.006 5.557.18 3.405.443 6.807.735 10.205.255 2.978.01 5.949-.02 8.922-.018 1.67-.246 3.337-.258 5.006-.03 4.469 0 8.937.018 13.406.003.87.014 1.745.09 2.611.125 1.44.396 2.873.445 4.314.096 2.828.069 5.66.122 8.49.014.794.16 1.584.195 2.378.114 2.503.222 5.005.299 7.51.06 1.959.13 3.92.09 5.88-.05 2.46-.194 4.92-.322 7.378-.045.867-.192 1.728-.238 2.594-.117 2.208-.17 4.42-.314 6.625-.12 1.843-.328 3.68-.507 5.517-.092.937-.231 1.869-.299 2.807-.024.335-.018.861.179.99.645.423.818.941.724 1.662-.044.336.233.568.56.489.184-.045.436-.302.448-.478.051-.724.14-1.477 0-2.177-.398-1.98-.474-3.948-.093-5.934.034-.176.016-.362.023-.544.073-1.923.124-3.848.223-5.77.178-3.444.297-6.894.6-10.328.404-4.585-.1-9.139-.241-13.706-.08-2.54-.165-5.081-.236-7.623-.06-2.177-.072-4.357-.17-6.533-.067-1.485-.294-2.962-.36-4.447-.084-1.875-.099-3.754-.106-5.631-.01-2.58-.025-5.163.035-7.742.08-3.414.257-6.826.34-10.24.047-1.882.04-3.769-.04-5.65-.06-1.372-.326-2.734-.414-4.107-.164-2.538-.28-5.08-.382-7.623-.037-.904.043-1.812.04-2.717-.007-1.524-.118-3.051-.04-4.57.164-3.228.463-6.449.631-9.677.205-3.91.373-7.825.476-11.74.057-2.178-.071-4.36-.078-6.54a178.2 178.2 0 0 1 .068-6.309c.054-1.669.259-3.332.302-5 .029-1.085.306-2.273-.678-2.986.978-4.61 1.093-9.14.817-13.739.207-.126.418-.257.632-.385.218-.132.45-.243.653-.394.594-.443.872-1.333.626-1.942-.232-.575-1.062-1.096-1.695-.902-1.674.515-3.317-.054-4.972-.063-1.333-.007-2.664-.291-4-.322-1.994-.045-3.992.029-5.99.043-1.198.009-2.398-.036-3.595.01-2.03.077-4.058.235-6.089.305-1.16.04-2.326-.077-3.486-.035-1.921.07-3.824.06-5.752-.098-2.267-.185-4.57-.026-6.852.106-2.894.167-5.779.495-8.672.682-2.283.148-4.573.188-6.86.275-.544.02-1.089.064-1.632.05-2.141-.057-4.283-.195-6.423-.182-1.703.011-3.407.166-5.105.317-1.262.112-2.54.218-3.767.51-1.3.31-2.597.241-3.85.049-2.138-.328-4.269-.354-6.414-.298-.724.02-1.45.05-2.173.021-2.939-.116-5.876-.324-8.815-.358-2.173-.025-4.348.173-6.523.258-.725.028-1.453-.01-2.178.026-1.447.07-2.892.204-4.34.248-2.322.072-4.646.09-6.97.139-.362.007-.73.02-1.087.082-3.128.537-6.295.515-9.45.617-3.485.113-6.975.12-10.462.135-2.327.01-4.655-.007-6.98-.078-2.387-.073-4.772-.216-7.156-.348a129.219 129.219 0 0 1-3.908-.29c-.575-.05-1.144-.196-1.72-.226-3.229-.168-6.46-.292-9.689-.477-1.77-.102-3.534-.368-5.306-.426-1.63-.053-3.266.089-4.9.117-1.854.033-3.708.04-5.562.051-2.106.013-4.211.023-6.317.024-.468 0-.94-.089-1.405-.053-2.349.18-4.69.46-7.05.057-1.643-.28-3.308-.428-4.954-.688-.492-.078-.959-.328-1.432-.513-1.407-.55-2.896-.712-4.371-.687-1.88.031-3.735.529-5.639.397-.612-.043-1.233.065-1.851.08-1.418.034-2.846.174-4.25.046-1.442-.132-2.72.164-3.959.825-.533.284-.854 1.012-.516 1.463.923 1.23 1.575 2.737 3.19 3.303.42.148.595.435.627.906.162 2.391.384 4.778.546 7.17.051.754.102 1.545-.063 2.27-.198.862-.072 1.928-1.12 2.441-.146.072-.282.377-.257.55.1.69-.237 1.424.255 2.087.151.203.127.56.13.847.026 2.536-.172 5.069-.057 7.608.065 1.448-.015 2.902-.022 4.354-.008 1.475-.292 2.924-.287 4.412.012 3.09-.181 6.179-.259 9.27-.033 1.306.004 2.615.027 3.922.037 2.137.101 4.273.13 6.41.024 1.779.008 3.558.018 5.337.006 1.27.036 2.539.033 3.808-.002.502-.08 1.003-.096 1.506a280.87 280.87 0 0 0-.087 3.8c-.044 2.641-.1 5.283-.114 7.925-.01 1.588.05 3.175.078 4.763.003.182-.015.366.005.545.385 3.404.195 6.822.238 10.234.037 2.976.017 5.953.018 8.929 0 .253-.033.506-.053.758-.06.76-.155 1.517-.172 2.277-.031 1.452.008 2.906-.028 4.357-.103 4.13-.335 8.261-.308 12.39.017 2.494-.268 5.014.283 7.494.062.278.041.58.029.87-.126 2.902-.287 5.802-.378 8.705-.053 1.669.02 3.34.002 5.01-.013 1.158-.122 2.315-.127 3.473-.012 3.33.683 6.632.298 9.989-.213 1.857-.106 3.751-.141 5.629-.008.404-.134.715-.583.787-1.146.186-2.286.446-3.44.536-1.516.118-3.043.12-4.566.137-1.701.018-3.41.096-5.101-.041-1.197-.098-2.376-.058-3.566-.048-1.34.01-2.682-.119-4.023-.126-.77-.004-1.582-.082-2.256.432.28.879.335.908.878.875a35.331 35.331 0 0 1 2.032-.05c.901-.004 1.803.006 2.705.02 1.232.02 2.464.046 3.697.072.615.012 1.233.072 1.845.037 2.85-.167 5.696-.388 8.546.002.17.023.366-.024.528-.09 1.1-.453 2.185-.424 3.275.046.222.096.494.17.727.137 2.652-.372 5.274.273 7.924.218 2.386-.049 4.779.263 7.17.385 2.207.112 4.417.182 6.625.277.834.035 1.667.132 2.5.124 1.995-.021 3.989-.122 5.984-.13 3.017-.01 6.034.03 9.052.046.251.001.503-.015.754-.037 1.481-.131 2.961-.363 4.443-.38 3.376-.04 6.74-.133 10.1-.528 1.908-.224 3.844-.244 5.769-.282a167.13 167.13 0 0 1 6.316.018c1.49.027 2.993.018 4.461.227 1.639.232 3.26.2 4.89.096 1.516-.096 3.027-.278 4.542-.383.302-.021.724.033.902.226.353.382.75.407 1.186.384 1.19-.063 2.38-.175 3.571-.201.744-.017 1.489.016 2.234.046.126-.052.268-.082.424-.082 1.836.007 3.672-.126 5.508-.19 1.188-.268 2.41-.325 3.618-.396 2.242-.132 4.494-.075 6.742-.103.144-.002.288-.043.433-.047 1.378-.045 2.757-.083 4.135-.13 2.39-.08 4.779-.174 7.169-.246 1.233-.037 2.484-.165 3.696-.007.752.098 1.484.18 2.242.165a46.476 46.476 0 0 1 3.116.045c2.316.112 4.63.345 6.946.365 3.65.03 7.302-.077 10.953-.12 2.28-.027 4.56-.02 6.84-.073 1.233-.029 2.462-.185 3.694-.22 2.39-.07 4.782-.13 7.172-.123 1.557.004 3.114.104 4.668.213 1.813.127 3.619.393 5.433.45 3.226.102 6.456.085 9.684.132 1.813.026 3.626.069 5.439.13.943.031 1.883.152 2.826.173 2.435.056 4.87.094 7.306.107.793.004 1.594-.183 2.378-.12 1.813.148 3.616.206 5.438.093 1.482-.092 2.978.063 4.464.014 3.125-.104 6.247-.21 9.359.191 1.04.134 2.075.382 3.117.416 3.19.105 6.383.108 9.5-.73.355-.096.7-.368.954-.646.108-.118.015-.481-.077-.694" mask="url(#b)"/>
        </g>
        <path fill="#000" d="M225.16 25.033c-1.518.093-3.03.184-4.542.28-.215.014-.43.089-.643.08a741.422 741.422 0 0 1-5.764-.253c-2.264-.108-4.492.428-6.736.427-2.602 0-5.208.39-7.815-.089-.915-.168-1.885-.011-2.827-.067-1.739-.102-3.473-.303-5.213-.366-1.45-.053-2.91.106-4.36.036-1.949-.094-3.89-.345-5.84-.475-.935-.062-1.879.007-2.82.003-1.159-.006-2.32-.053-3.479-.034-1.446.022-2.891.083-4.336.146-1.234.054-2.474.069-3.697.213-3.788.449-7.603.452-11.398.771-.253.022-.502.08-.754.112-.436.057-.636.306-.62.74.01.291.01.582.026.873.17 2.943-.308 5.857-.392 8.789-.086 2.976-.21 5.95-.31 8.926-.01.288.016.58.054.866.05.377.277.548.666.577 1.55.117 3.096.31 4.648.372 3.19.129 6.382.224 9.574.27 2.395.034 4.792-.07 7.188-.034 1.34.02 2.678.218 4.018.307 2.064.136 4.128.267 6.194.363 2.427.112 4.856.23 7.284.26 2.573.031 5.147-.066 7.72-.058 2.142.006 4.286.16 6.425.108 2.536-.063 5.069-.267 7.601-.428 1.881-.12 3.76-.263 5.64-.411.394-.031.786-.114 1.175-.195.964-.2 1.108-.094 1.307 1.043-.27.071-.542.188-.821.21-2.752.211-5.503.42-8.257.605-1.882.126-3.765.288-5.65.305-3.342.029-6.686-.054-10.03-.065-2.096-.008-4.194.081-6.289.03-2.1-.052-4.197-.235-6.296-.342-1.629-.082-3.26-.12-4.888-.208-1.921-.104-3.84-.302-5.762-.35-2.646-.067-5.296.002-7.944-.05a386.317 386.317 0 0 1-8.824-.298c-1.086-.046-2.17-.177-3.25-.31-.543-.066-.94.04-1.36.446-.942.915-2.562 1.025-3.584.314-.231-.16-.486-.375-.583-.623-.47-1.198-1.237-2.193-2.004-3.206-.9-1.187-1.553-2.535-1.813-4-.129-.725.094-1.508.124-2.266.067-1.701.099-3.404.174-5.106.043-.975.167-1.947.215-2.923.124-2.537.225-5.076.34-7.614.005-.104.06-.205.104-.35.245-.093.543-.14.757-.301.286-.216.61-.461.811-.077.155.295.168.994.03 1.06-.675.318-.555.873-.578 1.398-.125 2.9-.229 5.802-.369 8.702-.096 1.99-.246 3.977-.355 5.966-.038.695-.025 1.393-.038 2.307 1 1.496 2.117 3.227 3.307 4.906.363.512.928.881 1.401 1.317.63-.35.793-.779.765-1.386-.052-1.115-.026-2.235-.028-3.353 0-.218.04-.437.024-.653-.156-2.15.367-4.254.412-6.386.027-1.293.374-2.573.085-3.888-.11-.506.085-1.074.107-1.615.039-1.011.036-2.024.083-3.035.033-.717.06-1.445.2-2.145.118-.591.532-.81 1.203-.823 2.868-.056 5.74-.12 8.599-.33 2.636-.194 5.254-.632 7.889-.857 1.582-.135 3.182-.103 4.774-.085 2.172.023 4.344.101 6.516.162 1.887.052 3.775.14 5.663.162 2.935.034 5.871-.001 8.807.045 1.484.023 2.966.234 4.45.23 4.17-.01 8.343-.162 12.513-.112 2.28.027 4.544-.36 6.823-.17 1.23.102 2.455.189 3.657-.215.15-.05.366-.005.518.066.29.137.415.016.632-.185.59-.547 1.146-.325 1.273.468.035.212.027.433.017.65-.137 2.939-.274 5.878-.421 8.816-.044.87-.126 1.736-.176 2.605-.126 2.172-.2 4.349-.378 6.517a66.025 66.025 0 0 1-.646 5.173c-.065.405-.467.773-.772 1.106-.064.07-.448-.025-.564-.153-.37-.407-.196-.858-.03-1.314.147-.404.242-.832.317-1.257.37-2.113.519-4.241.503-6.39-.008-1.117.19-2.233.26-3.352.117-1.846.232-3.693.298-5.54.061-1.732.058-3.466.085-5.385M154.316 135.465c1.083.094 2.058.293 3.02.24 2.361-.13 4.704.181 7.06.203 1.878.018 3.75.358 5.63.458 1.447.077 2.901-.004 4.352 0 .688.002 1.376.04 2.065.057 1.889.05 3.78.06 5.667.155 1.666.083 3.332.218 4.99.404 1.774.2 3.53.332 5.315.055.89-.138 1.814-.058 2.722-.067 2.064-.02 4.128-.033 6.192-.05 1.623-.013 3.246-.012 4.87-.046 1.992-.043 3.983-.126 5.976-.174 1.448-.034 2.899.007 4.344-.07 1.849-.099 3.694-.271 5.539-.44.388-.036.77-.175 1.147-.295.587-.188.928-.082 1.049.357.132.48-.088.802-.685.867-1.875.205-3.75.437-5.63.55-1.913.114-3.834.089-5.751.141-3.049.084-6.096.216-9.146.264-3.123.05-6.247.014-9.371.036-1.45.01-2.903.131-4.352.09-1.523-.042-3.04-.248-4.564-.328-2.249-.119-4.5-.222-6.752-.27-1.995-.043-3.994.064-5.987-.016-2.388-.097-4.77-.32-7.156-.496-.721-.053-1.44-.165-2.162-.197-2.213-.097-4.428-.189-6.643-.241-.825-.02-1.652.077-2.481.184-.485-.113-.63-.483-.573-.968.435-3.692-.018-7.396.155-11.097.103-2.2-.145-4.421-.28-6.63-.18-3-.411-5.996-.608-8.994-.189-2.89-.39-5.778-.532-8.669-.096-1.95-.122-3.906-.136-5.86-.013-1.697.069-3.396.048-5.093-.033-2.678.41-5.352.031-8.034-.07-.493.021-1.008.038-1.513.152-4.5.33-8.999.446-13.5.071-2.75.013-5.504.083-8.254.032-1.229.254-2.451.349-3.68.035-.45.154-.901-.164-1.363-.267-.39-.023-.771.436-.882a1.26 1.26 0 0 1 .324-.024c2.576.06 5.161.008 7.726.213 2.387.19 4.766.006 7.144.133 1.45.078 2.894.275 4.344.374 1.047.072 2.103.025 3.148.114 1.228.106 2.445.378 3.673.444 2.718.144 5.44.225 8.16.29 1.344.031 2.692-.007 4.036-.06 1.847-.072 3.693-.235 5.54-.272 1.592-.032 3.185.068 4.778.09 2.753.04 5.508.465 8.255.154 2.57-.29 5.138-.274 7.712-.252 1.63.013 3.26.073 4.89.082.542.003 1.086-.084 1.628-.137.252-.024.503-.092.755-.092.488 0 .718.325.776.756.05.37-.344.701-.806.694-1.917-.028-3.833-.076-5.75-.1-2.435-.03-4.87-.085-7.305-.048-1.34.02-2.678.305-4.015.295-2.25-.017-4.497-.179-6.746-.27a57.475 57.475 0 0 0-8.378.258c-.36.038-.725.028-1.088.035-1.815.038-3.632.036-5.445.125-1.165.057-2.313.054-3.462-.16-.283-.053-.58-.048-.87-.051-1.709-.017-3.4-.134-5.099-.4-2.11-.332-4.263-.367-6.386-.624-2.069-.25-4.127-.212-6.194-.063-.36.026-.725-.021-1.087-.046-1.702-.115-3.402-.282-5.105-.335-1.195-.037-2.395.093-3.593.124-.535.013-.684.354-.722.778-.116 1.3-.27 2.601-.302 3.905-.074 2.98-.063 5.961-.13 8.94-.039 1.704-.21 3.405-.242 5.108-.07 3.742-.073 7.484-.134 11.226-.035 2.215-.168 4.429-.183 6.644-.016 2.286.06 4.573.09 6.86.022 1.63.01 3.26.063 4.89.036 1.123.163 2.244.237 3.368.193 2.927.26 5.87.6 8.779.346 2.965.582 5.924.583 8.907.002 3.333.045 6.666.063 10 .005.792-.02 1.584-.034 2.514M120.301 54.036c.5 1.529.368 3.037.186 4.548-.009.07.013.144.014.217l.065 5.992c.006.473-.007.947.028 1.417.25 3.323.456 6.638.324 9.983-.122 3.074-.23 6.153-.027 9.244.237 3.582.225 7.182.278 10.774.038 2.61.006 5.222.006 7.832 0 1.054-.01 2.107.005 3.16.04 2.65.092 5.298.136 7.948.016.945.028 1.89.032 2.835.002.632.221 1.076.83 1.391 1.281.665 2.632 1.008 4.06 1.117.465.035.94.075 1.387.195 1.808.48 3.586.824 5.452.149 1.36-.492 1.607-.704 1.485-2.121-.009-.107.03-.219.02-.326-.143-1.44-.307-2.88-.43-4.322-.111-1.297-.225-2.597-.253-3.897-.04-1.846-.007-3.694.005-5.54.005-.833.012-1.666.058-2.497.12-2.137.273-4.273.385-6.41.024-.464-.084-.933-.11-1.4-.07-1.336-.198-2.673-.179-4.007.025-1.779.229-3.556.244-5.335.021-2.61-.137-5.222-.073-7.83.084-3.414.145-6.824.028-10.24-.063-1.874.057-3.754.088-5.631.006-.397-.032-.796-.018-1.192.069-1.921.166-3.842.215-5.763.018-.686-.18-.81-.872-.733-.683.076-1.369.216-2.05.205-1.816-.03-3.63-.182-5.445-.182-1.776 0-3.552.123-5.326.206-.163.008-.32.121-.548.213m14.76-1.81c.467.373.572.91.566 1.46-.023 1.817-.086 3.633-.11 5.45-.06 4.434-.105 8.867-.156 13.301-.012 1.01-.03 2.018-.032 3.028-.001 1.086.031 2.173.017 3.26-.015 1.227-.087 2.454-.094 3.682-.006.906.1 1.813.073 2.718-.044 1.415-.172 2.828-.24 4.243-.06 1.23.004 2.448.116 3.684.193 2.126.261 4.296.06 6.417-.27 2.874-.15 5.738-.189 8.607-.008.617-.055 1.236-.022 1.851.08 1.48.198 2.959.3 4.438.062.906.1 1.815.192 2.719.102 1.003.233 2.004.389 3 .124.791-.138 1.111-.958 1.167-.422.029-.903.047-1.244.256-.976.597-2.038.704-3.127.738-.325.01-.686.032-.97-.09-1.464-.625-3.061-.536-4.569-.907-.801-.198-1.597-.419-2.395-.631-.571-.152-1.036-.592-1.75-.37-.393.123-.76-.352-.86-.813-.046-.207-.056-.463.027-.648.58-1.297.22-2.655.213-3.97-.025-4.426-.364-8.845-.167-13.281.111-2.492-.123-4.999-.175-7.5-.042-1.993-.027-3.989-.07-5.983-.029-1.342-.17-2.682-.166-4.022.01-2.975.132-5.95.112-8.924-.018-2.724-.172-5.447-.248-8.17-.043-1.522.01-3.048-.086-4.566-.167-2.656.099-5.286.326-7.922.024-.28-.064-.571-.096-.858-.068-.61.06-.82.686-.841 2.213-.078 4.428-.146 6.642-.163 2.031-.016 4.063.074 6.094.043.634-.01 1.263-.26 1.912-.403"/>
        <path fill="#000" d="M224.056 135.027c.777-.3.844-.975.854-1.626.047-2.943.119-5.886.073-8.827-.042-2.753-.223-5.504-.338-8.256-.086-2.065-.194-4.129-.237-6.194-.04-1.915.018-3.833-.015-5.748-.026-1.56-.12-3.118-.187-4.677-.022-.507-.078-1.013-.08-1.52-.005-2.175.067-4.353-.006-6.526-.098-2.906.115-5.792.32-8.684.094-1.305.077-2.618.15-3.924.096-1.701.257-3.398.342-5.1.064-1.298.04-2.6.079-3.9.03-1.044.097-2.087.146-3.131.14-2.973.291-5.946.412-8.92.024-.575-.08-1.154-.101-1.732-.011-.28-.027-.586.072-.835.06-.149.331-.271.518-.288.109-.01.323.2.345.333.119.743.3 1.498.263 2.24-.118 2.392-.342 4.778-.482 7.169-.047.785.055 1.579.054 2.369 0 1.163.008 2.328-.055 3.489-.146 2.681-.355 5.359-.498 8.04-.158 2.976-.317 5.953-.388 8.931a195.76 195.76 0 0 0-.007 8.375c.072 3.775.233 7.548.33 11.323.067 2.573.057 5.148.146 7.72.061 1.777.259 3.548.347 5.323.051 1.052.008 2.108.006 3.161-.004 3.442-.002 6.884-.022 10.326-.003.391-.1.79-.2 1.172-.12.454-.377.776-.914.773-.508-.003-.839-.194-.927-.856M116.778 22.538c.908 2.085-.035 4.285.493 6.296 1.416-.258 2.776-.566 4.154-.741a64.491 64.491 0 0 1 4.982-.435c1.009-.05 2.026.069 3.04.12.791.039 1.588.173 2.373.117 1.203-.086 2.368.048 3.548.252.88.152 1.788.142 2.754.21l-.337-5.979c.712-.311.982-.22 1.036.409.136 1.59.31 3.181.338 4.775.017.975-.399 1.808-1.462 1.918.092 1.987.219 3.892.26 5.8.047 2.178.012 4.358.028 6.538.003.396.082.79.12 1.187.033.344.002.715-.39.79-.41.08-.552-.246-.588-.606-.069-.683-.182-1.365-.198-2.05-.044-1.961-.037-3.924-.073-5.886-.026-1.447-.014-2.9-.152-4.338-.128-1.332-.401-1.57-1.7-1.665-1.333-.097-2.674-.066-4.011-.12-.543-.021-1.098-.055-1.62-.19-1.116-.293-2.224-.21-3.346-.09-1.046.113-2.1.162-3.146.274-1.221.13-2.437.315-3.659.44-.421.042-.856-.01-1.282-.048-.467-.04-.789.208-.627.582.48 1.107.393 2.268.383 3.415-.018 2.213-.1 4.426-.128 6.639-.011.869.062 1.739.074 2.608.007.477.232.758.682.845.815.16 1.629.374 2.452.427 1.625.104 3.255.211 4.871-.2.546-.14 1.143-.067 1.713-.123 1.405-.137 2.81-.419 4.211-.404 1.439.015 2.876.302 4.31.498.277.039.541.203.805.323.314.144.639.36.415.729-.104.172-.472.23-.728.252-.204.018-.417-.126-.631-.146-1.801-.168-3.601-.356-5.406-.468-.717-.045-1.449.062-2.169.146-1.692.198-3.38.43-5.072.631-.32.039-.65.033-.97-.002-1.512-.17-3.022-.35-4.532-.538-.727-.09-1.03-.408-1.026-1.14.011-2.063.062-4.125.07-6.188.002-.651-.131-1.304-.116-1.954.04-1.762.126-3.523.19-5.285.004-.093.006-.223-.049-.277-.651-.639-.523-1.46-.544-2.246-.038-1.444-.066-2.888-.129-4.33-.021-.503.155-.754.79-.772M186.818 94.153l3.48-4.402c.649.222.707.558.385 1.011-.588.828-1.182 1.652-1.775 2.476-.254.353-.53.691-.766 1.056-.53.82-.754.805-1.324-.141"/>
        <path fill="#000" d="M124.58 33.48c-.632-1.077-.562-1.37.237-2.145.59-.572 1.108-1.221 1.622-1.865.19-.239.332-.518.673-.364.419.19.454.602.253.918-.307.48-.696.917-1.095 1.328-.401.415-.829.773-.89 1.42-.041.432-.366.667-.8.707M213.018 62.917c.073-.646.118-1.003.62-1.261.488-.252.847-.763 1.245-1.177.226-.234.38-.55.634-.741.16-.12.527-.175.648-.075.14.115.144.435.138.665-.003.12-.149.24-.24.353-.68.846-1.35 1.702-2.06 2.524-.127.148-.485.269-.627.194-.204-.107-.307-.406-.358-.482M218.67 63.34c-.297.414-.58.838-.894 1.239-.378.482-.786.942-1.173 1.417-.113.139-.17.382-.305.432-.234.085-.546.144-.76.055-.34-.143-.278-.52-.114-.75.526-.73 1.038-1.488 1.68-2.108.318-.308.906-.336 1.371-.491l.195.206M193.507 90.753c-.08 1.515-1.05 2.614-1.848 3.787-.085.125-.442.206-.566.131a.834.834 0 0 1-.352-.58c-.013-.225.106-.495.246-.688.482-.667.992-1.315 1.505-1.96.242-.302.514-.58.772-.87l.243.18zM103.579 161.506c-.053-2.068-.12-4.135-.153-6.202-.027-1.775-.012-3.55-.015-5.326 0-.072.015-.147.004-.218-.374-2.485-.148-4.992-.263-7.487-.005-.108.025-.238-.023-.323-.548-.97-.291-2.013-.317-3.035-.011-.419-.144-.873.41-.932.645-.067.603.48.624.912.106 2.1.217 4.202.307 6.304.067 1.59.115 3.182.154 4.774.055 2.215.092 4.43.14 6.644.064 2.975.132 5.949.197 8.923.003.108.036.248-.017.319-.18.242-.374.63-.595.652-.452.047-.554-.35-.53-.757.042-.725.08-1.452.103-2.178.021-.69.022-1.38.032-2.069l-.058-.001M128.604 85.495c-.857 1.45-1.662 2.868-2.521 4.251-.801 1.289-1.651 2.547-2.497 3.807-.43.64-.778.785-1.124.536-.306-.22-.341-.731.244-1.293 1.274-1.223 2.004-2.83 2.888-4.325.608-1.028 1.197-2.068 1.806-3.096.345-.58.51-.569 1.204.12"/>
        <path fill="#1A1919" fill-rule="nonzero" d="M167.991 35.334c-.048.324-.684.504-.906.504-.048 0-.228-.024-.294-.024-.084 0-.282.024-.336.168-.024.09-.024.198-.06.318-.006.066-.096.174-.096.228-.024.09-.072.948-.18 1.386.042.096.09.552.09.744 0 .03 0 .06-.006.072-.024.162-.312.42-.432.42-.3 0-.48-.3-.48-.552 0-.03 0-.06.006-.09 0-.09.144-.192.168-.51l.15-1.962c-.024-.006-.048-.012-.084-.012-.204 0-.582.144-.624.144-.048 0-.102.096-.15.096-.12 0-.444-.168-.444-.402v-.03c.036-.306 1.596-.63 1.62-.63.438-.048.996-.09 1.404-.18.108-.006.108-.138.36-.138.21 0 .306.12.306.324a.895.895 0 0 1-.012.126zm4.21 1.392c-.042.6-.534.03-.582.804 0 .042-.006.084-.006.12 0 .486.228.63.228.942v.042c-.012.21-.39.528-.57.528a.479.479 0 0 1-.456-.468v-.036c0-.06.114-.57.12-.63.006-.102.018-.246.018-.39 0-.156-.012-.306-.036-.39-.366.048-.852.114-1.284.258 0 .084-.06.42-.06.468 0 .048.18.33.18.39-.006.114-.102.6-.486.6a.454.454 0 0 1-.45-.456v-.03c.024-.342.186-.954.186-1.404 0-.414.018-1.032.174-1.434.096-.252.27-.792.666-.792.198 0 .402.198.402.396v.006c-.018.066-.432 1.02-.444 1.278 0 .03.006.048.006.06 0 .012 0 .018-.006.024h.06c.306 0 .774-.036.816-.036.048 0 .192-.03.258-.078.09-.174.006-1.59.588-1.59.252 0 .354.126.354.318 0 .018-.006.042-.006.066 0 .048-.162.852-.162.912v.048c0 .036.006.066.036.066.048 0 .048-.048.102-.048.036 0 .18.072.264.114.078.036.09.21.09.3v.042zm4.318-1.74c-.018.096-.072.318-.156.336-.654.156-.798.168-1.02.168h-.138c-.048 0-.18.006-.27.006-.024.108.006.276-.042.414-.048.138-.138.228-.168.546v.018c0 .084.096.102.114.102.054 0 .114.024.168.024.744 0 .696-.456 1.08-.456.21 0 .348.378.348.456-.024.204-.252.42-.348.45-.114.036-.312.048-.45.096-.084.036-.414.24-.594.24-.06 0-.012-.018-.066-.018-.048 0-.09.048-.138.066h-.108a.43.43 0 0 0-.204.042c-.078.054-.084.342-.09.438 0 .03-.006.084-.006.138 0 .162.036.378.258.378.636 0 1.056-.27 1.338-.27.24 0 .336.084.336.264 0 .03.012.06.012.096 0 .06-.03.138-.21.246-.414.258-.936.126-1.302.36-.15.03-.384.054-.432.054-.462 0-.744-.462-.744-.858v-.048c.018-.066.102-.72.126-.834.138-.75.144-.828.162-1.254.03-.774.366-.78.372-.87v-.006c0-.06-.078-.114-.078-.216v-.018c.03-.318.354-.414.594-.414.048 0 .516.084.564.084.414 0 .342-.036.75-.036.186 0 .342.036.342.264v.012zm7.418.096c0 .324-.246.354-.45.354h-.618c-.162 0-.828.246-1.038.246-.048 0-.024-.018-.09-.018-.06 0-.126.042-.18.048.042.066.06.162.06.27 0 .24-.078.522-.096.666.066.03.168.078.234.078.048 0 .06-.024.114-.024.06 0 .228.06.288.06.048 0 .528-.132.588-.132.204 0 .336.24.336.3v.006c-.018.276-.276.498-.504.498-.048 0-.81.024-1.218.042-.078.144-.162.45-.162.498 0 .06.222.306.222.69v.072c-.018.264-.504.528-.654.528-.264 0-.366-.27-.366-.468v-.036c.006-.078.234-.756.294-1.548l.042-.6c.048-.612-.018-.816.414-1.044a.987.987 0 0 1-.048-.246v-.018c.006-.09.078-.138.204-.276.51-.096 1.788-.378 1.992-.378.06 0 .156.024.222.048.372.114.414.066.414.384zm3.394.72c-.048.684-.492 2.346-.66 2.616-.066.108-.162.288-.516.522-.186.126-.522.198-.726.198-.75 0-.81-1.05-.9-1.224.024-.048.048-.066.048-.114v-.012c0-.042-.036-.102-.036-.15a.24.24 0 0 0 .018-.09c0-.012-.006-.03-.006-.042-.012-.018-.018-.054-.018-.102 0-.336.246-1.32.3-1.374.078-.078.27-.216.342-.39.084-.204.24-.348.354-.348.048 0 .294-.036.342-.036.192 0 .354-.144.912-.144.33 0 .546.408.546.66v.03zm-.69.21c-.078-.12-.3-.216-.36-.216-.78 0-1.032 1.086-1.032 1.86 0 .066.06.69.33.69.606 0 1.062-1.758 1.062-2.334zm5.728.702c0 .048-.042.222-.084.318-.048.114-.276.132-.342.156-.024 0-.066.084-.12.084-.048 0-.24-.048-.288-.048-.048 0-.18.066-.258.114-.024.69-.702 1.776-1.5 1.776-.582 0-1.152-.66-1.152-1.224v-.042c.018-.048.084-.36.108-.522.024-.054.108-.3.156-.39.198-.342.828-1.23 1.056-1.566.06-.09.624-.546.672-.546.24 0 .504.168.504.456v.036c-.012.168-.87.882-.936 1.044a.55.55 0 0 0-.264.282.817.817 0 0 0 .126.012c.096 0 .192-.012.234-.012.048 0 .366-.096.414-.096.06 0 .354.03.408.03.426 0 .696-.276.81-.276.138 0 .456.198.456.396v.018zm-1.818.876v-.018c0-.216-.474-.132-.774-.294-.09-.048-.174-.138-.228-.156-.06.06-.24.384-.264.564v.012c0 .228.21.648.516.648.258 0 .726-.486.75-.756zm6.574-.876c0 .048-.042.222-.084.318-.048.114-.276.132-.342.156-.024 0-.066.084-.12.084-.048 0-.24-.048-.288-.048-.048 0-.18.066-.258.114-.024.69-.702 1.776-1.5 1.776-.582 0-1.152-.66-1.152-1.224v-.042c.018-.048.084-.36.108-.522.024-.054.108-.3.156-.39.198-.342.828-1.23 1.056-1.566.06-.09.624-.546.672-.546.24 0 .504.168.504.456v.036c-.012.168-.87.882-.936 1.044a.55.55 0 0 0-.264.282.817.817 0 0 0 .126.012c.096 0 .192-.012.234-.012.048 0 .366-.096.414-.096.06 0 .354.03.408.03.426 0 .696-.276.81-.276.138 0 .456.198.456.396v.018zm-1.818.876v-.018c0-.216-.474-.132-.774-.294-.09-.048-.174-.138-.228-.156-.06.06-.24.384-.264.564v.012c0 .228.21.648.516.648.258 0 .726-.486.75-.756zm5.752-2.268c-.054.384-.24.336-.492.732-.024.048-.204.192-.282.306-.342.408-.204.558-.27.798a.628.628 0 0 1-.174.234c-.51.522-.432.924-.576 1.524-.036.066-.174.144-.204.168-.162.102-.186.114-.252.114h-.09c-.21 0-.384-.12-.384-.312 0-.018.006-.03.006-.048.06-.492.702-1.17.726-1.746-.228-.198-.522-.66-.84-.792-.09-.036-.252-.246-.366-.39 0-.108-.042-.27-.042-.318.024-.114.156-.366.36-.366.048 0 .264.018.318.096.204.312.618.594 1.002.972.036-.036.882-1.38 1.218-1.38.24 0 .354.084.354.294 0 .036-.006.072-.012.114zm6.542 1.164c0 .048-.096.498-.138.738-.162.888-1.332 1.464-1.956 1.752-.048.006-.114.132-.18.15a2.348 2.348 0 0 1-.3.048c-.048 0-.108-.06-.174-.066-.27-.102-.492-.186-.492-.468v-.042c.012-.072.084-.168.084-.258a.213.213 0 0 0-.012-.06c.078-.024.216-.192.276-.192.048 0 .072.048.126.048.222 0 .264-.594.264-.66l-.042-1.308c.048-.6.75-1.344 1.392-1.344.9 0 1.152 1.056 1.152 1.578v.084zm-.684.246v-.024c0-.168-.048-.636-.114-.732-.066-.09-.246-.252-.294-.252-.024 0-.024.006-.024.012s0 .012-.024.012c-.06 0-.126-.09-.18-.09-.432 0-.492 1.08-.492 1.116-.024.228-.186 1.134-.192 1.224 0 .054.114.258.162.258.474 0 1.11-.9 1.11-1.194v-.018c-.006-.018-.006-.036-.006-.054 0-.096.042-.216.054-.258zm4.954-.93c-.048.684-.492 2.346-.66 2.616-.066.108-.162.288-.516.522-.186.126-.522.198-.726.198-.75 0-.81-1.05-.9-1.224.024-.048.048-.066.048-.114v-.012c0-.042-.036-.102-.036-.15a.24.24 0 0 0 .018-.09c0-.012-.006-.03-.006-.042-.012-.018-.018-.054-.018-.102 0-.336.246-1.32.3-1.374.078-.078.27-.216.342-.39.084-.204.24-.348.354-.348.048 0 .294-.036.342-.036.192 0 .354-.144.912-.144.33 0 .546.408.546.66v.03zm-.69.21c-.078-.12-.3-.216-.36-.216-.78 0-1.032 1.086-1.032 1.86 0 .066.06.69.33.69.606 0 1.062-1.758 1.062-2.334zm5.728.702c0 .048-.042.222-.084.318-.048.114-.276.132-.342.156-.024 0-.066.084-.12.084-.048 0-.24-.048-.288-.048-.048 0-.18.066-.258.114-.024.69-.702 1.776-1.5 1.776-.582 0-1.152-.66-1.152-1.224v-.042c.018-.048.084-.36.108-.522.024-.054.108-.3.156-.39.198-.342.828-1.23 1.056-1.566.06-.09.624-.546.672-.546.24 0 .504.168.504.456v.036c-.012.168-.87.882-.936 1.044a.55.55 0 0 0-.264.282.817.817 0 0 0 .126.012c.096 0 .192-.012.234-.012.048 0 .366-.096.414-.096.06 0 .354.03.408.03.426 0 .696-.276.81-.276.138 0 .456.198.456.396v.018zm-1.818.876v-.018c0-.216-.474-.132-.774-.294-.09-.048-.174-.138-.228-.156-.06.06-.24.384-.264.564v.012c0 .228.21.648.516.648.258 0 .726-.486.75-.756z" filter="url(#c)"/>
        <path fill="#1A1919" fill-rule="nonzero" d="M44.991 31.334c-.048.324-.684.504-.906.504-.048 0-.228-.024-.294-.024-.084 0-.282.024-.336.168-.024.09-.024.198-.06.318-.006.066-.096.174-.096.228-.024.09-.072.948-.18 1.386.042.096.09.552.09.744 0 .03 0 .06-.006.072-.024.162-.312.42-.432.42-.3 0-.48-.3-.48-.552 0-.03 0-.06.006-.09 0-.09.144-.192.168-.51l.15-1.962c-.024-.006-.048-.012-.084-.012-.204 0-.582.144-.624.144-.048 0-.102.096-.15.096-.12 0-.444-.168-.444-.402v-.03c.036-.306 1.596-.63 1.62-.63.438-.048.996-.09 1.404-.18.108-.006.108-.138.36-.138.21 0 .306.12.306.324a.895.895 0 0 1-.012.126zm4.21 1.392c-.042.6-.534.03-.582.804 0 .042-.006.084-.006.12 0 .486.228.63.228.942v.042c-.012.21-.39.528-.57.528a.479.479 0 0 1-.456-.468v-.036c0-.06.114-.57.12-.63.006-.102.018-.246.018-.39 0-.156-.012-.306-.036-.39-.366.048-.852.114-1.284.258 0 .084-.06.42-.06.468 0 .048.18.33.18.39-.006.114-.102.6-.486.6a.454.454 0 0 1-.45-.456v-.03c.024-.342.186-.954.186-1.404 0-.414.018-1.032.174-1.434.096-.252.27-.792.666-.792.198 0 .402.198.402.396v.006c-.018.066-.432 1.02-.444 1.278 0 .03.006.048.006.06 0 .012 0 .018-.006.024h.06c.306 0 .774-.036.816-.036.048 0 .192-.03.258-.078.09-.174.006-1.59.588-1.59.252 0 .354.126.354.318 0 .018-.006.042-.006.066 0 .048-.162.852-.162.912v.048c0 .036.006.066.036.066.048 0 .048-.048.102-.048.036 0 .18.072.264.114.078.036.09.21.09.3v.042zm4.318-1.74c-.018.096-.072.318-.156.336-.654.156-.798.168-1.02.168h-.138c-.048 0-.18.006-.27.006-.024.108.006.276-.042.414-.048.138-.138.228-.168.546v.018c0 .084.096.102.114.102.054 0 .114.024.168.024.744 0 .696-.456 1.08-.456.21 0 .348.378.348.456-.024.204-.252.42-.348.45-.114.036-.312.048-.45.096-.084.036-.414.24-.594.24-.06 0-.012-.018-.066-.018-.048 0-.09.048-.138.066h-.108a.43.43 0 0 0-.204.042c-.078.054-.084.342-.09.438 0 .03-.006.084-.006.138 0 .162.036.378.258.378.636 0 1.056-.27 1.338-.27.24 0 .336.084.336.264 0 .03.012.06.012.096 0 .06-.03.138-.21.246-.414.258-.936.126-1.302.36-.15.03-.384.054-.432.054-.462 0-.744-.462-.744-.858v-.048c.018-.066.102-.72.126-.834.138-.75.144-.828.162-1.254.03-.774.366-.78.372-.87v-.006c0-.06-.078-.114-.078-.216v-.018c.03-.318.354-.414.594-.414.048 0 .516.084.564.084.414 0 .342-.036.75-.036.186 0 .342.036.342.264v.012zm7.418.096c0 .324-.246.354-.45.354h-.618c-.162 0-.828.246-1.038.246-.048 0-.024-.018-.09-.018-.06 0-.126.042-.18.048.042.066.06.162.06.27 0 .24-.078.522-.096.666.066.03.168.078.234.078.048 0 .06-.024.114-.024.06 0 .228.06.288.06.048 0 .528-.132.588-.132.204 0 .336.24.336.3v.006c-.018.276-.276.498-.504.498-.048 0-.81.024-1.218.042-.078.144-.162.45-.162.498 0 .06.222.306.222.69v.072c-.018.264-.504.528-.654.528-.264 0-.366-.27-.366-.468v-.036c.006-.078.234-.756.294-1.548l.042-.6c.048-.612-.018-.816.414-1.044a.987.987 0 0 1-.048-.246v-.018c.006-.09.078-.138.204-.276.51-.096 1.788-.378 1.992-.378.06 0 .156.024.222.048.372.114.414.066.414.384zm3.394.72c-.048.684-.492 2.346-.66 2.616-.066.108-.162.288-.516.522-.186.126-.522.198-.726.198-.75 0-.81-1.05-.9-1.224.024-.048.048-.066.048-.114v-.012c0-.042-.036-.102-.036-.15a.24.24 0 0 0 .018-.09c0-.012-.006-.03-.006-.042-.012-.018-.018-.054-.018-.102 0-.336.246-1.32.3-1.374.078-.078.27-.216.342-.39.084-.204.24-.348.354-.348.048 0 .294-.036.342-.036.192 0 .354-.144.912-.144.33 0 .546.408.546.66v.03zm-.69.21c-.078-.12-.3-.216-.36-.216-.78 0-1.032 1.086-1.032 1.86 0 .066.06.69.33.69.606 0 1.062-1.758 1.062-2.334zm5.728.702c0 .048-.042.222-.084.318-.048.114-.276.132-.342.156-.024 0-.066.084-.12.084-.048 0-.24-.048-.288-.048-.048 0-.18.066-.258.114-.024.69-.702 1.776-1.5 1.776-.582 0-1.152-.66-1.152-1.224v-.042c.018-.048.084-.36.108-.522.024-.054.108-.3.156-.39.198-.342.828-1.23 1.056-1.566.06-.09.624-.546.672-.546.24 0 .504.168.504.456v.036c-.012.168-.87.882-.936 1.044a.55.55 0 0 0-.264.282.817.817 0 0 0 .126.012c.096 0 .192-.012.234-.012.048 0 .366-.096.414-.096.06 0 .354.03.408.03.426 0 .696-.276.81-.276.138 0 .456.198.456.396v.018zm-1.818.876v-.018c0-.216-.474-.132-.774-.294-.09-.048-.174-.138-.228-.156-.06.06-.24.384-.264.564v.012c0 .228.21.648.516.648.258 0 .726-.486.75-.756zm6.574-.876c0 .048-.042.222-.084.318-.048.114-.276.132-.342.156-.024 0-.066.084-.12.084-.048 0-.24-.048-.288-.048-.048 0-.18.066-.258.114-.024.69-.702 1.776-1.5 1.776-.582 0-1.152-.66-1.152-1.224v-.042c.018-.048.084-.36.108-.522.024-.054.108-.3.156-.39.198-.342.828-1.23 1.056-1.566.06-.09.624-.546.672-.546.24 0 .504.168.504.456v.036c-.012.168-.87.882-.936 1.044a.55.55 0 0 0-.264.282.817.817 0 0 0 .126.012c.096 0 .192-.012.234-.012.048 0 .366-.096.414-.096.06 0 .354.03.408.03.426 0 .696-.276.81-.276.138 0 .456.198.456.396v.018zm-1.818.876v-.018c0-.216-.474-.132-.774-.294-.09-.048-.174-.138-.228-.156-.06.06-.24.384-.264.564v.012c0 .228.21.648.516.648.258 0 .726-.486.75-.756zm5.752-2.268c-.054.384-.24.336-.492.732-.024.048-.204.192-.282.306-.342.408-.204.558-.27.798a.628.628 0 0 1-.174.234c-.51.522-.432.924-.576 1.524-.036.066-.174.144-.204.168-.162.102-.186.114-.252.114h-.09c-.21 0-.384-.12-.384-.312 0-.018.006-.03.006-.048.06-.492.702-1.17.726-1.746-.228-.198-.522-.66-.84-.792-.09-.036-.252-.246-.366-.39 0-.108-.042-.27-.042-.318.024-.114.156-.366.36-.366.048 0 .264.018.318.096.204.312.618.594 1.002.972.036-.036.882-1.38 1.218-1.38.24 0 .354.084.354.294 0 .036-.006.072-.012.114zm6.542 1.164c0 .048-.096.498-.138.738-.162.888-1.332 1.464-1.956 1.752-.048.006-.114.132-.18.15a2.348 2.348 0 0 1-.3.048c-.048 0-.108-.06-.174-.066-.27-.102-.492-.186-.492-.468v-.042c.012-.072.084-.168.084-.258a.213.213 0 0 0-.012-.06c.078-.024.216-.192.276-.192.048 0 .072.048.126.048.222 0 .264-.594.264-.66l-.042-1.308c.048-.6.75-1.344 1.392-1.344.9 0 1.152 1.056 1.152 1.578v.084zm-.684.246v-.024c0-.168-.048-.636-.114-.732-.066-.09-.246-.252-.294-.252-.024 0-.024.006-.024.012s0 .012-.024.012c-.06 0-.126-.09-.18-.09-.432 0-.492 1.08-.492 1.116-.024.228-.186 1.134-.192 1.224 0 .054.114.258.162.258.474 0 1.11-.9 1.11-1.194v-.018c-.006-.018-.006-.036-.006-.054 0-.096.042-.216.054-.258zm4.954-.93c-.048.684-.492 2.346-.66 2.616-.066.108-.162.288-.516.522-.186.126-.522.198-.726.198-.75 0-.81-1.05-.9-1.224.024-.048.048-.066.048-.114v-.012c0-.042-.036-.102-.036-.15a.24.24 0 0 0 .018-.09c0-.012-.006-.03-.006-.042-.012-.018-.018-.054-.018-.102 0-.336.246-1.32.3-1.374.078-.078.27-.216.342-.39.084-.204.24-.348.354-.348.048 0 .294-.036.342-.036.192 0 .354-.144.912-.144.33 0 .546.408.546.66v.03zm-.69.21c-.078-.12-.3-.216-.36-.216-.78 0-1.032 1.086-1.032 1.86 0 .066.06.69.33.69.606 0 1.062-1.758 1.062-2.334zm5.728.702c0 .048-.042.222-.084.318-.048.114-.276.132-.342.156-.024 0-.066.084-.12.084-.048 0-.24-.048-.288-.048-.048 0-.18.066-.258.114-.024.69-.702 1.776-1.5 1.776-.582 0-1.152-.66-1.152-1.224v-.042c.018-.048.084-.36.108-.522.024-.054.108-.3.156-.39.198-.342.828-1.23 1.056-1.566.06-.09.624-.546.672-.546.24 0 .504.168.504.456v.036c-.012.168-.87.882-.936 1.044a.55.55 0 0 0-.264.282.817.817 0 0 0 .126.012c.096 0 .192-.012.234-.012.048 0 .366-.096.414-.096.06 0 .354.03.408.03.426 0 .696-.276.81-.276.138 0 .456.198.456.396v.018zm-1.818.876v-.018c0-.216-.474-.132-.774-.294-.09-.048-.174-.138-.228-.156-.06.06-.24.384-.264.564v.012c0 .228.21.648.516.648.258 0 .726-.486.75-.756z" filter="url(#d)"/>
    </g>
</svg>
