<?xml version="1.0" encoding="UTF-8"?>
<svg width="13px" height="24px" viewBox="0 0 13 24" version="1.1" xmlns="http://www.w3.org/2000/svg" xmlns:xlink="http://www.w3.org/1999/xlink">
    <!-- Generator: Sketch 57.1 (83088) - https://sketch.com -->
    <title>outline arrow</title>
    <desc>Created with Sketch.</desc>
    <g id="Page-1" stroke="none" stroke-width="1" fill="none" fill-rule="evenodd">
        <g id="Item---Set" transform="translate(-717.000000, -1018.000000)" fill="#4A4A4A" fill-rule="nonzero">
            <g id="Product-Info" transform="translate(84.000000, 239.000000)">
                <g id="outline-arrow" transform="translate(618.000000, 771.000000)">
                    <path d="M26.2697454,20.1923238 L26.2697454,19.8162963 L26.0740741,20.0043101 L26.2697454,20.1923238 Z M15.8144508,9.38435558 C15.6682138,9.23081056 15.6100319,9.00282144 15.6646383,8.78884291 C15.7183043,8.57854969 15.8716628,8.41752728 16.0643626,8.36331318 C16.2538757,8.30999566 16.4563073,8.36694771 16.5976521,8.51535606 L26.9456194,19.3804561 C27.0547206,19.4940741 27.117037,19.6511261 27.117037,19.8161395 C27.117037,19.9811529 27.0547206,20.138205 26.9467513,20.2506393 L16.59878,31.1157339 C16.4935425,31.2271403 16.3523826,31.2888889 16.2060515,31.2888889 C16.0597203,31.2888889 15.9185604,31.2271403 15.813323,31.1157339 C15.5906828,30.8772547 15.5906828,30.4913387 15.8144027,30.2517209 L25.7480463,19.818013 L15.8144508,9.38435558 Z M26.1834671,20.0271881 C26.1559147,20.0009423 26.139336,19.9627194 26.139336,19.9221113 C26.139336,19.8815032 26.1559147,19.8432804 26.1842389,19.8162963 L26.0740741,19.9221128 L26.1834671,20.0271881 Z" id="Shape"></path>
                </g>
            </g>
        </g>
    </g>
</svg>